<?xml version="1.0" standalone="no"?>
<!DOCTYPE svg PUBLIC "-//W3C//DTD SVG 1.1//EN" "http://www.w3.org/Graphics/SVG/1.1/DTD/svg11.dtd" >
<svg xmlns="http://www.w3.org/2000/svg" xmlns:xlink="http://www.w3.org/1999/xlink" version="1.1">
<metadata>
Created by FontForge 20170731 at Fri Jan 13 15:31:25 2023
 By Aleksey,,,
Copyright (c) 1999-2021 Typodermic Fonts Inc. All rights reserved.
</metadata>
<defs>
<font id="ChineseRocksRg-Regular" horiz-adv-x="456" >
  <font-face 
    font-family="Chinese Rocks Rg"
    font-weight="400"
    font-stretch="normal"
    units-per-em="2048"
    panose-1="0 0 4 0 0 0 0 0 0 0"
    ascent="1536"
    descent="-512"
    x-height="1520"
    cap-height="1530"
    bbox="-381 -469 1860 1843"
    underline-thickness="40"
    underline-position="-353"
    unicode-range="U+0017-25CA"
  />
<missing-glyph horiz-adv-x="1492" 
d="M1329 -342h-1198l-59 76v1923l59 57h1198l72 -57v-1923zM1204 958l-14 41l47 187l-16 69l-72 84l-670 207l-125 -125l-18 -78l-66 -387l92 5l144 -27l18 151l-6 2l43 146l37 4l367 -109l34 -24l-22 -92l-19 -133l-606 -390l-20 -36l-45 -185l260 -59l12 86l14 59l338 213
l23 27l201 84zM520 18l-4 72l-20 60l-39 49l-45 12l-54 -12l-55 -31l-43 -45l-12 -47l10 -64l27 -61l41 -41l73 -23l101 45z" />
    <glyph glyph-name=".notdef" horiz-adv-x="1492" 
d="M1329 -342h-1198l-59 76v1923l59 57h1198l72 -57v-1923zM1204 958l-14 41l47 187l-16 69l-72 84l-670 207l-125 -125l-18 -78l-66 -387l92 5l144 -27l18 151l-6 2l43 146l37 4l367 -109l34 -24l-22 -92l-19 -133l-606 -390l-20 -36l-45 -185l260 -59l12 86l14 59l338 213
l23 27l201 84zM520 18l-4 72l-20 60l-39 49l-45 12l-54 -12l-55 -31l-43 -45l-12 -47l10 -64l27 -61l41 -41l73 -23l101 45z" />
    <glyph glyph-name=".null" horiz-adv-x="0" 
 />
    <glyph glyph-name="nonmarkingreturn" horiz-adv-x="682" 
 />
    <glyph glyph-name="uni0017" horiz-adv-x="477" 
 />
    <glyph glyph-name="space" unicode=" " horiz-adv-x="477" 
 />
    <glyph glyph-name="exclam" unicode="!" horiz-adv-x="477" 
d="M375 1090l24 -99l-12 -20l4 -56l-6 -20v-371l-18 -86h-179l-59 -8l-12 37v663l-15 19l-8 68l4 32l-4 23l-10 4l14 45v143l11 4l8 25l-15 29h265l26 -60l-12 -20l2 -17l-8 -22v-313zM377 217v-27l-2 -53l-86 -74l-82 5l-49 26l-37 43l-23 53l-2 27l10 53l84 80l54 8l30 -2
l50 -30l32 -50z" />
    <glyph glyph-name="quotedbl" unicode="&#x22;" horiz-adv-x="559" 
d="M346 1509l129 2v-413l-102 -27h-25l-18 8v408zM96 1511h133v-430l-145 31v358z" />
    <glyph glyph-name="numbersign" unicode="#" horiz-adv-x="1067" 
d="M942 799l-20 -127h-181v-10l-10 -29l-55 -342h-109l-6 86l49 295l-75 -6h-170l-25 -142l-16 -114l-19 -107l-6 -12h-106l-13 43l53 323h-133l-39 9l21 133h174l35 219h-185l21 127h186l11 59l12 51l29 175l4 61l6 10h119l-43 -356h235l33 198l22 158h113l-4 -43l-23 -139
l-18 -170h174l-20 -131h-164l-33 -219h176zM430 1018l-41 -219h242l37 219h-238z" />
    <glyph glyph-name="dollar" unicode="$" horiz-adv-x="942" 
d="M803 756l86 -51v-13l-15 -8v-469h-67l-2 -18l-14 14h-86v4h-119v-156h-217v158h-256l-13 21l-28 409l16 8h74l149 23v-127l13 -21l-15 -14v-76l8 -14h359l-25 168l-573 274v377l-12 82v45l-7 17l15 8l4 14h149l148 -8l-10 143h215v-143l208 18l11 -10l45 -78l37 -420
l-217 19l-19 65l6 177l-41 4l-116 -7h-205l6 -143l27 -20z" />
    <glyph glyph-name="percent" unicode="%" horiz-adv-x="933" 
d="M862 1479v-41l-28 -13v-67l-54 -117l-16 -61l-473 -1143h-193l156 393l-2 23l20 22l-2 47l25 2l4 39l-6 10l16 11l-4 41l19 -4l77 235l25 16l-6 19l12 16v13l17 10l-3 16l9 8v21l18 18l27 80l-4 17l125 258l-7 24l19 4v31l16 6l13 66h200zM379 1483v-436h-373v399l66 37
h307zM850 397l47 -338h-375l-16 23v55l-8 47v250l241 17l111 22v-76zM164 1178h55v163h-65v-73zM702 162v164l-51 4v-174z" />
    <glyph glyph-name="ampersand" unicode="&#x26;" horiz-adv-x="886" 
d="M815 877v-236l-59 21h-109l-80 -9v-276h-243l16 129v131h-156l-26 -4l-45 -17l-23 13h-14v235h262v256h240v-256h120z" />
    <glyph glyph-name="quotesingle" unicode="'" horiz-adv-x="282" 
d="M68 1511h168v-430l-189 31v358z" />
    <glyph glyph-name="parenleft" unicode="(" horiz-adv-x="444" 
d="M403 -31v-231h-110l-17 6h-200l-13 94v1925h308l12 -24v-209l-109 8l-14 -10v-393l10 -56v-1126z" />
    <glyph glyph-name="parenright" unicode=")" horiz-adv-x="516" 
d="M406 -250h-308l-10 21v209l107 -9l14 9v393l-8 57v1124l-135 -16v231h110l19 -6h200l11 -94v-1919z" />
    <glyph glyph-name="asterisk" unicode="*" horiz-adv-x="933" 
d="M760 1014l141 -13l-190 -204l-6 -43l24 -35l31 -207l-275 168l-258 -168l66 285l-88 96l-4 27l-23 2l-108 96l286 24l52 78l-17 27l33 14l61 158l129 -293l97 -8l16 -21z" />
    <glyph glyph-name="plus" unicode="+" horiz-adv-x="886" 
d="M815 877v-236l-59 21h-109l-80 -9v-276h-243l16 129v131h-156l-26 -4l-45 -17l-23 13h-14v235h262v256h240v-256h120z" />
    <glyph glyph-name="comma" unicode="," horiz-adv-x="440" 
d="M365 236v-31l-3 -25l-51 -219l-168 16l-53 269v20l31 47l43 41l49 27h47l47 -31l37 -51z" />
    <glyph glyph-name="hyphen" unicode="-" horiz-adv-x="909" 
d="M823 877v-236l-59 21h-90l-170 -21h-318l-65 -25l-23 13h-14v235h635z" />
    <glyph glyph-name="period" unicode="." horiz-adv-x="452" 
d="M369 180v-84l-86 -65h-78l-49 28l-41 45l-25 56v45l31 49l45 43l51 27h47l49 -33l35 -49z" />
    <glyph glyph-name="slash" unicode="/" horiz-adv-x="843" 
d="M811 1487v-49l-29 -13v-65l-69 -180l-471 -1143h-195l156 393v23l16 20v49l27 2l2 39l-6 10l18 11l-6 8v33l18 -4l78 235l25 16l-6 19l12 16v13l16 10l-2 16l8 8v21l19 18l24 94l125 261l-6 24l17 4v31l22 10l6 62z" />
    <glyph glyph-name="zero" unicode="0" horiz-adv-x="931" 
d="M866 160l-123 -160h-524l-29 74l-4 -19l-55 58l-29 22v670l-28 485v80l71 82l25 41v18h532l136 -159v-981zM301 227h377l-23 410l-12 25l-10 182v450h-215l-150 -8l8 -61v-207l9 -187v-524l18 -71z" />
    <glyph glyph-name="one" unicode="1" horiz-adv-x="600" 
d="M483 1096l25 -47l-19 -7l13 -65l-13 -49v-140l13 -213v-405l-13 -150l-110 9h-80l-25 -9v818l-18 20l12 19l-18 43h8l10 10l-18 8v35l6 31l-10 51h-8l-82 -45l-35 2l-33 -25v375l133 133l6 37l52 10h94l112 -10v-309l17 -2v-29l-19 -10l9 -80z" />
    <glyph glyph-name="two" unicode="2" horiz-adv-x="858" 
d="M809 49h-721v264l258 203l211 232l-16 213v274l-39 37h-183l-30 -15l-8 -106v-119l26 -203v-45l-10 -41l8 -22v-119h-35l-88 -14l-110 -29l-27 580v180l-8 51l12 8l82 140l92 -11h176l37 11l170 -11l23 9l16 -5l55 -51l60 -65v-236l-8 -26v-19l24 -12l-10 -27v-282
l10 -224l-67 -49l-162 -102l-17 -2l-41 -41l-100 -76l4 -18l10 -9h379v-172z" />
    <glyph glyph-name="three" unicode="3" horiz-adv-x="913" 
d="M848 233v-45l-33 -63l-74 -96l-61 12h-246l-102 -12h-94l-129 123v397l215 -25l-11 -96l11 -29v-77l-7 -15v-24l33 -58h135l142 8v244l-19 178l-41 25h-190l-88 -25v254l57 -18h60l178 18l24 31l-26 330l-23 24h-252l-4 -16l-20 -25l16 -18v-170l8 -43h-74l-153 -43v334
l-19 53l95 135h526l31 -35l82 -69l16 -2l-8 -142l26 -350l-118 -76l39 -61l79 -47v-191l17 -32v-93l-8 -34l4 -17l-4 -43z" />
    <glyph glyph-name="four" unicode="4" horiz-adv-x="878" 
d="M834 430v-190h-144l-8 -179l10 -34l-53 -7h-156v31l13 17v149l-9 14h-424v316l379 905h224l-9 -22v-875l41 -115zM256 428h217v338l-16 16l6 49l-6 46l6 20v74z" />
    <glyph glyph-name="five" unicode="5" horiz-adv-x="931" 
d="M870 780v-592l-104 -174h-500l-127 138l-20 200l-8 178l10 113l108 -8h78l41 18v-366l35 -37h190l39 14l25 19v24l-23 17v553l-32 32h-236l-18 -10l-209 16l-15 -6l-36 578l36 -14l21 24l82 -4l26 14h43l35 -10l13 6h168l16 -14l74 18h243l19 -12v-35l-17 -26v-179l-43 9
l-145 6l-121 -6h-172l-37 -17v-43l10 -71l23 -27h39l10 16l12 -6h265l90 23v-35l102 -86l-8 -23v-45l8 -61l-4 -84l-20 -21l6 -6z" />
    <glyph glyph-name="six" unicode="6" horiz-adv-x="956" 
d="M895 760l-12 -621l-11 -10l-16 2l-88 -137l-250 18h-262l-23 -12h-38l-25 59v19l-49 16l-19 41v180l-16 29v207h14l-8 35v809l19 8l20 20l14 27h19l6 6v19l16 2l43 63l195 -14h301l8 -23l125 -96v-47l16 -57v-56l-16 -16l25 -66v-204l-228 30v266l13 39l-47 21h-252
l-76 -8v-27l14 -12l-6 -29v-106l16 -271h504l-2 -47zM326 221h358l-29 334l11 63l-13 17h-327v-414z" />
    <glyph glyph-name="seven" unicode="7" horiz-adv-x="962" 
d="M899 1546v-10l-25 -143v-25l-24 -49l4 -43l-10 -6v-66l-49 -315l-33 -96l-4 -45l6 -13v-37l-25 -24v-53l-32 -113v-41l-41 -129l20 -31l-18 -4l-19 -41l-37 -199l4 -53h-206v66l26 123l4 53l88 534l74 385l41 160l-256 -37h-252l-69 6v181l-7 65h840z" />
    <glyph glyph-name="eight" unicode="8" horiz-adv-x="929" 
d="M864 406v-228l-6 -20l-90 -117v-18h-532l-136 157v543l123 72l-104 69l-47 27v481l123 160h524l117 -135v-486l16 -6v-63l-150 -84l33 -31l117 -20zM317 889h320v416h-354v-408l14 -20zM653 250l17 -4l-19 141v264h-372l22 -86v-327h217z" />
    <glyph glyph-name="nine" unicode="9" horiz-adv-x="956" 
d="M883 197l4 -21l-99 -143l-12 -8v-21l-117 10h-247l-160 -8l-133 105v229l-21 188l217 9l21 -158v-45l-12 -78l10 -16h338l16 10l-14 53l-23 346l-10 10l-78 -6h-282l-183 92v181l-6 12v418l-12 47l129 141l31 2l82 -10h411l35 -4l86 -111l6 -110l-4 -25l29 -297v-211
l-6 -69l8 -17l-6 -24v-160l-13 -72l15 -74v-165zM375 895h291l-11 78l-14 244v102h-121l-164 -8l-49 -13l10 -71l-12 -51l19 -15l-11 -51v-225h27z" />
    <glyph glyph-name="colon" unicode=":" horiz-adv-x="411" 
d="M360 664v-80l-86 -68h-79l-50 29l-39 47l-24 53v45l31 49l45 43l49 27h49l49 -33l35 -51zM360 172v-80l-86 -67h-79l-50 28l-39 47l-24 54v45l31 49l45 43l49 26h49l49 -32l35 -52z" />
    <glyph glyph-name="semicolon" unicode=";" horiz-adv-x="415" 
d="M362 199v-31l-2 -25l-51 -219l-168 17l-53 268v20l31 47l45 41l49 27h45l47 -33l35 -49zM365 680v-33l-3 -55l-83 -66h-78l-49 29l-41 45l-25 55v45l31 50l45 43l49 26h47l49 -28l37 -50z" />
    <glyph glyph-name="less" unicode="&#x3c;" horiz-adv-x="872" 
d="M819 547l8 -240l-399 123l-8 12l-129 70h-35l-184 90v359l39 4l77 30l37 25l6 -12l263 108l12 -2l135 53l29 -4l96 45l57 13v-199l-626 -244l252 -88l331 -143h39z" />
    <glyph glyph-name="equal" unicode="=" horiz-adv-x="872" 
d="M831 713v-236h-333l-375 -24l-35 12v248h743zM817 1069v-246h-739v236h491z" />
    <glyph glyph-name="greater" unicode="&#x3e;" horiz-adv-x="872" 
d="M80 981l-8 240l399 -123l8 -13l129 -69h35l184 -90v-359l-39 -4l-77 -31l-37 -24l-6 12l-262 -108l-13 2l-135 -54l-29 5l-96 -46l-57 -12v199l626 244l-251 88l-332 143h-39z" />
    <glyph glyph-name="question" unicode="?" horiz-adv-x="819" 
d="M766 1184v-451l-197 -88l-14 -29l-176 -137v-59l8 -76l-258 -16l-10 176l10 39l416 362l-8 53v256l-5 43l-40 15h-181l-32 -15l-11 -141l17 -43l10 -94l-117 -12l-117 -31l-30 362v72l92 146h498l90 -64l30 -57v-181zM408 168v-84l-86 -66h-78l-49 29l-41 45l-25 55v46
l31 49l45 43l51 26h47l49 -32l35 -50z" />
    <glyph glyph-name="at" unicode="@" horiz-adv-x="1437" 
d="M1380 459l-67 22h-815v649h510v-403h127v485l6 31v98h-809l28 -415l-12 -25v-446l-10 -17l16 -16v-96l-6 -62h672v-215h-862l-8 27l-29 522l10 70l-12 55l20 238l-30 34l22 68l-16 8l18 90l-18 29l14 12v344h1167l74 -28v-977zM664 702h167v234l-86 -12h-98z" />
    <glyph glyph-name="A" unicode="A" horiz-adv-x="925" 
d="M852 127l8 -111l-8 -8h-45l-109 17l-26 -5l-43 46l4 77l-17 11v16l11 10l-37 60l10 30l-65 -16l-52 4l-151 -6l-21 27l-22 -60l-33 -133l-8 -72l-203 19l78 645l90 477l20 64v86l15 16v59l20 39l13 94l284 -12l8 -78l17 -53l20 -41l11 -8v-84l24 -41l-4 -45l14 2l43 -211
l19 -24l26 -158l27 -98l-6 -17l41 -153l12 -74l4 -72l21 -39v-10l-11 -16l9 -23zM555 514l-96 616h-25l-53 -485h18v-12l-32 -72l-19 -65l43 8z" />
    <glyph glyph-name="B" unicode="B" horiz-adv-x="962" 
d="M881 31h-789v925l-37 33l6 25v133l19 164v178l-4 43l151 -10h492v-650l151 7l11 -13v-835zM535 233l108 7l-14 182v231l-178 -16h-136l-6 -37v-360l45 -7h181zM504 1282l-12 25h-181v-291l-6 -4v-25l12 -26l-12 -19l12 -29l-18 -18l18 -6l-2 -27h189v420z" />
    <glyph glyph-name="C" unicode="C" horiz-adv-x="907" 
d="M827 664v-613l-14 -14l-182 16h-445l-86 -4l-12 88l-16 201v172l-9 41l11 106l-13 37v197l21 70v200l-25 29l15 12v344h673l37 6l37 -34l-12 -48v-559l-53 9l-37 18l-19 -2l-10 16l-37 -10h-22l-43 12v260l8 35v92h-320v-108l29 -299l-12 -29v-456l-10 -11l16 -16
l-12 -35v-35l12 -6l-6 -82l67 -10h263v356z" />
    <glyph glyph-name="D" unicode="D" horiz-adv-x="1001" 
d="M903 1321v-1137l-16 -14l-64 -84l-45 -72l-164 9h-536l12 8v119l-12 104l14 -2l25 8l28 -16l70 4v1012l-10 45l-125 -11l-14 6l8 23v119l-8 108l694 -37l37 -59zM571 231l117 9l-29 358l-12 84l19 6l-23 205v145l21 269h-238l14 -129v-947h131z" />
    <glyph glyph-name="E" unicode="E" horiz-adv-x="806" 
d="M788 215v-213l-79 4l-31 -6l-19 12l-79 -12h-512v92l-17 72v1337l-18 8h698l43 -16v-217l-33 14h-393l-84 -4l-12 -12v-144l10 -77v-142l17 -14h204l133 14l5 -88l-9 -8l11 -145h-371l24 -133v-168l-6 -66l9 -88h509z" />
    <glyph glyph-name="F" unicode="F" horiz-adv-x="788" 
d="M754 1518v-258h-498v-347l41 -14h94l207 16v-110l14 -150l-16 -37h-346v-172l18 -63l-26 -354h-21l-78 20l-106 -8l-10 186v930l18 361h709z" />
    <glyph glyph-name="G" unicode="G" horiz-adv-x="962" 
d="M907 451v-428l-20 -7h-213l-27 11l-98 -9h-109l-102 15h-72l-12 -13l-31 7h-119l-14 202v478l-31 507v277l13 35l88 -8h688l14 -23l-8 -72v-65l10 -51l-8 -31l4 -27v2l25 -231h-238v250l-18 12h-344l-2 -14l-15 -21l21 -10v-547l4 -10l10 -2l-18 -41l16 -12l-10 -144
l18 -12l-16 -45l4 -92l12 -6l-2 -11l-10 -10l10 -35l-4 -16l367 22l-4 -8h14l4 41l-25 379h-235l-16 225l20 -10h354l109 10v-272z" />
    <glyph glyph-name="H" unicode="H" horiz-adv-x="989" 
d="M920 492l8 -19l-19 -35v-428h-239l-43 107v471l-195 -13h-59l-4 -4l6 -36v-17l18 -8l-18 -18v-15l12 -8l-10 -18l-6 -148l10 -145l-6 -17v-116l-13 -15h-231l-41 53l-16 37l24 21v57l-18 12l24 50l-18 24l2 33l16 72l-16 55v553l10 6l-8 16v154l10 64v217l-14 77l12 13
h262l46 -574l-13 -6l2 -35l-8 -6l16 -35l142 9l94 16l-8 35v397l-10 199h249l15 -56v-86l-13 -26l9 -62l28 -123l-10 -4l-8 -12l22 -166l9 -12l-2 -14l-11 -13l19 -73v-349l-4 -20l-11 -10z" />
    <glyph glyph-name="I" unicode="I" 
d="M377 395l14 -8l-16 -59v-250l-13 2v-76l9 -6h-260l-27 98l12 29v133l-12 356l8 17v186l-14 21l12 20l-6 86l6 135l6 8l-12 9l4 43l12 22l-16 21l12 39v227l15 76h170l65 6l29 -246v-668l6 -145z" />
    <glyph glyph-name="J" unicode="J" horiz-adv-x="1050" 
d="M950 793l6 -5l-10 -106v-408l4 -10l-4 -2l-12 -176l-14 -66h-820l2 7l-14 45v112l-8 125l-10 45l10 52v196l12 39h53l205 -20l15 -21v-35l-19 -14l12 -35v-127l-24 -43v-76l6 -8h176l158 -18v73l6 29l-8 10l4 11v446l18 8v56l11 100v233l-31 277h276v-694z" />
    <glyph glyph-name="K" unicode="K" horiz-adv-x="884" 
d="M770 1483l57 -8l-284 -586l8 -68l27 -125l200 -669h-198l-187 653l-86 -158v-477h-241l26 508v561l10 19v122l-16 238h229v-510l273 502l98 4z" />
    <glyph glyph-name="L" unicode="L" horiz-adv-x="862" 
d="M862 248v-248h-825v1241l-10 221l-9 45h234l-12 -106v-68l32 -2v-491l17 -19v-393l-8 -129l-11 -47l15 -10l2 -13l303 13l4 18l12 -2l10 -10h246z" />
    <glyph glyph-name="M" unicode="M" horiz-adv-x="925" 
d="M852 856l8 -252l-6 -8v-76l-6 -39l12 -16v-25l-8 2l-4 -45l8 -8l-12 -110v-123l-15 -21v-125l-12 -26h-158l-34 12l-23 14v563l16 246l-45 -147l-16 -94l-31 -89l-10 -104l-33 -16l-30 8l-29 117l-131 362l16 -328v-327l-20 -187l-8 -18h-175l-36 117v1312l30 78l17 13
l141 6l168 -371l33 -123v14l16 39l53 254l23 23l55 158h199l41 -340h6v-11l-10 -10l12 -41v-201l12 -22z" />
    <glyph glyph-name="N" unicode="N" horiz-adv-x="993" 
d="M901 1018l21 -393l8 -9l-10 -30l6 -6l-13 -207l15 -23l-15 -6v-22l17 -9l-17 -20l-10 -41l-8 -234h-233l-13 25l6 18l-75 158l-105 244l-113 293l-43 137v-143l13 -29l-10 -59l16 -123l-2 -17l6 -14l-16 -465l-35 -10h-80l-10 10l-17 -6h-45l-30 6l-35 969v286l24 228
l52 -10h104l35 12l153 -340l13 -8l-4 -9l22 -49l2 -24l70 -146l112 -325l11 -11l-37 857l18 49h215l25 -256v-60l16 -153l8 -9v-20z" />
    <glyph glyph-name="O" unicode="O" horiz-adv-x="921" 
d="M858 403l-12 -8l2 -35l-6 -88l-8 -16l10 -8l-17 -8l7 -23l18 -33l-18 -16l12 -4l-10 -58l8 -116l-13 2l-16 16l-10 -18h-12l-11 16l-10 -10l-16 6h-92l-25 10v-10h-96l-99 10l-6 -12h-166l-133 12l-6 6l-10 -10h-17l-30 402v628l12 66v43l-12 12l14 37v14l-14 9l12 14
l-16 295h712l35 -19v-301l21 -28l-2 -25l-17 -47l13 -10l-9 -97l17 -10l-8 -110l12 -23v-31l-19 -14l25 -47l-12 -10l6 -25l-6 -18v-49l6 -21l-8 -12l6 -25l-4 -18l12 -8l-8 -23v-145zM635 375v35l-6 116l-15 29v436l-16 6l14 23v211l6 61h-329l8 -123l-8 -16l10 -4v-10
l-12 -19l12 -41v-268l12 -14l-4 -9l-14 -8l31 -18l-35 -29l22 -135l6 -188l-18 -11l18 -22v-45l-10 -94l6 -13l181 13h133v104l-4 25z" />
    <glyph glyph-name="P" unicode="P" horiz-adv-x="899" 
d="M848 1477l20 -17l-12 -22v-508h-592v-514l25 -404l-21 -12l-43 12l-10 -2l-10 -10l-37 12h-53l-37 -10v1460l-12 23l4 24l114 -6l33 4l14 -8l150 6l14 -8h314l139 -6v-14zM272 1155h387v135h-405l18 -76v-59z" />
    <glyph glyph-name="Q" unicode="Q" horiz-adv-x="942" 
d="M862 559l-10 -110v-424l-164 12h-104v-80l-215 -16v96h-289v956l-31 535h789v-926zM575 250h68l-12 168v155l-13 23l13 18l-13 29l13 21l-19 6v647h-325v-1043l14 -24h68v340l206 -17v-323z" />
    <glyph glyph-name="R" unicode="R" horiz-adv-x="958" 
d="M88 55v181l-18 28l14 21v266l-23 14l11 10v105l-15 20l11 56v757h780v-49l26 -114v-56l-6 -14l35 -309l-6 -10l-14 -9l-127 9h-54l-14 -15l49 -235l86 -336l21 -109l-6 -8l14 -14l14 -84l-4 -29l19 -20l16 -113h-209l-94 274l-29 101l-86 405l-30 172h-158l33 -446v-168
l6 -139l-21 -187l-200 -8l-19 18zM283 1153h381l-5 59l5 74h-381l12 -61v-43zM86 59l2 -2l-2 -2v4z" />
    <glyph glyph-name="S" unicode="S" horiz-adv-x="960" 
d="M893 301l6 -4l-29 -135v-49l17 -27l-8 -70l-154 9l-20 -5h-592l-15 43l-14 130v438l8 12l86 4h133v-96l15 -21l-13 -10v-186l-6 -17l10 -88h359l-23 365l-575 274v641h323l11 9l34 -5l9 -8l65 13l10 -13l64 17l33 -2l6 -11l155 13l11 -13l47 -14l8 -90l-12 -6l24 -35v-57
l-8 -15l14 -26v-353l-206 19l-19 65v275l-37 4l-96 -6h-225v-80l12 -21l-8 -22v-49l8 -8l-6 -19v-43l27 -20l473 -246v-17l92 -40v-15l-10 -6l12 -293l-12 -59l14 -8z" />
    <glyph glyph-name="T" unicode="T" horiz-adv-x="950" 
d="M903 1419v-168h-311v-1271l-162 14l-37 -17l-39 3v432l-4 18l8 12l-16 183l-8 10l20 49v567h-309v254h854v-47l-6 -18z" />
    <glyph glyph-name="U" unicode="U" horiz-adv-x="974" 
d="M625 1497h256l-15 -94v-1397h-624l-166 -12v221l-8 25l24 172v1085h203v-674l24 -303l-8 -10l-16 -291h311l19 25v1253z" />
    <glyph glyph-name="V" unicode="V" horiz-adv-x="937" 
d="M854 1526l6 -113l-43 -186l6 -68l-45 -258v-37l-88 -504l-10 -22l12 -14l-22 -76l-27 -156l-4 -78h-334l-63 361v76l-64 264l-10 16l-109 805h213v-104l29 -89l64 -407l4 -98l30 -52l78 -522l215 1262h162z" />
    <glyph glyph-name="W" unicode="W" horiz-adv-x="960" 
d="M860 1526l12 -27l-12 -69l4 -17v-254h-8v-209l-22 -55l-43 -457l-23 -112l12 -2l-51 -150l6 -22l-8 -138h-162l-26 19l2 45l-31 483l-25 -2l-82 -532l-10 -7h-164l-166 1516h199l-14 -20v-89l16 -41l-6 -14l18 -90l43 -405l156 630l66 -282l69 -369l11 -14l8 -2l69 686
h162z" />
    <glyph glyph-name="X" unicode="X" horiz-adv-x="923" 
d="M569 788l326 -747l-92 -18h-84l-27 10l-8 37l-154 338l-20 4l-16 10l2 29l-33 2l6 18l-12 21l-211 -465h-211l315 784l-315 719l229 -25l193 -469l57 160l25 88l59 143l27 86h227l-305 -718l14 -9z" />
    <glyph glyph-name="Y" unicode="Y" horiz-adv-x="849" 
d="M551 1530h240l-164 -379l-76 -242l-8 -75v-392l8 -36l-25 -19l6 -18v-328h-233v795l-12 82l-43 145l-193 485h238l135 -461z" />
    <glyph glyph-name="Z" unicode="Z" horiz-adv-x="870" 
d="M811 1470v-155l-74 -92l-6 -43l-440 -949h514v-231h-111l-18 12l-96 -6h-496l-14 209l116 215l2 29l48 102l36 60l119 251l-6 19l31 39l4 45l135 301h-485l-23 233h758z" />
    <glyph glyph-name="bracketleft" unicode="[" horiz-adv-x="444" 
d="M403 -31v-231h-110l-17 6h-200l-13 94v1925h308l12 -24v-209l-109 8l-14 -10v-393l10 -56v-1126z" />
    <glyph glyph-name="backslash" unicode="\" horiz-adv-x="792" 
d="M786 37h-194l-471 1143v16l-98 258v33l200 -8l4 -37l13 -31l12 -4v-31l16 -4l-6 -24l125 -265l2 -32l121 -279l51 -151l19 4v-33l-7 -8l19 -11l-6 -10l4 -39l24 -2l-2 -45l19 -12v-37z" />
    <glyph glyph-name="bracketright" unicode="]" horiz-adv-x="516" 
d="M406 -250h-308l-10 21v209l107 -9l14 9v393l-8 57v1124l-135 -16v231h110l19 -6h200l11 -94v-1919z" />
    <glyph glyph-name="asciicircum" unicode="^" horiz-adv-x="911" 
d="M731 958l90 -249h-278l-68 280l-22 -18l-60 -135l-28 -127h-242l-6 51l49 90l72 147l57 131h338l63 -135z" />
    <glyph glyph-name="underscore" unicode="_" horiz-adv-x="739" 
d="M739 176v-223l-59 20h-90l-170 -20h-336l-49 -12l-23 12h-12v223h465l231 10z" />
    <glyph glyph-name="grave" unicode="`" horiz-adv-x="413" 
d="M233 1829l140 -205h-142l-41 10l-63 64l-86 110z" />
    <glyph glyph-name="a" unicode="a" horiz-adv-x="903" 
d="M868 -12h-172l-67 282h-338l-47 -272h-191l150 1102l10 4l25 139l38 133l11 119h196l84 6l15 -45l-2 -45l12 -10l43 -152l53 -235l113 -604zM346 512h240l-142 643v-145z" />
    <glyph glyph-name="b" unicode="b" horiz-adv-x="888" 
d="M825 590l11 -10l-17 -113l12 -289l-10 -61l8 -127l-30 10l-41 -4l-29 12h-104v-6h-99l-96 10l-6 -12h-238l-63 12l-6 6l-11 -10h-14l-16 205l-17 334v229l15 213v158l-13 12v369h578l35 -19v-301l20 -28l-2 -25l-16 -47l10 -10l-6 -97l16 -10l-8 -22v-95h141l-16 -61
l16 -39v-166zM618 375v96l-18 64v129l-63 -29h-246l6 -82l-12 -33l8 -18l10 -6l-6 -68l-8 -31l-4 2l16 -22l-8 -121l4 -31l180 13h135v110l-6 19zM475 864v428h-201l7 -123l-9 -16l13 -4v-10l-13 -19l11 -35v-221h192z" />
    <glyph glyph-name="c" unicode="c" horiz-adv-x="1005" 
d="M928 641l6 -248l12 -39l-12 -61v-37h-12l-7 -6l17 -74l-10 -16v-56l6 -32l-13 -62l-118 17l-29 -13h-674l-28 248l16 12v50l-8 63v295l-17 106l6 5v94l-12 82l12 18l-8 27l8 2v471h857v-510l14 -35l-14 -8v-72l-50 -4l-6 8l-16 -24l-41 16l-25 -22l-4 14l-123 -31v357
l-4 43l6 34l-28 -6l-336 -16l18 -133v-137l13 -78v-62l10 -8v-569l160 18h182l2 6l-10 15l12 63l-18 33v127l-13 29l13 -3l6 19l-17 4v29l15 39h133l24 22h8l17 -12l26 8h54z" />
    <glyph glyph-name="d" unicode="d" horiz-adv-x="1017" 
d="M936 778l20 -53v-12l-14 -8v-295l-4 -41l12 -19l-10 -55l-6 -78l10 -16v-70l-76 -92l-84 -53h-706l-6 20l-13 117l-4 100l13 13v12l135 -10l10 16l-4 55l4 35l-6 21v65l12 43l-26 16v31l32 33l-18 18v406l-19 57l17 90l8 111l12 49h-149l6 31v76l-6 41l16 18l-8 14l-6 60
h549l149 14l144 -156l18 -297l12 -112l-12 -8l12 -19l-14 -51v-117zM694 256v20l-14 191l12 37l-30 123v30l6 19l-4 2l-15 59l13 8l-13 123v400h-198l24 -103v-336l-6 -12l10 -143v-438h211z" />
    <glyph glyph-name="e" unicode="e" horiz-adv-x="825" 
d="M821 360l-24 -202l6 -90h-713l-33 673v498l-26 43l16 21v227h713l8 -25v-96l-6 -20l24 -107h-143l-352 -18l-17 -11l-2 -36l-22 -13l24 -262l127 8l74 -8l137 -29v-84l-14 -57l14 -29v-43l-338 -18l-8 -20l-10 -72v-58l10 -20v-178l25 -12h334l49 14z" />
    <glyph glyph-name="f" unicode="f" horiz-adv-x="784" 
d="M752 1518v-258h-498v-347l61 -20h220l61 6l-18 -49v-43l30 -137v-27l-12 -25h-346l-14 -223v-334l-93 -12l-108 8l-8 179v921l18 361h707z" />
    <glyph glyph-name="g" unicode="g" horiz-adv-x="931" 
d="M86 1516h760v-68l-31 -365h-217v205h-262l-27 -53v-932l19 -51l34 -8h115l17 -27l45 27l14 -8h33l12 6v383h-170v272h399v-881h-741v1500z" />
    <glyph glyph-name="h" unicode="h" horiz-adv-x="1011" 
d="M952 10h-313l23 31l10 45l-41 590h-246l-25 -19l27 -661l-37 14h-219l-57 1024v531h256l39 -619h282l19 27v51l-23 135v336l-8 78l84 -4l166 14l12 -29l-4 -51l23 -235l24 -535v-407l-10 -250l14 -33z" />
    <glyph glyph-name="i" unicode="i" horiz-adv-x="446" 
d="M102 1511h246v-1312l-18 -217l-248 32v1471l-19 6z" />
    <glyph glyph-name="j" unicode="j" horiz-adv-x="899" 
d="M807 641l29 -35l-23 -67l16 -9l-16 -90l16 -28l-14 -13v-342h-674l-63 27v606l92 -26l18 4l13 -19l22 8l78 -8v-260l-6 -31v-96h319l-30 414l12 24v449l10 14l-16 17v372h196l25 -387l12 -125l-8 -104l10 -57z" />
    <glyph glyph-name="k" unicode="k" horiz-adv-x="843" 
d="M532 934l261 -866l-13 -41h-182l-201 616l-108 -201v-411h-203l-4 92l-14 123l-11 35l19 20l-8 100v1100h221v-592l10 -41l100 260h11l149 363h232z" />
    <glyph glyph-name="l" unicode="l" horiz-adv-x="772" 
d="M772 311v-284h-731v1468l-16 25h237l25 -492v-420l-15 -325l17 -15z" />
    <glyph glyph-name="m" unicode="m" horiz-adv-x="921" 
d="M838 18l-21 -18h-196l-17 29v745l-100 -346l-31 -4l-125 317l-26 56l26 -238v-551h-221l-29 125v883l-24 483l39 31h188l152 -416l157 432h211l-26 -86l-9 -43l37 -41l-10 -100l16 -256l-6 -33l17 -24l-17 -45l8 -101v-110l-18 -62l25 -289v-338z" />
    <glyph glyph-name="n" unicode="n" horiz-adv-x="952" 
d="M872 588l2 -58l-6 -8v-315l-16 -6v-115l8 -59h-180l-371 938v-932h-200l-23 129l12 12l-35 367l11 41v872l-11 62h158l10 10l25 -10l47 10l41 -162l29 -29l63 -166l23 -12l-10 -12l34 -70l-6 -12l168 -422l17 -23v107l-35 356l10 13v194l-16 10l16 15v203h215v-498
l16 -17l-12 -30l16 -25v-358z" />
    <glyph glyph-name="o" unicode="o" horiz-adv-x="942" 
d="M848 561l29 -530h-787v952l-24 135v168l10 25v221l225 -10h547v-961zM313 240h326v663l-21 379l-14 25h-313l22 -346l-12 -19l12 -29l-16 -18l16 -6v-649z" />
    <glyph glyph-name="p" unicode="p" horiz-adv-x="878" 
d="M834 1493v-637h-504v-813l-215 8l-49 -6v121l-11 90l11 10v617l-11 200l13 369l-11 41h777zM580 1083l28 37v144h-301l4 -72l-4 -82z" />
    <glyph glyph-name="q" unicode="q" horiz-adv-x="905" 
d="M846 403l-12 -8l2 -35l-7 -88l-8 -16l10 -8l-16 -8l6 -23l19 -33l-19 -16l13 -4l-9 -51v-90l-18 -25h-156l-24 14v-10h-88v-82l-185 17v69h-213l-20 12l-10 -10h-17l-31 402v628l13 66v43l-13 12l15 37v14l-15 9l13 14l-17 295h713l35 -19v-301l20 -28l-2 -25l-16 -47
l12 -10l-6 -99l14 -8l-8 -110l13 -23v-31l-19 -14l16 -256v-145zM623 375v35l-7 116l-14 29v436l-16 6l14 23v211l6 61h-330l9 -123l-9 -16l11 -4v-10l-11 -19l11 -45v-229l12 -49l-4 -9l-14 -8l30 -18l-35 -29l23 -135v-45l-12 -33l8 -18l10 -6v-39l-10 -11h-6l16 -36
l-10 -11h-8l18 -22v-45l-10 -94l6 -13h53v312l185 -17l16 -284l43 4l20 10v100l-8 17z" />
    <glyph glyph-name="r" unicode="r" horiz-adv-x="950" 
d="M858 1206l12 -8l-8 -35v-209l-182 -14l25 -168l8 -6l82 -381l-7 -25l70 -342h-188l-219 928l-29 -6h-66l-32 6l-23 -10l18 -428l-12 -29l12 -45v-22l-6 -19l13 -69l-19 -13l19 -26l-21 -76v-125l6 -55h-217l6 65v684l-24 318l8 186v219l4 31h758l18 -25l-6 -22v-279z
M639 1190l4 57l-4 47h-342v-96z" />
    <glyph glyph-name="s" unicode="s" horiz-adv-x="937" 
d="M879 420l2 -8v-398h-799l-12 21v22l10 39v559l8 9l68 -9h137v-419l14 -13h117l14 13l6 -9h220l-13 72v268l-358 226l-193 139h-14l-14 39v76l-15 170v305h555l242 8v-518l-16 -6l-119 6l-62 -6l-12 12v295l-27 16l-61 12h-35l-16 -18h-227v-104l12 -138l432 -282l156 -92
v-287z" />
    <glyph glyph-name="t" unicode="t" horiz-adv-x="940" 
d="M885 1313l10 -21l-27 -26l-96 20h-117l-37 -6v-397l9 -72v-502l6 -30v-115l12 -19l-12 -4v-18l-10 -27v-49l10 -31l-25 -20h-198l-13 18v1256h-344l8 43v188l-16 35v12l8 8l191 -20h252l24 4l58 -8l92 4l14 -8l6 10l17 6l30 -2l25 -14h112l11 -41v-174z" />
    <glyph glyph-name="u" unicode="u" horiz-adv-x="905" 
d="M819 813l23 -47l-13 -10v-242l7 -119l-11 -139l11 -8l-17 -8l17 -250l-29 22h-371l-6 6h-307l-55 -10v1211l12 14l-19 295l242 -19v-712l-18 -17l28 -18l-10 -29v-508h315l-6 142v1149h133l64 -7v-639l27 -43z" />
    <glyph glyph-name="v" unicode="v" horiz-adv-x="944" 
d="M655 1503l213 17l-108 -805l-12 -17l-62 -260v-67l-80 -373h-317l-4 78l-27 155l-22 76l10 15l-96 526l2 22l-48 273l5 59l-41 195l-11 112h176l218 -1261l77 508l127 667v80z" />
    <glyph glyph-name="w" unicode="w" horiz-adv-x="987" 
d="M891 1544l10 -10l-29 -211l-28 -270v-217l-15 -271l-38 -381v-37l18 -116h-82l-129 18v33l8 8l-114 498l-11 2l-53 -549l-137 6l-35 -8l-37 297l-86 594l-16 39l-31 596h45l10 -19h117l51 -20l-4 -80l68 -461h6l22 191l54 278l32 111h19l16 -11v-51l17 -123l82 -350h8
l10 180v176l12 66l-10 82l4 16h225z" />
    <glyph glyph-name="x" unicode="x" horiz-adv-x="909" 
d="M756 1532l129 6l-56 -82l-260 -684l170 -461l127 -288h-204l-193 444l-12 4l-11 37l-178 -404v-55l-10 -26h-231l338 733l-3 20l-65 154l-162 448l-82 178l223 -26v-29l-8 -14l205 -459l184 510h76z" />
    <glyph glyph-name="y" unicode="y" horiz-adv-x="819" 
d="M555 1540h238l-97 -240l-114 -323l-47 -234v-712h-242v338l24 18l-24 19l10 36v402l-162 483l-88 219h240l127 -491l39 186z" />
    <glyph glyph-name="z" unicode="z" horiz-adv-x="829" 
d="M772 264l23 -233h-756l-4 28v166l61 84l17 51l438 949h-512v231h111l18 -12l96 6h508v-209l-115 -213l-2 -31l-49 -104l-35 -57l-120 -250l6 -21l-29 -39l-10 -59l-131 -287h485z" />
    <glyph glyph-name="braceleft" unicode="{" horiz-adv-x="444" 
d="M403 -31v-231h-110l-17 6h-200l-13 94v1925h308l12 -24v-209l-109 8l-14 -10v-393l10 -56v-1126z" />
    <glyph glyph-name="bar" unicode="|" horiz-adv-x="620" 
d="M403 -268h-178l-14 65l-4 43v1852l18 98h119l41 8l14 -117l17 -258v-1265l20 -8l-10 -29l-12 -109v-184l-11 -8l-2 -47z" />
    <glyph glyph-name="braceright" unicode="}" horiz-adv-x="516" 
d="M406 -250h-308l-10 21v209l107 -9l14 9v393l-8 57v1124l-135 -16v231h110l19 -6h200l11 -94v-1919z" />
    <glyph glyph-name="asciitilde" unicode="~" horiz-adv-x="956" 
d="M653 911h215l15 -141l-29 -22l-12 -146h-393l-154 195l-35 -183l-201 -18l11 131l14 31l6 112l49 33h336l60 -84l36 -14l66 -80z" />
    <glyph glyph-name="nbspace" unicode="&#xa0;" horiz-adv-x="477" 
 />
    <glyph glyph-name="exclamdown" unicode="&#xa1;" horiz-adv-x="477" 
d="M393 643l13 -12l-9 -10l-12 -209v-238l14 -20l-26 -58h-262l12 2v47l-14 9v149l-17 39l14 6l-4 53l25 557l10 48h236l22 -66v-213l4 -29zM383 1266v-15l10 -30l-33 -60l-36 -49l-48 -31h-47l-51 27l-43 41l-31 47v47l25 55l39 45l49 29h68l55 -26l31 -37z" />
    <glyph glyph-name="cent" unicode="&#xa2;" horiz-adv-x="907" 
d="M465 1614h115v-68h225l-17 -205h-208v-1087h215l10 -201h-232v-98l-116 37v61h-271l-86 -4l-12 88l-16 201v172l-9 41l11 106l-13 37v197l21 70v200l-25 29l15 12v344h385v39l-11 6zM291 264l67 -10h107v1087h-191v-108l29 -299l-12 -29v-456l-10 -11l16 -16l-12 -35v-35
l12 -6z" />
    <glyph glyph-name="sterling" unicode="&#xa3;" horiz-adv-x="1138" 
d="M784 823v-245h-372v-320h643v-235h-574l-375 -25l-34 12v248h90v320h-117v235h119v432l14 176l15 66h819l-2 -6l14 -45v-113l8 -125l10 -45l-10 -51v-197l-12 -39h-53l-205 21l-14 20v35l18 14l-12 35v127l24 43v76l-6 8h-176l-158 19v-74l-6 -29l8 -10l-4 -10v-328h101z
" />
    <glyph glyph-name="currency" unicode="&#xa4;" horiz-adv-x="921" 
d="M887 383l-101 -113l-104 115h-55l-21 10v-10h-76l-77 10l-4 -12h-132l-63 6l-8 -12l-113 -109l-86 131l127 142l-12 200l10 90l-10 9l8 14l-4 104l-123 152l119 96l86 -96h438l80 90l-4 12l24 -8l103 -112l-139 -156v-105l16 -24l-2 -23l-2 -2h6l4 -84l-4 -75l-8 -15
l8 -6l-12 -8l4 -19l14 -30l-8 -10l117 -125l10 2zM602 713v20h-18v119l6 51h-260l6 -106l-6 -15h22l2 -41l-16 -6l16 -20v-41l-10 -82l6 -12l142 12h106v92l-4 21z" />
    <glyph glyph-name="yen" unicode="&#xa5;" horiz-adv-x="849" 
d="M809 715v-158h-266v-74h282v-155h-293v-287h-233v278h-250v164h250v74h-260v158h260v121l-12 82l-43 145l-193 485h238l135 -461l127 443h240l-164 -379l-76 -242l-8 -75v-119h266z" />
    <glyph glyph-name="brokenbar" unicode="&#xa6;" horiz-adv-x="620" 
d="M403 -268h-178l-14 65l-4 43v692h209v-374l20 -8l-10 -29l-12 -109v-184l-11 -8l-2 -47zM416 1423v-432h-209v701l18 98h119l41 8l14 -117z" />
    <glyph glyph-name="section" unicode="&#xa7;" horiz-adv-x="937" 
d="M895 18l2 -6v-334h-815l-12 17v20l10 33v469l8 6l70 -6h139v-352l14 -10h121l14 10l7 -8h223l-12 61v225l-367 189l-197 117h-14l-14 32v64l-15 143v256h183l-140 84h-14l-14 33v63l-15 142v241l813 23v-436l-16 -4l-123 4l-61 -4l-13 10v248l-28 14l-62 10h-35l-18 -16
h-231v-219l612 -299v-240l4 -264l-162 -8l158 -70v-238zM283 690l12 -115l260 -139h121l-12 60v225l-138 70l-12 -13h-231v-88z" />
    <glyph glyph-name="dieresis" unicode="&#xa8;" horiz-adv-x="655" 
d="M227 1776l17 -164h-203v194h178zM614 1815v-211l-36 10l-144 -10v211h180z" />
    <glyph glyph-name="copyright" unicode="&#xa9;" horiz-adv-x="1492" 
d="M1415 991l4 -1001l-401 22l-6 -12h-740l-166 8l-30 402v628l12 66v43l-12 12l14 37v14l-14 9l12 14l-16 295h1286l35 -19v-301l20 -28l-2 -25l-16 -47l12 -10l-8 -97zM1260 334v37l-7 131l-16 30v484l-18 6l16 27v233l6 68h-999l8 -138l-8 -16l10 -6v-10l-12 -21l12 -45
v-754l20 -24v-51l-10 -105l6 -12h983v129l-4 27zM991 705v-340l-8 -9l-119 9h-342l-8 47l-10 112v457l-10 16l10 7v190h434l41 -41v-293l-143 6v144l4 20v51h-205v-61l18 -166l-8 -16v-355l43 -6h170v197z" />
    <glyph glyph-name="ordfeminine" unicode="&#xaa;" horiz-adv-x="581" 
d="M510 680l6 -62l-12 -10l-35 4l-63 4l-9 -4l-32 35v43l-5 8l2 17l-18 28l2 5l-20 -5l-103 -2l-16 9l-23 -60l-8 -80l-133 13l33 276l41 238l4 53l20 76l6 61l-4 10l13 11v20l18 92l178 -8l4 -47l21 -55l6 -2v-37l14 -35v-14l-8 -2l14 -11l7 -49l16 -61l10 -15l2 -37
l29 -110l-4 -8l8 -11l-4 3l8 -15v2l4 -8l-4 -18l23 -127l8 -2v-17l-6 -10zM322 907l-39 201l-11 -6v-19l9 -14l-15 -27v-32l-12 -33l8 -6l-2 -15l-8 -10l-14 -45zM274 1128l5 -4l-3 11z" />
    <glyph glyph-name="guillemotleft" unicode="&#xab;" horiz-adv-x="888" 
d="M711 1032l34 2v-174l-135 -98l21 -47l131 -92v-162l-45 -8l-111 114l-147 176l121 140l22 45l47 20zM354 1047l35 -9l-10 -180l-107 -88l-16 -39l127 -100l12 -166l-35 -21l-108 142l-23 -2l2 24l-139 140z" />
    <glyph glyph-name="logicalnot" unicode="&#xac;" horiz-adv-x="1083" 
d="M997 281h-209l27 452h-446l-326 23v194l55 -14h899v-655z" />
    <glyph glyph-name="registered" unicode="&#xae;" horiz-adv-x="1492" 
d="M1415 991l4 -1001l-401 22l-6 -12h-740l-166 8l-30 402v628l12 66v43l-12 12l14 37v14l-14 9l12 14l-16 295h1286l35 -19v-301l20 -28l-2 -25l-16 -47l12 -10l-8 -97zM1260 334v37l-7 131l-16 30v484l-18 6l16 27v233l6 68h-999l8 -138l-8 -16l10 -6v-10l-12 -21l12 -45
v-754l20 -24v-51l-10 -105l6 -12h983v129l-4 27zM453 322l-17 890h594v-28l41 -295l-14 -12l-137 6l-13 -9l39 -141l66 -201l55 -225h-160l-71 164l-21 59l-65 244l-23 103h-121l25 -267v-184l-10 -111h-154zM600 997h289v80h-289l8 -37v-26z" />
    <glyph glyph-name="macron" unicode="&#xaf;" horiz-adv-x="727" 
d="M674 1821v-181l-45 17h-86l-166 -17h-266l-35 -20l-27 10v191h625z" />
    <glyph glyph-name="degree" unicode="&#xb0;" horiz-adv-x="696" 
d="M625 1430l2 -412l-166 10l-2 -6h-305l-76 4v504l-6 121h528l14 -9v-122l11 -13l-7 -73zM494 1217l-7 53v229h-278l2 -39l16 -26l-12 -260l2 -5h272z" />
    <glyph glyph-name="plusminus" unicode="&#xb1;" horiz-adv-x="886" 
d="M815 877v-236l-59 21h-109l-80 -9v-276h-243l16 129v131h-156l-26 -4l-45 -17l-23 13h-14v235h262v256h240v-256h120zM815 264v-235l-59 20h-109l-307 -24h-156l-26 -5l-45 -16l-23 12h-14v236h622z" />
    <glyph glyph-name="twosuperior" unicode="&#xb2;" horiz-adv-x="544" 
d="M494 717h-424l-9 141l11 21l139 112l115 121l-9 125v137l-14 15h-94l-10 -5l-2 -88l14 -147l-4 -39l2 -90l-72 -2l-78 -21l-20 463l16 10l41 74l156 -4l14 6l90 -6l21 6l59 -41l6 -14l19 -18v-136l-4 -20l16 -6l-10 -21v-164l6 -120l-129 -84l-12 -2l-2 -13l-66 -45h213
v-80z" />
    <glyph glyph-name="threesuperior" unicode="&#xb3;" horiz-adv-x="575" 
d="M502 870l6 -41v-38l-62 -84l-47 4h-235l-27 16l-57 51v238l139 -17l-4 -61l4 -14l2 -74l10 -10l19 -6l115 6v121l-11 94l-22 8h-92l-62 -16v167l45 -12l125 10l6 9l-14 174l-8 6h-125l-6 -12l6 -23l6 -119l-55 4l-95 -26v188l-12 41l62 84h297l24 -29l41 -30l14 -2
l-6 -43l15 -242l-60 -39l19 -29l41 -22v-109l10 -20z" />
    <glyph glyph-name="acute" unicode="&#xb4;" horiz-adv-x="413" 
d="M178 1829l195 -21l-11 -22l-139 -152l-41 -10h-141z" />
    <glyph glyph-name="paragraph" unicode="&#xb6;" horiz-adv-x="1093" 
d="M55 856v637h944v-1446l11 -221l8 -45h-234l13 106v68l-33 2v696l-16 19v393l8 129l10 47l-14 10l-2 13l-127 -13l6 -168l-11 -200v-883l11 -10l-11 -90v-121l-49 6l-215 -8v1079h-299z" />
    <glyph glyph-name="periodcentered" unicode="&#xb7;" horiz-adv-x="452" 
d="M369 754v-84l-86 -66h-78l-49 29l-41 45l-25 55v45l31 49l45 43l51 27h47l49 -33l35 -49z" />
    <glyph glyph-name="cedilla" unicode="&#xb8;" horiz-adv-x="401" 
d="M338 -195v-30l-2 -25l-51 -219l-168 16l-54 269v20l31 47l43 41l49 27h47l48 -31l36 -51z" />
    <glyph glyph-name="onesuperior" unicode="&#xb9;" horiz-adv-x="403" 
d="M313 1260l6 -21l-8 -27l6 -192v-186l-8 -134l-110 5l-27 -7v465l-14 6l8 17l-2 8l-21 20l17 3l-2 16v33l-43 -23l-15 2l-32 -24v235l73 72l4 24l29 9h80l55 -9v-174l8 -6v-22l-10 -7l4 -26l2 -27l-8 10z" />
    <glyph glyph-name="ordmasculine" unicode="&#xba;" horiz-adv-x="579" 
d="M520 711l-10 -2l-8 -47l4 -68l-27 8l-86 4l-6 4l-4 -6l-100 4l-4 -6h-164l-11 8l-24 -2l-19 307v125l7 199l-7 10l9 23l-9 6l7 18l-11 170h408l29 -14v-141l6 -37l6 -8l-10 -39l4 -8l-4 -50l12 -4l-6 -24v-39l6 -39l-10 -6l14 -23l-6 -8l-2 -22l4 -35l-4 -11l2 -16l6 -4
l-6 -74l2 -37l-6 -69l10 -6l-12 -11l6 -16zM369 827v13l-13 88v223l-12 8l14 21v135h-157v-62l6 -4v-12l-8 -8v-133l18 -43l-6 -6l25 -15l-35 -20l12 -68l-6 -43l12 -10l-2 -29l-8 -8l6 -4l2 -12l-6 -7l6 -16l-6 -65l154 6l-5 65z" />
    <glyph glyph-name="guillemotright" unicode="&#xbb;" horiz-adv-x="888" 
d="M131 459l-35 -2l10 174l136 98l-21 47l-131 92v162l45 8l111 -114l139 -185l-106 -114l-27 -45l-49 -37zM498 444l-35 9l-6 172l137 96l-6 33l-107 114l-24 158l35 21l147 -181l23 -4l-3 -18l101 -101z" />
    <glyph glyph-name="onequarter" unicode="&#xbc;" horiz-adv-x="1308" 
d="M354 1260l6 -21l-8 -27l6 -192v-186l-8 -134l-110 5l-27 -7v465l-14 6l8 17l-2 8l-21 20l17 3l-2 16v33l-43 -23l-15 2l-32 -24v235l73 72l4 24l29 9h80l55 -9v-174l8 -6v-22l-10 -7l4 -26l2 -27l-8 10zM1098 1479l-13 -52l-38 -69l-76 -117l-29 -61l-686 -1143h-193
l230 393l2 23l24 22l9 47l24 2l13 39l-7 10l19 11l4 41l18 -4l121 235l27 16l-2 19l14 16l2 13l19 10l2 16l10 8l4 21l20 18l43 80l-2 17l174 258l-2 24l21 4l4 31l18 6l25 66h201zM1087 264v-125h-77l-4 -90l10 -24l-58 -7h-84v29l7 86h-93l-145 -22v211l211 505h145
l-8 -34v-297l23 -224h51zM776 264h92v172l-10 8l4 45z" />
    <glyph glyph-name="onehalf" unicode="&#xbd;" horiz-adv-x="1298" 
d="M354 1260l6 -21l-8 -27l6 -192v-186l-8 -134l-110 5l-27 -7v465l-14 6l8 17l-2 8l-21 20l17 3l-2 16v33l-43 -23l-15 2l-32 -24v235l73 72l4 24l29 9h80l55 -9v-174l8 -6v-22l-10 -7l4 -26l2 -27l-8 10zM1098 1479l-13 -52l-38 -69l-76 -117l-29 -61l-686 -1143h-193
l230 393l2 23l24 22l9 47l24 2l13 39l-7 10l19 11l4 41l18 -4l121 235l27 16l-2 19l14 16l2 13l19 10l2 16l10 8l4 21l20 18l43 80l-2 17l174 258l-2 24l21 4l4 31l18 6l25 66h201zM1206 16h-424l-8 142l10 20l140 113l114 121l-8 125v137l-14 14h-94l-11 -4l-2 -88l15 -147
l-4 -39l2 -91l-72 -2l-78 -20l-20 463l16 10l41 74l156 -4l14 6l90 -6l21 6l59 -41l6 -14l19 -19v-135l-5 -21l17 -6l-10 -20v-164l6 -121l-129 -84l-13 -2l-2 -12l-65 -45h213v-80z" />
    <glyph glyph-name="threequarters" unicode="&#xbe;" horiz-adv-x="1480" 
d="M543 870l6 -41v-38l-62 -84l-47 4h-235l-27 16l-57 51v238l139 -17l-4 -61l4 -14l2 -74l10 -10l19 -6l115 6v121l-11 94l-22 8h-92l-62 -16v167l45 -12l125 10l6 9l-14 174l-8 6h-125l-6 -12l6 -23l6 -119l-55 4l-95 -26v188l-12 41l62 84h297l24 -29l41 -30l14 -2
l-6 -43l15 -242l-60 -39l19 -29l41 -22v-109l10 -20zM1270 1479l-13 -52l-38 -69l-76 -117l-29 -61l-686 -1143h-192l229 393l2 23l25 22l8 47l24 2l13 39l-7 10l19 11l4 41l18 -4l121 235l27 16l-2 19l14 16l2 13l19 10l2 16l10 8l4 21l20 18l43 80l-2 17l175 258l-3 24
l21 4l4 31l18 6l25 66h201zM1241 266v-125h-78l-4 -90l10 -24l-57 -7h-84v29l6 86h-92l-145 -22v211l211 505h145l-8 -34v-297l22 -224h52zM930 266h92v172l-10 8l4 46z" />
    <glyph glyph-name="questiondown" unicode="&#xbf;" horiz-adv-x="819" 
d="M795 215l-93 -145h-497l-90 65l-31 55v181l-25 30v453l197 86l14 31l176 135v59l-8 76l258 16l9 -196l-9 -17l-415 -362l16 -186v-166l37 -17h180l33 15l8 139h-4l-21 141l62 4l125 21l47 16l31 -360v-74zM696 1438v-47l-30 -48l-43 -40l-52 -27h-49l-49 33l-35 49
l-20 59v64l28 47l43 26l50 13h43l49 -29l41 -47z" />
    <glyph glyph-name="Agrave" unicode="&#xc0;" horiz-adv-x="925" 
d="M852 127l8 -111l-8 -8h-45l-109 17l-26 -5l-43 46l4 77l-17 11v16l11 10l-37 60l10 30l-65 -16l-52 4l-151 -6l-21 27l-22 -60l-33 -133l-8 -72l-203 19l78 645l90 477l20 64v86l15 16v59l20 39l13 94l284 -12l8 -78l17 -53l20 -41l11 -8v-84l24 -41l-4 -45l14 2l43 -211
l19 -24l26 -158l27 -98l-6 -17l41 -153l12 -74l4 -72l21 -39v-10l-11 -16l9 -23zM555 514l-96 616h-25l-53 -485h18v-12l-32 -72l-19 -65l43 8zM489 1798l140 -205h-142l-41 11l-63 63l-86 111z" />
    <glyph glyph-name="Aacute" unicode="&#xc1;" horiz-adv-x="925" 
d="M852 127l8 -111l-8 -8h-45l-109 17l-26 -5l-43 46l4 77l-17 11v16l11 10l-37 60l10 30l-65 -16l-52 4l-151 -6l-21 27l-22 -60l-33 -133l-8 -72l-203 19l78 645l90 477l20 64v86l15 16v59l20 39l13 94l284 -12l8 -78l17 -53l20 -41l11 -8v-84l24 -41l-4 -45l14 2l43 -211
l19 -24l26 -158l27 -98l-6 -17l41 -153l12 -74l4 -72l21 -39v-10l-11 -16l9 -23zM555 514l-96 616h-25l-53 -485h18v-12l-32 -72l-19 -65l43 8zM434 1798l195 -20l-11 -23l-139 -151l-41 -11h-141z" />
    <glyph glyph-name="Acircumflex" unicode="&#xc2;" horiz-adv-x="925" 
d="M852 127l8 -111l-8 -8h-45l-109 17l-26 -5l-43 46l4 77l-17 11v16l11 10l-37 60l10 30l-65 -16l-52 4l-151 -6l-21 27l-22 -60l-33 -133l-8 -72l-203 19l78 645l90 477l20 64v86l15 16v59l20 39l13 94l284 -12l8 -78l17 -53l20 -41l11 -8v-84l24 -41l-4 -45l14 2l43 -211
l19 -24l26 -158l27 -98l-6 -17l41 -153l12 -74l4 -72l21 -39v-10l-11 -16l9 -23zM555 514l-96 616h-25l-53 -485h18v-12l-32 -72l-19 -65l43 8zM651 1790l92 -209h-215l-69 145l-68 -145h-211l66 209h405z" />
    <glyph glyph-name="Atilde" unicode="&#xc3;" horiz-adv-x="925" 
d="M852 127l8 -111l-8 -8h-45l-109 17l-26 -5l-43 46l4 77l-17 11v16l11 10l-37 60l10 30l-65 -16l-52 4l-151 -6l-21 27l-22 -60l-33 -133l-8 -72l-203 19l78 645l90 477l20 64v86l15 16v59l20 39l13 94l284 -12l8 -78l17 -53l20 -41l11 -8v-84l24 -41l-4 -45l14 2l43 -211
l19 -24l26 -158l27 -98l-6 -17l41 -153l12 -74l4 -72l21 -39v-10l-11 -16l9 -23zM555 514l-96 616h-25l-53 -485h18v-12l-32 -72l-19 -65l43 8zM612 1812h172l-20 -221h-313l-123 140l-29 -132l-160 -12l27 219h305l129 -127z" />
    <glyph glyph-name="Adieresis" unicode="&#xc4;" horiz-adv-x="925" 
d="M852 127l8 -111l-8 -8h-45l-109 17l-26 -5l-43 46l4 77l-17 11v16l11 10l-37 60l10 30l-65 -16l-52 4l-151 -6l-21 27l-22 -60l-33 -133l-8 -72l-203 19l78 645l90 477l20 64v86l15 16v59l20 39l13 94l284 -12l8 -78l17 -53l20 -41l11 -8v-84l24 -41l-4 -45l14 2l43 -211
l19 -24l26 -158l27 -98l-6 -17l41 -153l12 -74l4 -72l21 -39v-10l-11 -16l9 -23zM555 514l-96 616h-25l-53 -485h18v-12l-32 -72l-19 -65l43 8zM362 1745l17 -164h-203v195h178zM750 1784v-211l-37 10l-144 -10v211h181z" />
    <glyph glyph-name="Aring" unicode="&#xc5;" horiz-adv-x="925" 
d="M623 1651v-115l-56 -51l6 -62l17 -53l20 -41l11 -8v-84l24 -41l-4 -45l14 2l43 -211l19 -24l26 -158l27 -98l-6 -17l41 -153l12 -74l4 -72l21 -39v-10l-11 -16l9 -23l20 -242l-8 -8h-45l-109 17l-26 -5l-43 46l4 77l-17 11v16l11 10l-37 60l10 30l-65 -16l-52 4l-151 -6
l-21 27l-22 -60l-33 -133l-8 -72l-203 19l78 645l90 477l20 64v86l15 16v59l20 39l11 82l-39 35v115l30 65l54 47l69 27h78l70 -27l51 -47zM555 514l-96 616h-25l-53 -485h18v-12l-32 -72l-19 -65l43 8zM553 1565v96l-74 65h-98l-72 -63v-98l62 -56l114 -6z" />
    <glyph glyph-name="AE" unicode="&#xc6;" horiz-adv-x="1423" 
d="M1333 215v-213l-80 4l-30 -6l-19 12l-80 -12h-512v53l-12 13v79l-12 9v16l8 8v4l-35 58l10 30l-65 -16l-51 4l-152 -6l-20 27l-23 -60l-33 -133l-8 -72l-203 19l78 645l90 477l21 64v86l14 16v59l21 39l12 94h1024l43 -20v-217l-33 14h-393l-84 -4l-12 -12v-144l10 -77
v-142l16 -14h205l133 14v-241h-364l24 -133v-168l-6 -66l8 -88h510zM610 926l-35 381l-63 -15l-82 11l-76 -508v-150h17v-12l-33 -72l-19 -65l43 8h232z" />
    <glyph glyph-name="Ccedilla" unicode="&#xc7;" horiz-adv-x="907" 
d="M827 664v-613l-14 -14l-182 16h-445l-86 -4l-12 88l-16 201v172l-9 41l11 106l-13 37v197l21 70v200l-25 29l15 12v344h673l37 6l37 -34l-12 -48v-559l-53 9l-37 18l-19 -2l-10 16l-37 -10h-22l-43 12v260l8 35v92h-320v-108l29 -299l-12 -29v-456l-10 -11l16 -16
l-12 -35v-35l12 -6l-6 -82l67 -10h263v356zM590 -195v-30l-2 -25l-51 -219l-168 16l-54 269v20l31 47l43 41l49 27h47l47 -31l37 -51z" />
    <glyph glyph-name="Egrave" unicode="&#xc8;" horiz-adv-x="806" 
d="M788 215v-213l-79 4l-31 -6l-19 12l-79 -12h-512v92l-17 72v1337l-18 8h698l43 -16v-217l-33 14h-393l-84 -4l-12 -12v-144l10 -77v-142l17 -14h204l133 14l5 -88l-9 -8l11 -145h-371l24 -133v-168l-6 -66l9 -88h509zM430 1798l139 -205h-141l-41 11l-63 63l-86 111z" />
    <glyph glyph-name="Eacute" unicode="&#xc9;" horiz-adv-x="806" 
d="M788 215v-213l-79 4l-31 -6l-19 12l-79 -12h-512v92l-17 72v1337l-18 8h698l43 -16v-217l-33 14h-393l-84 -4l-12 -12v-144l10 -77v-142l17 -14h204l133 14l5 -88l-9 -8l11 -145h-371l24 -133v-168l-6 -66l9 -88h509zM375 1798l194 -20l-10 -23l-139 -151l-41 -11h-141z
" />
    <glyph glyph-name="Ecircumflex" unicode="&#xca;" horiz-adv-x="806" 
d="M788 215v-213l-79 4l-31 -6l-19 12l-79 -12h-512v92l-17 72v1337l-18 8h698l43 -16v-217l-33 14h-393l-84 -4l-12 -12v-144l10 -77v-142l17 -14h204l133 14l5 -88l-9 -8l11 -145h-371l24 -133v-168l-6 -66l9 -88h509zM592 1790l92 -209h-215l-70 145l-67 -145h-211
l65 209h406z" />
    <glyph glyph-name="Edieresis" unicode="&#xcb;" horiz-adv-x="806" 
d="M788 215v-213l-79 4l-31 -6l-19 12l-79 -12h-512v92l-17 72v1337l-18 8h698l43 -16v-217l-33 14h-393l-84 -4l-12 -12v-144l10 -77v-142l17 -14h204l133 14l5 -88l-9 -8l11 -145h-371l24 -133v-168l-6 -66l9 -88h509zM303 1745l16 -164h-202v195h178zM690 1784v-211
l-37 10l-143 -10v211h180z" />
    <glyph glyph-name="Igrave" unicode="&#xcc;" 
d="M377 395l14 -8l-16 -59v-250l-13 2v-76l9 -6h-260l-27 98l12 29v133l-12 356l8 17v186l-14 21l12 20l-6 86l6 135l6 8l-12 9l4 43l12 22l-16 21l12 39v227l15 76h170l65 6l29 -246v-668l6 -145zM254 1798l139 -205h-141l-41 11l-64 63l-86 111z" />
    <glyph glyph-name="Iacute" unicode="&#xcd;" 
d="M377 395l14 -8l-16 -59v-250l-13 2v-76l9 -6h-260l-27 98l12 29v133l-12 356l8 17v186l-14 21l12 20l-6 86l6 135l6 8l-12 9l4 43l12 22l-16 21l12 39v227l15 76h170l65 6l29 -246v-668l6 -145zM199 1798l194 -20l-10 -23l-139 -151l-41 -11h-142z" />
    <glyph glyph-name="Icircumflex" unicode="&#xce;" 
d="M377 395l14 -8l-16 -59v-250l-13 2v-76l9 -6h-260l-27 98l12 29v133l-12 356l8 17v186l-14 21l12 20l-6 86l6 135l6 8l-12 9l4 43l12 22l-16 21l12 39v227l15 76h170l65 6l29 -246v-668l6 -145zM420 1790l92 -209h-215l-70 145l-67 -145h-211l65 209h406z" />
    <glyph glyph-name="Idieresis" unicode="&#xcf;" 
d="M377 395l14 -8l-16 -59v-250l-13 2v-76l9 -6h-260l-27 98l12 29v133l-12 356l8 17v186l-14 21l12 20l-6 86l6 135l6 8l-12 9l4 43l12 22l-16 21l12 39v227l15 76h170l65 6l29 -246v-668l6 -145zM131 1745l16 -164h-202v195h178zM518 1784v-211l-37 10l-143 -10v211h180z
" />
    <glyph glyph-name="Eth" unicode="&#xd0;" horiz-adv-x="1001" 
d="M903 1321v-1137l-16 -14l-64 -84l-45 -72l-164 9h-536l12 8v119l-12 104l14 -2l25 8l28 -16l70 4v403h-123l17 191h106v418l-10 45l-125 -11l-14 6l8 23v119l-8 108l694 -37l37 -59zM522 870l17 -219h-99v-420h131l117 9l-29 358l-12 84l19 6l-23 205v145l21 269h-238
l14 -129v-322z" />
    <glyph glyph-name="Ntilde" unicode="&#xd1;" horiz-adv-x="993" 
d="M901 1018l21 -393l8 -9l-10 -30l6 -6l-13 -207l15 -23l-15 -6v-22l17 -9l-17 -20l-10 -41l-8 -234h-233l-13 25l6 18l-75 158l-105 244l-113 293l-43 137v-143l13 -29l-10 -59l16 -123l-2 -17l6 -14l-16 -465l-35 -10h-80l-10 10l-17 -6h-45l-30 6l-35 969v286l24 228
l52 -10h104l35 12l153 -340l13 -8l-4 -9l22 -49l2 -24l70 -146l112 -325l11 -11l-37 857l18 49h215l25 -256v-60l16 -153l8 -9v-20zM647 1812h172l-20 -221h-314l-123 140l-28 -132l-160 -12l27 219h305l129 -127z" />
    <glyph glyph-name="Ograve" unicode="&#xd2;" horiz-adv-x="921" 
d="M858 403l-12 -8l2 -35l-6 -88l-8 -16l10 -8l-17 -8l7 -23l18 -33l-18 -16l12 -4l-10 -58l8 -116l-13 2l-16 16l-10 -18h-12l-11 16l-10 -10l-16 6h-92l-25 10v-10h-96l-99 10l-6 -12h-166l-133 12l-6 6l-10 -10h-17l-30 402v628l12 66v43l-12 12l14 37v14l-14 9l12 14
l-16 295h712l35 -19v-301l21 -28l-2 -25l-17 -47l13 -10l-9 -97l17 -10l-8 -110l12 -23v-31l-19 -14l25 -47l-12 -10l6 -25l-6 -18v-49l6 -21l-8 -12l6 -25l-4 -18l12 -8l-8 -23v-145zM635 375v35l-6 116l-15 29v436l-16 6l14 23v211l6 61h-329l8 -123l-8 -16l10 -4v-10
l-12 -19l12 -41v-268l12 -14l-4 -9l-14 -8l31 -18l-35 -29l22 -135l6 -188l-18 -11l18 -22v-45l-10 -94l6 -13l181 13h133v104l-4 25zM487 1798l140 -205h-142l-41 11l-63 63l-86 111z" />
    <glyph glyph-name="Oacute" unicode="&#xd3;" horiz-adv-x="921" 
d="M858 403l-12 -8l2 -35l-6 -88l-8 -16l10 -8l-17 -8l7 -23l18 -33l-18 -16l12 -4l-10 -58l8 -116l-13 2l-16 16l-10 -18h-12l-11 16l-10 -10l-16 6h-92l-25 10v-10h-96l-99 10l-6 -12h-166l-133 12l-6 6l-10 -10h-17l-30 402v628l12 66v43l-12 12l14 37v14l-14 9l12 14
l-16 295h712l35 -19v-301l21 -28l-2 -25l-17 -47l13 -10l-9 -97l17 -10l-8 -110l12 -23v-31l-19 -14l25 -47l-12 -10l6 -25l-6 -18v-49l6 -21l-8 -12l6 -25l-4 -18l12 -8l-8 -23v-145zM635 375v35l-6 116l-15 29v436l-16 6l14 23v211l6 61h-329l8 -123l-8 -16l10 -4v-10
l-12 -19l12 -41v-268l12 -14l-4 -9l-14 -8l31 -18l-35 -29l22 -135l6 -188l-18 -11l18 -22v-45l-10 -94l6 -13l181 13h133v104l-4 25zM432 1798l195 -20l-11 -23l-139 -151l-41 -11h-141z" />
    <glyph glyph-name="Ocircumflex" unicode="&#xd4;" horiz-adv-x="921" 
d="M858 403l-12 -8l2 -35l-6 -88l-8 -16l10 -8l-17 -8l7 -23l18 -33l-18 -16l12 -4l-10 -58l8 -116l-13 2l-16 16l-10 -18h-12l-11 16l-10 -10l-16 6h-92l-25 10v-10h-96l-99 10l-6 -12h-166l-133 12l-6 6l-10 -10h-17l-30 402v628l12 66v43l-12 12l14 37v14l-14 9l12 14
l-16 295h712l35 -19v-301l21 -28l-2 -25l-17 -47l13 -10l-9 -97l17 -10l-8 -110l12 -23v-31l-19 -14l25 -47l-12 -10l6 -25l-6 -18v-49l6 -21l-8 -12l6 -25l-4 -18l12 -8l-8 -23v-145zM635 375v35l-6 116l-15 29v436l-16 6l14 23v211l6 61h-329l8 -123l-8 -16l10 -4v-10
l-12 -19l12 -41v-268l12 -14l-4 -9l-14 -8l31 -18l-35 -29l22 -135l6 -188l-18 -11l18 -22v-45l-10 -94l6 -13l181 13h133v104l-4 25zM649 1790l92 -209h-215l-69 145l-68 -145h-211l66 209h405z" />
    <glyph glyph-name="Otilde" unicode="&#xd5;" horiz-adv-x="921" 
d="M858 403l-12 -8l2 -35l-6 -88l-8 -16l10 -8l-17 -8l7 -23l18 -33l-18 -16l12 -4l-10 -58l8 -116l-13 2l-16 16l-10 -18h-12l-11 16l-10 -10l-16 6h-92l-25 10v-10h-96l-99 10l-6 -12h-166l-133 12l-6 6l-10 -10h-17l-30 402v628l12 66v43l-12 12l14 37v14l-14 9l12 14
l-16 295h712l35 -19v-301l21 -28l-2 -25l-17 -47l13 -10l-9 -97l17 -10l-8 -110l12 -23v-31l-19 -14l25 -47l-12 -10l6 -25l-6 -18v-49l6 -21l-8 -12l6 -25l-4 -18l12 -8l-8 -23v-145zM635 375v35l-6 116l-15 29v436l-16 6l14 23v211l6 61h-329l8 -123l-8 -16l10 -4v-10
l-12 -19l12 -41v-268l12 -14l-4 -9l-14 -8l31 -18l-35 -29l22 -135l6 -188l-18 -11l18 -22v-45l-10 -94l6 -13l181 13h133v104l-4 25zM610 1812h172l-20 -221h-313l-123 140l-29 -132l-160 -12l27 219h305l129 -127z" />
    <glyph glyph-name="Odieresis" unicode="&#xd6;" horiz-adv-x="921" 
d="M858 403l-12 -8l2 -35l-6 -88l-8 -16l10 -8l-17 -8l7 -23l18 -33l-18 -16l12 -4l-10 -58l8 -116l-13 2l-16 16l-10 -18h-12l-11 16l-10 -10l-16 6h-92l-25 10v-10h-96l-99 10l-6 -12h-166l-133 12l-6 6l-10 -10h-17l-30 402v628l12 66v43l-12 12l14 37v14l-14 9l12 14
l-16 295h712l35 -19v-301l21 -28l-2 -25l-17 -47l13 -10l-9 -97l17 -10l-8 -110l12 -23v-31l-19 -14l25 -47l-12 -10l6 -25l-6 -18v-49l6 -21l-8 -12l6 -25l-4 -18l12 -8l-8 -23v-145zM635 375v35l-6 116l-15 29v436l-16 6l14 23v211l6 61h-329l8 -123l-8 -16l10 -4v-10
l-12 -19l12 -41v-268l12 -14l-4 -9l-14 -8l31 -18l-35 -29l22 -135l6 -188l-18 -11l18 -22v-45l-10 -94l6 -13l181 13h133v104l-4 25zM360 1745l17 -164h-203v195h178zM748 1784v-211l-37 10l-144 -10v211h181z" />
    <glyph glyph-name="multiply" unicode="&#xd7;" horiz-adv-x="886" 
d="M799 578l-168 -168l-27 57l-78 76l-61 51l-197 -195l-172 172l103 80l94 92l-111 111l-22 14l-43 21l-6 24l-11 11l166 168l187 -187l180 180l170 -167l-182 -183l86 -84z" />
    <glyph glyph-name="Oslash" unicode="&#xd8;" horiz-adv-x="921" 
d="M877 580l-7 -590h-358l-41 22l-6 -12h-238l-94 8l-16 205l-17 334v981h680l19 -10l45 -9v-309l20 -20l-16 -72l10 -10v-496zM340 612l10 -2l240 680h-121l-156 8v-565l13 -86zM653 348l6 123l-18 64v380l-244 -686h256v119z" />
    <glyph glyph-name="Ugrave" unicode="&#xd9;" horiz-adv-x="974" 
d="M625 1497h256l-15 -94v-1397h-624l-166 -12v221l-8 25l24 172v1085h203v-674l24 -303l-8 -10l-16 -291h311l19 25v1253zM514 1798l139 -205h-141l-41 11l-63 63l-86 111z" />
    <glyph glyph-name="Uacute" unicode="&#xda;" horiz-adv-x="974" 
d="M625 1497h256l-15 -94v-1397h-624l-166 -12v221l-8 25l24 172v1085h203v-674l24 -303l-8 -10l-16 -291h311l19 25v1253zM459 1798l194 -20l-10 -23l-139 -151l-41 -11h-141z" />
    <glyph glyph-name="Ucircumflex" unicode="&#xdb;" horiz-adv-x="974" 
d="M625 1497h256l-15 -94v-1397h-624l-166 -12v221l-8 25l24 172v1085h203v-674l24 -303l-8 -10l-16 -291h311l19 25v1253zM676 1790l92 -209h-215l-70 145l-67 -145h-211l65 209h406z" />
    <glyph glyph-name="Udieresis" unicode="&#xdc;" horiz-adv-x="974" 
d="M625 1497h256l-15 -94v-1397h-624l-166 -12v221l-8 25l24 172v1085h203v-674l24 -303l-8 -10l-16 -291h311l19 25v1253zM387 1745l16 -164h-202v195h178zM774 1784v-211l-37 10l-143 -10v211h180z" />
    <glyph glyph-name="Yacute" unicode="&#xdd;" horiz-adv-x="849" 
d="M551 1530h240l-164 -379l-76 -242l-8 -75v-392l8 -36l-25 -19l6 -18v-328h-233v795l-12 82l-43 145l-193 485h238l135 -461zM395 1798l195 -20l-10 -23l-140 -151l-41 -11h-141z" />
    <glyph glyph-name="Thorn" unicode="&#xde;" horiz-adv-x="962" 
d="M862 1020l21 -16l-13 -23v-508h-591v-57l24 -404l-20 -12l-43 12l-11 -2l-10 -10l-37 12h-53l-37 -10v1004l-12 22v481l119 -6l32 4v-465h492l139 -8v-14zM287 698h387v136h-406l19 -76v-60z" />
    <glyph glyph-name="germandbls" unicode="&#xdf;" horiz-adv-x="1921" 
d="M893 301l6 -4l-29 -135v-49l17 -27l-8 -70l-154 9l-20 -5h-592l-15 43l-14 130v438l8 12l86 4h133v-96l15 -21l-13 -10v-186l-6 -17l10 -88h359l-23 365l-575 274v641h323l11 9l34 -5l9 -8l65 13l10 -13l64 17l33 -2l6 -11l155 13l11 -13l47 -14l8 -90l-12 -6l24 -35v-57
l-8 -15l14 -26v-353l-206 19l-19 65v275l-37 4l-96 -6h-225v-80l12 -21l-8 -22v-49l8 -8l-6 -19v-43l27 -20l473 -246v-17l92 -40v-15l-10 -6l12 -293l-12 -59l14 -8zM1853 301l7 -4l-29 -135v-49l16 -27l-8 -70l-153 9l-21 -5h-592l-14 43l-15 130v438l9 12l86 4h133v-96
l14 -21l-12 -10v-186l-6 -17l10 -88h358l-22 365l-576 274v641h324l10 9l35 -5l8 -8l66 13l10 -13l63 17l33 -2l6 -11l156 13l10 -13l47 -14l9 -90l-13 -6l25 -35v-57l-8 -15l14 -26v-353l-207 19l-18 65v275l-37 4l-96 -6h-226v-80l13 -21l-9 -22v-49l9 -8l-7 -19v-43
l27 -20l473 -246v-17l92 -40v-15l-10 -6l12 -293l-12 -59l14 -8z" />
    <glyph glyph-name="agrave" unicode="&#xe0;" horiz-adv-x="903" 
d="M868 -12h-172l-67 282h-338l-47 -272h-191l150 1102l10 4l25 139l38 133l11 119h196l84 6l15 -45l-2 -45l12 -10l43 -152l53 -235l113 -604zM346 512h240l-142 643v-145zM477 1829l139 -205h-141l-41 10l-63 64l-86 110z" />
    <glyph glyph-name="aacute" unicode="&#xe1;" horiz-adv-x="903" 
d="M868 -12h-172l-67 282h-338l-47 -272h-191l150 1102l10 4l25 139l38 133l11 119h196l84 6l15 -45l-2 -45l12 -10l43 -152l53 -235l113 -604zM346 512h240l-142 643v-145zM422 1829l194 -21l-10 -22l-139 -152l-41 -10h-141z" />
    <glyph glyph-name="acircumflex" unicode="&#xe2;" horiz-adv-x="903" 
d="M868 -12h-172l-67 282h-338l-47 -272h-191l150 1102l10 4l25 139l38 133l11 119h196l84 6l15 -45l-2 -45l12 -10l43 -152l53 -235l113 -604zM346 512h240l-142 643v-145zM641 1821l92 -209h-215l-69 145l-68 -145h-211l66 209h405z" />
    <glyph glyph-name="atilde" unicode="&#xe3;" horiz-adv-x="903" 
d="M868 -12h-172l-67 282h-338l-47 -272h-191l150 1102l10 4l25 139l38 133l11 119h196l84 6l15 -45l-2 -45l12 -10l43 -152l53 -235l113 -604zM346 512h240l-142 643v-145zM602 1843h172l-20 -221h-314l-123 139l-28 -131l-160 -12l27 219h305l129 -127z" />
    <glyph glyph-name="adieresis" unicode="&#xe4;" horiz-adv-x="903" 
d="M868 -12h-172l-67 282h-338l-47 -272h-191l150 1102l10 4l25 139l38 133l11 119h196l84 6l15 -45l-2 -45l12 -10l43 -152l53 -235l113 -604zM346 512h240l-142 643v-145zM350 1776l17 -164h-203v194h178zM737 1815v-211l-37 10l-143 -10v211h180z" />
    <glyph glyph-name="aring" unicode="&#xe5;" horiz-adv-x="903" 
d="M643 1681v-114l-76 -68l15 -43l-2 -45l12 -10l43 -152l53 -235l113 -604l67 -422h-172l-67 282h-338l-47 -272h-191l150 1102l10 4l25 139l38 133l11 119h55l-82 72v114l31 66l53 47l70 27h78l69 -27l51 -47zM346 512h240l-142 643v-145zM573 1595v97l-73 65h-99l-71 -63
v-99l71 -63h101z" />
    <glyph glyph-name="ae" unicode="&#xe6;" horiz-adv-x="1423" 
d="M1333 215v-213l-80 4l-30 -6l-19 12l-80 -12h-512v53l-12 13v79l-12 9v16l8 8v4l-35 58l10 30l-65 -16l-51 4l-152 -6l-20 27l-23 -60l-33 -133l-8 -72l-203 19l78 645l90 477l21 64v86l14 16v59l21 39l12 94h1024l43 -20v-217l-33 14h-393l-84 -4l-12 -12v-144l10 -77
v-142l16 -14h205l133 14v-241h-364l24 -133v-168l-6 -66l8 -88h510zM610 926l-35 381l-63 -15l-82 11l-76 -508v-150h17v-12l-33 -72l-19 -65l43 8h232z" />
    <glyph glyph-name="ccedilla" unicode="&#xe7;" horiz-adv-x="1005" 
d="M928 641l6 -248l12 -39l-12 -61v-37h-12l-7 -6l17 -74l-10 -16v-56l6 -32l-13 -62l-118 17l-29 -13h-674l-28 248l16 12v50l-8 63v295l-17 106l6 5v94l-12 82l12 18l-8 27l8 2v471h857v-510l14 -35l-14 -8v-72l-50 -4l-6 8l-16 -24l-41 16l-25 -22l-4 14l-123 -31v357
l-4 43l6 34l-28 -6l-336 -16l18 -133v-137l13 -78v-62l10 -8v-569l160 18h182l2 6l-10 15l12 63l-18 33v127l-13 29l13 -3l6 19l-17 4v29l15 39h133l24 22h8l17 -12l26 8h54zM639 -195v-30l-2 -25l-51 -219l-168 16l-53 269v20l30 47l43 41l49 27h48l47 -31l36 -51z" />
    <glyph glyph-name="egrave" unicode="&#xe8;" horiz-adv-x="825" 
d="M821 360l-24 -202l6 -90h-713l-33 673v498l-26 43l16 21v227h713l8 -25v-96l-6 -20l24 -107h-143l-352 -18l-17 -11l-2 -36l-22 -13l24 -262l127 8l74 -8l137 -29v-84l-14 -57l14 -29v-43l-338 -18l-8 -20l-10 -72v-58l10 -20v-178l25 -12h334l49 14zM438 1829l140 -205
h-142l-41 10l-63 64l-86 110z" />
    <glyph glyph-name="eacute" unicode="&#xe9;" horiz-adv-x="825" 
d="M821 360l-24 -202l6 -90h-713l-33 673v498l-26 43l16 21v227h713l8 -25v-96l-6 -20l24 -107h-143l-352 -18l-17 -11l-2 -36l-22 -13l24 -262l127 8l74 -8l137 -29v-84l-14 -57l14 -29v-43l-338 -18l-8 -20l-10 -72v-58l10 -20v-178l25 -12h334l49 14zM383 1829l195 -21
l-11 -22l-139 -152l-41 -10h-141z" />
    <glyph glyph-name="ecircumflex" unicode="&#xea;" horiz-adv-x="825" 
d="M821 360l-24 -202l6 -90h-713l-33 673v498l-26 43l16 21v227h713l8 -25v-96l-6 -20l24 -107h-143l-352 -18l-17 -11l-2 -36l-22 -13l24 -262l127 8l74 -8l137 -29v-84l-14 -57l14 -29v-43l-338 -18l-8 -20l-10 -72v-58l10 -20v-178l25 -12h334l49 14zM602 1821l92 -209
h-215l-69 145l-68 -145h-211l66 209h405z" />
    <glyph glyph-name="edieresis" unicode="&#xeb;" horiz-adv-x="825" 
d="M821 360l-24 -202l6 -90h-713l-33 673v498l-26 43l16 21v227h713l8 -25v-96l-6 -20l24 -107h-143l-352 -18l-17 -11l-2 -36l-22 -13l24 -262l127 8l74 -8l137 -29v-84l-14 -57l14 -29v-43l-338 -18l-8 -20l-10 -72v-58l10 -20v-178l25 -12h334l49 14zM311 1776l17 -164
h-203v194h178zM698 1815v-211l-36 10l-144 -10v211h180z" />
    <glyph glyph-name="igrave" unicode="&#xec;" 
d="M377 395l14 -8l-16 -59v-250l-13 2v-76l9 -6h-260l-27 98l12 29v133l-12 356l8 17v186l-14 21l12 20l-6 86l6 135l6 8l-12 9l4 43l12 22l-16 21l12 39v227l15 76h170l65 6l29 -246v-668l6 -145zM254 1798l139 -205h-141l-41 11l-64 63l-86 111z" />
    <glyph glyph-name="iacute" unicode="&#xed;" 
d="M377 395l14 -8l-16 -59v-250l-13 2v-76l9 -6h-260l-27 98l12 29v133l-12 356l8 17v186l-14 21l12 20l-6 86l6 135l6 8l-12 9l4 43l12 22l-16 21l12 39v227l15 76h170l65 6l29 -246v-668l6 -145zM199 1798l194 -20l-10 -23l-139 -151l-41 -11h-142z" />
    <glyph glyph-name="icircumflex" unicode="&#xee;" 
d="M377 395l14 -8l-16 -59v-250l-13 2v-76l9 -6h-260l-27 98l12 29v133l-12 356l8 17v186l-14 21l12 20l-6 86l6 135l6 8l-12 9l4 43l12 22l-16 21l12 39v227l15 76h170l65 6l29 -246v-668l6 -145zM420 1790l92 -209h-215l-70 145l-67 -145h-211l65 209h406z" />
    <glyph glyph-name="idieresis" unicode="&#xef;" 
d="M377 395l14 -8l-16 -59v-250l-13 2v-76l9 -6h-260l-27 98l12 29v133l-12 356l8 17v186l-14 21l12 20l-6 86l6 135l6 8l-12 9l4 43l12 22l-16 21l12 39v227l15 76h170l65 6l29 -246v-668l6 -145zM131 1745l16 -164h-202v195h178zM518 1784v-211l-37 10l-143 -10v211h180z
" />
    <glyph glyph-name="eth" unicode="&#xf0;" horiz-adv-x="1001" 
d="M903 1321v-1137l-16 -14l-64 -84l-45 -72l-164 9h-536l12 8v119l-12 104l14 -2l25 8l28 -16l70 4v403h-123l17 191h106v418l-10 45l-125 -11l-14 6l8 23v119l-8 108l694 -37l37 -59zM522 870l17 -219h-99v-420h131l117 9l-29 358l-12 84l19 6l-23 205v145l21 269h-238
l14 -129v-322z" />
    <glyph glyph-name="ntilde" unicode="&#xf1;" horiz-adv-x="952" 
d="M872 588l2 -58l-6 -8v-315l-16 -6v-115l8 -59h-180l-371 938v-932h-200l-23 129l12 12l-35 367l11 41v872l-11 62h158l10 10l25 -10l47 10l41 -162l29 -29l63 -166l23 -12l-10 -12l34 -70l-6 -12l168 -422l17 -23v107l-35 356l10 13v194l-16 10l16 15v203h215v-498
l16 -17l-12 -30l16 -25v-358zM627 1843h172l-21 -221h-313l-123 139l-29 -131l-159 -12l26 219h305l129 -127z" />
    <glyph glyph-name="ograve" unicode="&#xf2;" horiz-adv-x="942" 
d="M848 561l29 -530h-787v952l-24 135v168l10 25v221l225 -10h547v-961zM313 240h326v663l-21 379l-14 25h-313l22 -346l-12 -19l12 -29l-16 -18l16 -6v-649zM498 1829l139 -205h-141l-41 10l-64 64l-86 110z" />
    <glyph glyph-name="oacute" unicode="&#xf3;" horiz-adv-x="942" 
d="M848 561l29 -530h-787v952l-24 135v168l10 25v221l225 -10h547v-961zM313 240h326v663l-21 379l-14 25h-313l22 -346l-12 -19l12 -29l-16 -18l16 -6v-649zM442 1829l195 -21l-10 -22l-140 -152l-41 -10h-141z" />
    <glyph glyph-name="ocircumflex" unicode="&#xf4;" horiz-adv-x="942" 
d="M848 561l29 -530h-787v952l-24 135v168l10 25v221l225 -10h547v-961zM313 240h326v663l-21 379l-14 25h-313l22 -346l-12 -19l12 -29l-16 -18l16 -6v-649zM659 1821l93 -209h-215l-70 145l-68 -145h-211l66 209h405z" />
    <glyph glyph-name="otilde" unicode="&#xf5;" horiz-adv-x="942" 
d="M848 561l29 -530h-787v952l-24 135v168l10 25v221l225 -10h547v-961zM313 240h326v663l-21 379l-14 25h-313l22 -346l-12 -19l12 -29l-16 -18l16 -6v-649zM621 1843h172l-21 -221h-313l-123 139l-29 -131l-160 -12l27 219h305l129 -127z" />
    <glyph glyph-name="odieresis" unicode="&#xf6;" horiz-adv-x="942" 
d="M848 561l29 -530h-787v952l-24 135v168l10 25v221l225 -10h547v-961zM313 240h326v663l-21 379l-14 25h-313l22 -346l-12 -19l12 -29l-16 -18l16 -6v-649zM371 1776l16 -164h-203v194h178zM758 1815v-211l-37 10l-143 -10v211h180z" />
    <glyph glyph-name="divide" unicode="&#xf7;" horiz-adv-x="886" 
d="M815 877v-236l-59 21h-117l-307 -25h-148l-26 -4l-45 -17l-23 13h-14v235h622zM594 1112v-80l-86 -67h-80l-49 28l-39 47l-25 54v45l31 49l45 43l49 26h49l50 -32l34 -51zM596 395v-80l-86 -67h-80l-49 28l-39 48l-25 53v45l31 49l45 43l49 27h50l49 -33l34 -51z" />
    <glyph glyph-name="oslash" unicode="&#xf8;" horiz-adv-x="921" 
d="M877 580l-7 -590h-358l-41 22l-6 -12h-238l-94 8l-16 205l-17 334v981h680l19 -10l45 -9v-309l20 -20l-16 -72l10 -10v-496zM340 612l10 -2l240 680h-121l-156 8v-565l13 -86zM653 348l6 123l-18 64v380l-244 -686h256v119z" />
    <glyph glyph-name="ugrave" unicode="&#xf9;" horiz-adv-x="905" 
d="M819 813l23 -47l-13 -10v-242l7 -119l-11 -139l11 -8l-17 -8l17 -250l-29 22h-371l-6 6h-307l-55 -10v1211l12 14l-19 295l242 -19v-712l-18 -17l28 -18l-10 -29v-508h315l-6 142v1149h133l64 -7v-639l27 -43zM479 1829l139 -205h-141l-41 10l-63 64l-86 110z" />
    <glyph glyph-name="uacute" unicode="&#xfa;" horiz-adv-x="905" 
d="M819 813l23 -47l-13 -10v-242l7 -119l-11 -139l11 -8l-17 -8l17 -250l-29 22h-371l-6 6h-307l-55 -10v1211l12 14l-19 295l242 -19v-712l-18 -17l28 -18l-10 -29v-508h315l-6 142v1149h133l64 -7v-639l27 -43zM424 1829l194 -21l-10 -22l-139 -152l-41 -10h-141z" />
    <glyph glyph-name="ucircumflex" unicode="&#xfb;" horiz-adv-x="905" 
d="M819 813l23 -47l-13 -10v-242l7 -119l-11 -139l11 -8l-17 -8l17 -250l-29 22h-371l-6 6h-307l-55 -10v1211l12 14l-19 295l242 -19v-712l-18 -17l28 -18l-10 -29v-508h315l-6 142v1149h133l64 -7v-639l27 -43zM641 1821l92 -209h-215l-69 145l-68 -145h-211l66 209h405z
" />
    <glyph glyph-name="udieresis" unicode="&#xfc;" horiz-adv-x="905" 
d="M819 813l23 -47l-13 -10v-242l7 -119l-11 -139l11 -8l-17 -8l17 -250l-29 22h-371l-6 6h-307l-55 -10v1211l12 14l-19 295l242 -19v-712l-18 -17l28 -18l-10 -29v-508h315l-6 142v1149h133l64 -7v-639l27 -43zM352 1776l17 -164h-203v194h178zM739 1815v-211l-37 10
l-143 -10v211h180z" />
    <glyph glyph-name="yacute" unicode="&#xfd;" horiz-adv-x="819" 
d="M555 1540h238l-97 -240l-114 -323l-47 -234v-712h-242v338l24 18l-24 19l10 36v402l-162 483l-88 219h240l127 -491l39 186zM381 1829l194 -21l-10 -22l-139 -152l-41 -10h-141z" />
    <glyph glyph-name="thorn" unicode="&#xfe;" horiz-adv-x="962" 
d="M862 1020l21 -16l-13 -23v-508h-591v-57l24 -404l-20 -12l-43 12l-11 -2l-10 -10l-37 12h-53l-37 -10v1004l-12 22v481l119 -6l32 4v-465h492l139 -8v-14zM287 698h387v136h-406l19 -76v-60z" />
    <glyph glyph-name="ydieresis" unicode="&#xff;" horiz-adv-x="819" 
d="M555 1540h238l-97 -240l-114 -323l-47 -234v-712h-242v338l24 18l-24 19l10 36v402l-162 483l-88 219h240l127 -491l39 186zM309 1776l17 -164h-203v194h178zM696 1815v-211l-37 10l-143 -10v211h180z" />
    <glyph glyph-name="Amacron" unicode="&#x100;" horiz-adv-x="925" 
d="M852 127l8 -111l-8 -8h-45l-109 17l-26 -5l-43 46l4 77l-17 11v16l11 10l-37 60l10 30l-65 -16l-52 4l-151 -6l-21 27l-22 -60l-33 -133l-8 -72l-203 19l78 645l90 477l20 64v86l15 16v59l20 39l13 94l284 -12l8 -78l17 -53l20 -41l11 -8v-84l24 -41l-4 -45l14 2l43 -211
l19 -24l26 -158l27 -98l-6 -17l41 -153l12 -74l4 -72l21 -39v-10l-11 -16l9 -23zM555 514l-96 616h-25l-53 -485h18v-12l-32 -72l-19 -65l43 8zM737 1821v-181l-45 17h-86l-166 -17h-266l-35 -20l-26 10v191h624z" />
    <glyph glyph-name="amacron" unicode="&#x101;" horiz-adv-x="925" 
d="M852 127l8 -111l-8 -8h-45l-109 17l-26 -5l-43 46l4 77l-17 11v16l11 10l-37 60l10 30l-65 -16l-52 4l-151 -6l-21 27l-22 -60l-33 -133l-8 -72l-203 19l78 645l90 477l20 64v86l15 16v59l20 39l13 94l284 -12l8 -78l17 -53l20 -41l11 -8v-84l24 -41l-4 -45l14 2l43 -211
l19 -24l26 -158l27 -98l-6 -17l41 -153l12 -74l4 -72l21 -39v-10l-11 -16l9 -23zM555 514l-96 616h-25l-53 -485h18v-12l-32 -72l-19 -65l43 8zM737 1821v-181l-45 17h-86l-166 -17h-266l-35 -20l-26 10v191h624z" />
    <glyph glyph-name="Abreve" unicode="&#x102;" horiz-adv-x="925" 
d="M852 127l8 -111l-8 -8h-45l-109 17l-26 -5l-43 46l4 77l-17 11v16l11 10l-37 60l10 30l-65 -16l-52 4l-151 -6l-21 27l-22 -60l-33 -133l-8 -72l-203 19l78 645l90 477l20 64v86l15 16v59l20 39l13 94l284 -12l8 -78l17 -53l20 -41l11 -8v-84l24 -41l-4 -45l14 2l43 -211
l19 -24l26 -158l27 -98l-6 -17l41 -153l12 -74l4 -72l21 -39v-10l-11 -16l9 -23zM555 514l-96 616h-25l-53 -485h18v-12l-32 -72l-19 -65l43 8zM135 1671l10 150l201 -11l-31 -96l117 -31l86 11l8 116l183 11l-13 -150l-53 -59h-405z" />
    <glyph glyph-name="abreve" unicode="&#x103;" horiz-adv-x="925" 
d="M852 127l8 -111l-8 -8h-45l-109 17l-26 -5l-43 46l4 77l-17 11v16l11 10l-37 60l10 30l-65 -16l-52 4l-151 -6l-21 27l-22 -60l-33 -133l-8 -72l-203 19l78 645l90 477l20 64v86l15 16v59l20 39l13 94l284 -12l8 -78l17 -53l20 -41l11 -8v-84l24 -41l-4 -45l14 2l43 -211
l19 -24l26 -158l27 -98l-6 -17l41 -153l12 -74l4 -72l21 -39v-10l-11 -16l9 -23zM555 514l-96 616h-25l-53 -485h18v-12l-32 -72l-19 -65l43 8zM135 1671l10 150l201 -11l-31 -96l117 -31l86 11l8 116l183 11l-13 -150l-53 -59h-405z" />
    <glyph glyph-name="Aogonek" unicode="&#x104;" horiz-adv-x="925" 
d="M852 127l8 -104v-7l-297 -276l271 10l-25 -219l-285 16l-90 39l-8 209l315 223l-43 7l-26 -5l-43 46l4 77l-17 11v16l11 10l-37 60l10 30l-65 -16l-52 4l-151 -6l-21 27l-22 -60l-33 -133l-8 -72l-203 19l78 645l90 477l20 64v86l15 16v59l20 39l13 94l284 -12l8 -78
l17 -53l20 -41l11 -8v-84l24 -41l-4 -45l14 2l43 -211l19 -24l26 -158l27 -98l-6 -17l41 -153l12 -74l4 -72l21 -39v-10l-11 -16l9 -23zM555 514l-96 616h-25l-53 -485h18v-12l-32 -72l-19 -65l43 8z" />
    <glyph glyph-name="aogonek" unicode="&#x105;" horiz-adv-x="925" 
d="M852 127l8 -104v-7l-297 -276l271 10l-25 -219l-285 16l-90 39l-8 209l315 223l-43 7l-26 -5l-43 46l4 77l-17 11v16l11 10l-37 60l10 30l-65 -16l-52 4l-151 -6l-21 27l-22 -60l-33 -133l-8 -72l-203 19l78 645l90 477l20 64v86l15 16v59l20 39l13 94l284 -12l8 -78
l17 -53l20 -41l11 -8v-84l24 -41l-4 -45l14 2l43 -211l19 -24l26 -158l27 -98l-6 -17l41 -153l12 -74l4 -72l21 -39v-10l-11 -16l9 -23zM555 514l-96 616h-25l-53 -485h18v-12l-32 -72l-19 -65l43 8z" />
    <glyph glyph-name="Cacute" unicode="&#x106;" horiz-adv-x="907" 
d="M827 664v-613l-14 -14l-182 16h-445l-86 -4l-12 88l-16 201v172l-9 41l11 106l-13 37v197l21 70v200l-25 29l15 12v344h673l37 6l37 -34l-12 -48v-559l-53 9l-37 18l-19 -2l-10 16l-37 -10h-22l-43 12v260l8 35v92h-320v-108l29 -299l-12 -29v-456l-10 -11l16 -16
l-12 -35v-35l12 -6l-6 -82l67 -10h263v356zM461 1829l194 -21l-10 -22l-139 -152l-41 -10h-141z" />
    <glyph glyph-name="cacute" unicode="&#x107;" horiz-adv-x="907" 
d="M827 664v-613l-14 -14l-182 16h-445l-86 -4l-12 88l-16 201v172l-9 41l11 106l-13 37v197l21 70v200l-25 29l15 12v344h673l37 6l37 -34l-12 -48v-559l-53 9l-37 18l-19 -2l-10 16l-37 -10h-22l-43 12v260l8 35v92h-320v-108l29 -299l-12 -29v-456l-10 -11l16 -16
l-12 -35v-35l12 -6l-6 -82l67 -10h263v356zM461 1829l194 -21l-10 -22l-139 -152l-41 -10h-141z" />
    <glyph glyph-name="Cdotaccent" unicode="&#x10a;" horiz-adv-x="907" 
d="M827 664v-613l-14 -14l-182 16h-445l-86 -4l-12 88l-16 201v172l-9 41l11 106l-13 37v197l21 70v200l-25 29l15 12v344h673l37 6l37 -34l-12 -48v-559l-53 9l-37 18l-19 -2l-10 16l-37 -10h-22l-43 12v260l8 35v92h-320v-108l29 -299l-12 -29v-456l-10 -11l16 -16
l-12 -35v-35l12 -6l-6 -82l67 -10h263v356zM539 1774l16 -162h-203v194h178z" />
    <glyph glyph-name="cdotaccent" unicode="&#x10b;" horiz-adv-x="907" 
d="M827 664v-613l-14 -14l-182 16h-445l-86 -4l-12 88l-16 201v172l-9 41l11 106l-13 37v197l21 70v200l-25 29l15 12v344h673l37 6l37 -34l-12 -48v-559l-53 9l-37 18l-19 -2l-10 16l-37 -10h-22l-43 12v260l8 35v92h-320v-108l29 -299l-12 -29v-456l-10 -11l16 -16
l-12 -35v-35l12 -6l-6 -82l67 -10h263v356zM539 1774l16 -162h-203v194h178z" />
    <glyph glyph-name="Ccaron" unicode="&#x10c;" horiz-adv-x="907" 
d="M827 664v-613l-14 -14l-182 16h-445l-86 -4l-12 88l-16 201v172l-9 41l11 106l-13 37v197l21 70v200l-25 29l15 12v344h673l37 6l37 -34l-12 -48v-559l-53 9l-37 18l-19 -2l-10 16l-37 -10h-22l-43 12v260l8 35v92h-320v-108l29 -299l-12 -29v-456l-10 -11l16 -16
l-12 -35v-35l12 -6l-6 -82l67 -10h263v356zM252 1612l-92 209h215l69 -146l68 146h211l-66 -209h-405z" />
    <glyph glyph-name="ccaron" unicode="&#x10d;" horiz-adv-x="907" 
d="M827 664v-613l-14 -14l-182 16h-445l-86 -4l-12 88l-16 201v172l-9 41l11 106l-13 37v197l21 70v200l-25 29l15 12v344h673l37 6l37 -34l-12 -48v-559l-53 9l-37 18l-19 -2l-10 16l-37 -10h-22l-43 12v260l8 35v92h-320v-108l29 -299l-12 -29v-456l-10 -11l16 -16
l-12 -35v-35l12 -6l-6 -82l67 -10h263v356zM252 1612l-92 209h215l69 -146l68 146h211l-66 -209h-405z" />
    <glyph glyph-name="Dcaron" unicode="&#x10e;" horiz-adv-x="1001" 
d="M903 1321v-1137l-16 -14l-64 -84l-45 -72l-164 9h-536l12 8v119l-12 104l14 -2l25 8l28 -16l70 4v1012l-10 45l-125 -11l-14 6l8 23v119l-8 108l694 -37l37 -59zM571 231l117 9l-29 358l-12 84l19 6l-23 205v145l21 269h-238l14 -129v-947h131zM311 1612l-92 209h215
l70 -146l67 146h211l-65 -209h-406z" />
    <glyph glyph-name="dcaron" unicode="&#x10f;" horiz-adv-x="1001" 
d="M903 1321v-1137l-16 -14l-64 -84l-45 -72l-164 9h-536l12 8v119l-12 104l14 -2l25 8l28 -16l70 4v1012l-10 45l-125 -11l-14 6l8 23v119l-8 108l694 -37l37 -59zM571 231l117 9l-29 358l-12 84l19 6l-23 205v145l21 269h-238l14 -129v-947h131zM311 1612l-92 209h215
l70 -146l67 146h211l-65 -209h-406z" />
    <glyph glyph-name="Dcroat" unicode="&#x110;" horiz-adv-x="1001" 
d="M903 1321v-1137l-16 -14l-64 -84l-45 -72l-164 9h-536l12 8v119l-12 104l14 -2l25 8l28 -16l70 4v403h-123l17 191h106v418l-10 45l-125 -11l-14 6l8 23v119l-8 108l694 -37l37 -59zM522 870l17 -219h-99v-420h131l117 9l-29 358l-12 84l19 6l-23 205v145l21 269h-238
l14 -129v-322z" />
    <glyph glyph-name="dcroat" unicode="&#x111;" horiz-adv-x="1001" 
d="M903 1321v-1137l-16 -14l-64 -84l-45 -72l-164 9h-536l12 8v119l-12 104l14 -2l25 8l28 -16l70 4v403h-123l17 191h106v418l-10 45l-125 -11l-14 6l8 23v119l-8 108l694 -37l37 -59zM522 870l17 -219h-99v-420h131l117 9l-29 358l-12 84l19 6l-23 205v145l21 269h-238
l14 -129v-322z" />
    <glyph glyph-name="Emacron" unicode="&#x112;" horiz-adv-x="806" 
d="M788 215v-213l-79 4l-31 -6l-19 12l-79 -12h-512v92l-17 72v1337l-18 8h698l43 -16v-217l-33 14h-393l-84 -4l-12 -12v-144l10 -77v-142l17 -14h204l133 14l5 -88l-9 -8l11 -145h-371l24 -133v-168l-6 -66l9 -88h509zM715 1821v-181l-45 17h-86l-166 -17h-266l-35 -20
l-27 10v191h625z" />
    <glyph glyph-name="emacron" unicode="&#x113;" horiz-adv-x="806" 
d="M788 215v-213l-79 4l-31 -6l-19 12l-79 -12h-512v92l-17 72v1337l-18 8h698l43 -16v-217l-33 14h-393l-84 -4l-12 -12v-144l10 -77v-142l17 -14h204l133 14l5 -88l-9 -8l11 -145h-371l24 -133v-168l-6 -66l9 -88h509zM715 1821v-181l-45 17h-86l-166 -17h-266l-35 -20
l-27 10v191h625z" />
    <glyph glyph-name="Edotaccent" unicode="&#x116;" horiz-adv-x="806" 
d="M788 215v-213l-79 4l-31 -6l-19 12l-79 -12h-512v92l-17 72v1337l-18 8h698l43 -16v-217l-33 14h-393l-84 -4l-12 -12v-144l10 -77v-142l17 -14h204l133 14l5 -88l-9 -8l11 -145h-371l24 -133v-168l-6 -66l9 -88h509zM487 1774l17 -162h-203v194h178z" />
    <glyph glyph-name="edotaccent" unicode="&#x117;" horiz-adv-x="806" 
d="M788 215v-213l-79 4l-31 -6l-19 12l-79 -12h-512v92l-17 72v1337l-18 8h698l43 -16v-217l-33 14h-393l-84 -4l-12 -12v-144l10 -77v-142l17 -14h204l133 14l5 -88l-9 -8l11 -145h-371l24 -133v-168l-6 -66l9 -88h509zM487 1774l17 -162h-203v194h178z" />
    <glyph glyph-name="Eogonek" unicode="&#x118;" horiz-adv-x="806" 
d="M788 215v-213l-296 -262l270 10l-25 -219l-284 16l-91 39l-8 209l305 215v2l-79 -12h-512v92l-17 72v1337l-18 8h698l43 -16v-217l-33 14h-393l-84 -4l-12 -12v-144l10 -77v-142l17 -14h204l133 14l5 -88l-9 -8l11 -145h-371l24 -133v-168l-6 -66l9 -88h509z" />
    <glyph glyph-name="eogonek" unicode="&#x119;" horiz-adv-x="806" 
d="M788 215v-213l-296 -262l270 10l-25 -219l-284 16l-91 39l-8 209l305 215v2l-79 -12h-512v92l-17 72v1337l-18 8h698l43 -16v-217l-33 14h-393l-84 -4l-12 -12v-144l10 -77v-142l17 -14h204l133 14l5 -88l-9 -8l11 -145h-371l24 -133v-168l-6 -66l9 -88h509z" />
    <glyph glyph-name="Ecaron" unicode="&#x11a;" horiz-adv-x="806" 
d="M788 215v-213l-79 4l-31 -6l-19 12l-79 -12h-512v92l-17 72v1337l-18 8h698l43 -16v-217l-33 14h-393l-84 -4l-12 -12v-144l10 -77v-142l17 -14h204l133 14l5 -88l-9 -8l11 -145h-371l24 -133v-168l-6 -66l9 -88h509zM213 1612l-92 209h215l70 -146l67 146h211l-66 -209
h-405z" />
    <glyph glyph-name="ecaron" unicode="&#x11b;" horiz-adv-x="806" 
d="M788 215v-213l-79 4l-31 -6l-19 12l-79 -12h-512v92l-17 72v1337l-18 8h698l43 -16v-217l-33 14h-393l-84 -4l-12 -12v-144l10 -77v-142l17 -14h204l133 14l5 -88l-9 -8l11 -145h-371l24 -133v-168l-6 -66l9 -88h509zM213 1612l-92 209h215l70 -146l67 146h211l-66 -209
h-405z" />
    <glyph glyph-name="Gbreve" unicode="&#x11e;" horiz-adv-x="962" 
d="M907 451v-428l-20 -7h-213l-27 11l-98 -9h-109l-102 15h-72l-12 -13l-31 7h-119l-14 202v478l-31 507v277l13 35l88 -8h688l14 -23l-8 -72v-65l10 -51l-8 -31l4 -27v2l25 -231h-238v250l-18 12h-344l-2 -14l-15 -21l21 -10v-547l4 -10l10 -2l-18 -41l16 -12l-10 -144
l18 -12l-16 -45l4 -92l12 -6l-2 -11l-10 -10l10 -35l-4 -16l367 22l-4 -8h14l4 41l-25 379h-235l-16 225l20 -10h354l109 10v-272zM195 1671l10 150l201 -11l-31 -96l117 -31l86 11l8 116l182 11l-12 -150l-54 -59h-405z" />
    <glyph glyph-name="gbreve" unicode="&#x11f;" horiz-adv-x="962" 
d="M907 451v-428l-20 -7h-213l-27 11l-98 -9h-109l-102 15h-72l-12 -13l-31 7h-119l-14 202v478l-31 507v277l13 35l88 -8h688l14 -23l-8 -72v-65l10 -51l-8 -31l4 -27v2l25 -231h-238v250l-18 12h-344l-2 -14l-15 -21l21 -10v-547l4 -10l10 -2l-18 -41l16 -12l-10 -144
l18 -12l-16 -45l4 -92l12 -6l-2 -11l-10 -10l10 -35l-4 -16l367 22l-4 -8h14l4 41l-25 379h-235l-16 225l20 -10h354l109 10v-272zM195 1671l10 150l201 -11l-31 -96l117 -31l86 11l8 116l182 11l-12 -150l-54 -59h-405z" />
    <glyph glyph-name="Gdotaccent" unicode="&#x120;" horiz-adv-x="962" 
d="M907 451v-428l-20 -7h-213l-27 11l-98 -9h-109l-102 15h-72l-12 -13l-31 7h-119l-14 202v478l-31 507v277l13 35l88 -8h688l14 -23l-8 -72v-65l10 -51l-8 -31l4 -27v2l25 -231h-238v250l-18 12h-344l-2 -14l-15 -21l21 -10v-547l4 -10l10 -2l-18 -41l16 -12l-10 -144
l18 -12l-16 -45l4 -92l12 -6l-2 -11l-10 -10l10 -35l-4 -16l367 22l-4 -8h14l4 41l-25 379h-235l-16 225l20 -10h354l109 10v-272zM565 1774l17 -162h-203v194h178z" />
    <glyph glyph-name="gdotaccent" unicode="&#x121;" horiz-adv-x="962" 
d="M907 451v-428l-20 -7h-213l-27 11l-98 -9h-109l-102 15h-72l-12 -13l-31 7h-119l-14 202v478l-31 507v277l13 35l88 -8h688l14 -23l-8 -72v-65l10 -51l-8 -31l4 -27v2l25 -231h-238v250l-18 12h-344l-2 -14l-15 -21l21 -10v-547l4 -10l10 -2l-18 -41l16 -12l-10 -144
l18 -12l-16 -45l4 -92l12 -6l-2 -11l-10 -10l10 -35l-4 -16l367 22l-4 -8h14l4 41l-25 379h-235l-16 225l20 -10h354l109 10v-272zM565 1774l17 -162h-203v194h178z" />
    <glyph glyph-name="Gcommaaccent" unicode="&#x122;" horiz-adv-x="962" 
d="M907 451v-428l-20 -7h-213l-27 11l-98 -9h-109l-102 15h-72l-12 -13l-31 7h-119l-14 202v478l-31 507v277l13 35l88 -8h688l14 -23l-8 -72v-65l10 -51l-8 -31l4 -27v2l25 -231h-238v250l-18 12h-344l-2 -14l-15 -21l21 -10v-547l4 -10l10 -2l-18 -41l16 -12l-10 -144
l18 -12l-16 -45l4 -92l12 -6l-2 -11l-10 -10l10 -35l-4 -16l367 22l-4 -8h14l4 41l-25 379h-235l-16 225l20 -10h354l109 10v-272zM618 -195v-30l-2 -25l-51 -219l-168 16l-53 269v20l31 47l43 41l49 27h47l47 -31l37 -51z" />
    <glyph glyph-name="gcommaaccent" unicode="&#x123;" horiz-adv-x="962" 
d="M907 451v-428l-20 -7h-213l-27 11l-98 -9h-109l-102 15h-72l-12 -13l-31 7h-119l-14 202v478l-31 507v277l13 35l88 -8h688l14 -23l-8 -72v-65l10 -51l-8 -31l4 -27v2l25 -231h-238v250l-18 12h-344l-2 -14l-15 -21l21 -10v-547l4 -10l10 -2l-18 -41l16 -12l-10 -144
l18 -12l-16 -45l4 -92l12 -6l-2 -11l-10 -10l10 -35l-4 -16l367 22l-4 -8h14l4 41l-25 379h-235l-16 225l20 -10h354l109 10v-272zM618 -195v-30l-2 -25l-51 -219l-168 16l-53 269v20l31 47l43 41l49 27h47l47 -31l37 -51z" />
    <glyph glyph-name="Hbar" unicode="&#x126;" horiz-adv-x="989" 
d="M920 492l8 -19l-19 -35v-428h-239l-43 107v471l-195 -13h-59l-4 -4l6 -36v-17l18 -8l-18 -18v-15l12 -8l-10 -18l-6 -148l10 -145l-6 -17v-116l-13 -15h-231l-41 53l-16 37l24 21v57l-18 12l24 50l-18 24l2 33l16 72l-16 55v553l10 6l-8 16v154l10 64v217l-14 77l12 13
h262l17 -217h254l-10 217h249l15 -56v-86l-13 -26l9 -62l28 -123l-10 -4l-8 -12l22 -166l9 -12l-2 -14l-11 -13l19 -73v-349l-4 -20l-11 -10zM639 893l-8 35v211l-121 -13h-119l15 -176l-13 -6l2 -35l-8 -6l16 -35l142 9z" />
    <glyph glyph-name="hbar" unicode="&#x127;" horiz-adv-x="989" 
d="M920 492l8 -19l-19 -35v-428h-239l-43 107v471l-195 -13h-59l-4 -4l6 -36v-17l18 -8l-18 -18v-15l12 -8l-10 -18l-6 -148l10 -145l-6 -17v-116l-13 -15h-231l-41 53l-16 37l24 21v57l-18 12l24 50l-18 24l2 33l16 72l-16 55v553l10 6l-8 16v154l10 64v217l-14 77l12 13
h262l17 -217h254l-10 217h249l15 -56v-86l-13 -26l9 -62l28 -123l-10 -4l-8 -12l22 -166l9 -12l-2 -14l-11 -13l19 -73v-349l-4 -20l-11 -10zM639 893l-8 35v211l-121 -13h-119l15 -176l-13 -6l2 -35l-8 -6l16 -35l142 9z" />
    <glyph glyph-name="Itilde" unicode="&#x128;" 
d="M377 395l14 -8l-16 -59v-250l-13 2v-76l9 -6h-260l-27 98l12 29v133l-12 356l8 17v186l-14 21l12 20l-6 86l6 135l6 8l-12 9l4 43l12 22l-16 21l12 39v227l15 76h170l65 6l29 -246v-668l6 -145zM379 1843h172l-21 -221h-313l-123 139l-28 -131l-160 -12l26 219h306
l129 -127z" />
    <glyph glyph-name="itilde" unicode="&#x129;" 
d="M377 395l14 -8l-16 -59v-250l-13 2v-76l9 -6h-260l-27 98l12 29v133l-12 356l8 17v186l-14 21l12 20l-6 86l6 135l6 8l-12 9l4 43l12 22l-16 21l12 39v227l15 76h170l65 6l29 -246v-668l6 -145zM379 1843h172l-21 -221h-313l-123 139l-28 -131l-160 -12l26 219h306
l129 -127z" />
    <glyph glyph-name="uni012A" unicode="&#x12a;" 
d="M377 395l14 -8l-16 -59v-250l-13 2v-76l9 -6h-260l-27 98l12 29v133l-12 356l8 17v186l-14 21l12 20l-6 86l6 135l6 8l-12 9l4 43l12 22l-16 21l12 39v227l15 76h170l65 6l29 -246v-668l6 -145zM541 1821v-181l-45 17h-86l-166 -17h-267l-34 -20l-27 10v191h625z" />
    <glyph glyph-name="imacron" unicode="&#x12b;" 
d="M377 395l14 -8l-16 -59v-250l-13 2v-76l9 -6h-260l-27 98l12 29v133l-12 356l8 17v186l-14 21l12 20l-6 86l6 135l6 8l-12 9l4 43l12 22l-16 21l12 39v227l15 76h170l65 6l29 -246v-668l6 -145zM541 1821v-181l-45 17h-86l-166 -17h-267l-34 -20l-27 10v191h625z" />
    <glyph glyph-name="Ibreve" unicode="&#x12c;" 
d="M377 395l14 -8l-16 -59v-250l-13 2v-76l9 -6h-260l-27 98l12 29v133l-12 356l8 17v186l-14 21l12 20l-6 86l6 135l6 8l-12 9l4 43l12 22l-16 21l12 39v227l15 76h170l65 6l29 -246v-668l6 -145zM-57 1671l10 150l201 -11l-31 -96l117 -31l86 11l8 116l182 11l-12 -150
l-53 -59h-406z" />
    <glyph glyph-name="ibreve" unicode="&#x12d;" 
d="M377 395l14 -8l-16 -59v-250l-13 2v-76l9 -6h-260l-27 98l12 29v133l-12 356l8 17v186l-14 21l12 20l-6 86l6 135l6 8l-12 9l4 43l12 22l-16 21l12 39v227l15 76h170l65 6l29 -246v-668l6 -145zM-57 1671l10 150l201 -11l-31 -96l117 -31l86 11l8 116l182 11l-12 -150
l-53 -59h-406z" />
    <glyph glyph-name="Iogonek" unicode="&#x12e;" 
d="M362 80l-24 -82l-270 -258l270 10l-25 -219l-284 16l-90 39l-9 209l287 203h-106l-27 98l12 29v133l-12 356l8 17v186l-14 21l12 20l-6 86l6 135l6 8l-12 9l4 43l12 22l-16 21l12 39v227l15 76h170l65 6l29 -246v-668l6 -145l-4 -76l14 -8l-16 -59v-250z" />
    <glyph glyph-name="iogonek" unicode="&#x12f;" 
d="M362 80l-24 -82l-270 -258l270 10l-25 -219l-284 16l-90 39l-9 209l287 203h-106l-27 98l12 29v133l-12 356l8 17v186l-14 21l12 20l-6 86l6 135l6 8l-12 9l4 43l12 22l-16 21l12 39v227l15 76h170l65 6l29 -246v-668l6 -145l-4 -76l14 -8l-16 -59v-250z" />
    <glyph glyph-name="Idotaccent" unicode="&#x130;" 
d="M377 395l14 -8l-16 -59v-250l-13 2v-76l9 -6h-260l-27 98l12 29v133l-12 356l8 17v186l-14 21l12 20l-6 86l6 135l6 8l-12 9l4 43l12 22l-16 21l12 39v227l15 76h170l65 6l29 -246v-668l6 -145zM313 1774l17 -162h-203v194h178z" />
    <glyph glyph-name="dotlessi" unicode="&#x131;" 
d="M377 395l14 -8l-16 -59v-250l-13 2v-76l9 -6h-260l-27 98l12 29v133l-12 356l8 17v186l-14 21l12 20l-6 86l6 135l6 8l-12 9l4 43l12 22l-16 21l12 39v227l15 76h170l65 6l29 -246v-668l6 -145z" />
    <glyph glyph-name="IJ" unicode="&#x132;" horiz-adv-x="1507" 
d="M377 395l14 -8l-16 -59v-250l-13 2v-76l9 -6h-260l-27 98l12 29v133l-12 356l8 17v186l-14 21l12 20l-6 86l6 135l6 8l-12 9l4 43l12 22l-16 21l12 39v227l15 76h170l65 6l29 -246v-668l6 -145zM1407 793l6 -5l-10 -106v-408l4 -10l-4 -2l-12 -176l-15 -66h-819l2 7
l-14 45v112l-8 125l-11 45l11 52v196l12 39h53l205 -20l14 -21v-35l-18 -14l12 -35v-127l-24 -43v-76l6 -8h176l157 -18v73l7 29l-9 10l5 11v446l18 8v56l10 100v233l-31 277h277v-694z" />
    <glyph glyph-name="ij" unicode="&#x133;" horiz-adv-x="1345" 
d="M102 1511h246v-1312l-18 -217l-248 32v1471l-19 6zM1253 641l29 -35l-22 -67l16 -9l-16 -90l16 -28l-14 -13v-342h-674l-64 27v606l92 -26l19 4l12 -19l23 8l78 -8v-260l-7 -31v-96h320l-31 414l12 24v449l11 14l-17 17v372h197l24 -387l13 -125l-8 -104l10 -57z" />
    <glyph glyph-name="Kcommaaccent" unicode="&#x136;" horiz-adv-x="884" 
d="M770 1483l57 -8l-284 -586l8 -68l27 -125l200 -669h-198l-187 653l-86 -158v-477h-241l26 508v561l10 19v122l-16 238h229v-510l273 502l98 4zM580 -195v-30l-2 -25l-52 -219l-168 16l-53 269v20l31 47l43 41l49 27h47l47 -31l37 -51z" />
    <glyph glyph-name="kcommaaccent" unicode="&#x137;" horiz-adv-x="884" 
d="M770 1483l57 -8l-284 -586l8 -68l27 -125l200 -669h-198l-187 653l-86 -158v-477h-241l26 508v561l10 19v122l-16 238h229v-510l273 502l98 4zM580 -195v-30l-2 -25l-52 -219l-168 16l-53 269v20l31 47l43 41l49 27h47l47 -31l37 -51z" />
    <glyph glyph-name="Lacute" unicode="&#x139;" horiz-adv-x="862" 
d="M862 248v-248h-825v1241l-10 221l-9 45h234l-12 -106v-68l32 -2v-491l17 -19v-393l-8 -129l-11 -47l15 -10l2 -13l303 13l4 18l12 -2l10 -10h246zM231 1829l195 -21l-10 -22l-140 -152l-40 -10h-142z" />
    <glyph glyph-name="lacute" unicode="&#x13a;" horiz-adv-x="862" 
d="M862 248v-248h-825v1241l-10 221l-9 45h234l-12 -106v-68l32 -2v-491l17 -19v-393l-8 -129l-11 -47l15 -10l2 -13l303 13l4 18l12 -2l10 -10h246zM231 1829l195 -21l-10 -22l-140 -152l-40 -10h-142z" />
    <glyph glyph-name="Lcommaaccent" unicode="&#x13b;" horiz-adv-x="862" 
d="M862 248v-248h-825v1241l-10 221l-9 45h234l-12 -106v-68l32 -2v-491l17 -19v-393l-8 -129l-11 -47l15 -10l2 -13l303 13l4 18l12 -2l10 -10h246zM567 -195v-30l-2 -25l-51 -219l-168 16l-53 269v20l31 47l43 41l49 27h47l47 -31l37 -51z" />
    <glyph glyph-name="lcommaaccent" unicode="&#x13c;" horiz-adv-x="862" 
d="M862 248v-248h-825v1241l-10 221l-9 45h234l-12 -106v-68l32 -2v-491l17 -19v-393l-8 -129l-11 -47l15 -10l2 -13l303 13l4 18l12 -2l10 -10h246zM567 -195v-30l-2 -25l-51 -219l-168 16l-53 269v20l31 47l43 41l49 27h47l47 -31l37 -51z" />
    <glyph glyph-name="Lcaron" unicode="&#x13d;" horiz-adv-x="862" 
d="M862 248v-248h-825v1241l-10 221l-9 45h234l-12 -106v-68l32 -2v-491l17 -19v-393l-8 -129l-11 -47l15 -10l2 -13l303 13l4 18l12 -2l10 -10h246zM680 1423v-30l-2 -25l-51 -219l-168 16l-53 269v20l30 47l43 41l49 27h47l48 -31l36 -51z" />
    <glyph glyph-name="lcaron" unicode="&#x13e;" horiz-adv-x="862" 
d="M862 248v-248h-825v1241l-10 221l-9 45h234l-12 -106v-68l32 -2v-491l17 -19v-393l-8 -129l-11 -47l15 -10l2 -13l303 13l4 18l12 -2l10 -10h246zM680 1423v-30l-2 -25l-51 -219l-168 16l-53 269v20l30 47l43 41l49 27h47l48 -31l36 -51z" />
    <glyph glyph-name="Lslash" unicode="&#x141;" horiz-adv-x="804" 
d="M498 1008l49 -170l-228 -138v-92l-14 -325l17 -15l483 43v-284h-731v526l-66 -39l-67 154l133 80v747l-17 25h238l24 -492v-129z" />
    <glyph glyph-name="lslash" unicode="&#x142;" horiz-adv-x="804" 
d="M498 1008l49 -170l-228 -138v-92l-14 -325l17 -15l483 43v-284h-731v526l-66 -39l-67 154l133 80v747l-17 25h238l24 -492v-129z" />
    <glyph glyph-name="Nacute" unicode="&#x143;" horiz-adv-x="993" 
d="M901 1018l21 -393l8 -9l-10 -30l6 -6l-13 -207l15 -23l-15 -6v-22l17 -9l-17 -20l-10 -41l-8 -234h-233l-13 25l6 18l-75 158l-105 244l-113 293l-43 137v-143l13 -29l-10 -59l16 -123l-2 -17l6 -14l-16 -465l-35 -10h-80l-10 10l-17 -6h-45l-30 6l-35 969v286l24 228
l52 -10h104l35 12l153 -340l13 -8l-4 -9l22 -49l2 -24l70 -146l112 -325l11 -11l-37 857l18 49h215l25 -256v-60l16 -153l8 -9v-20zM467 1829l195 -21l-11 -22l-139 -152l-41 -10h-141z" />
    <glyph glyph-name="nacute" unicode="&#x144;" horiz-adv-x="993" 
d="M901 1018l21 -393l8 -9l-10 -30l6 -6l-13 -207l15 -23l-15 -6v-22l17 -9l-17 -20l-10 -41l-8 -234h-233l-13 25l6 18l-75 158l-105 244l-113 293l-43 137v-143l13 -29l-10 -59l16 -123l-2 -17l6 -14l-16 -465l-35 -10h-80l-10 10l-17 -6h-45l-30 6l-35 969v286l24 228
l52 -10h104l35 12l153 -340l13 -8l-4 -9l22 -49l2 -24l70 -146l112 -325l11 -11l-37 857l18 49h215l25 -256v-60l16 -153l8 -9v-20zM467 1829l195 -21l-11 -22l-139 -152l-41 -10h-141z" />
    <glyph glyph-name="Ncommaaccent" unicode="&#x145;" horiz-adv-x="993" 
d="M901 1018l21 -393l8 -9l-10 -30l6 -6l-13 -207l15 -23l-15 -6v-22l17 -9l-17 -20l-10 -41l-8 -234h-233l-13 25l6 18l-75 158l-105 244l-113 293l-43 137v-143l13 -29l-10 -59l16 -123l-2 -17l6 -14l-16 -465l-35 -10h-80l-10 10l-17 -6h-45l-30 6l-35 969v286l24 228
l52 -10h104l35 12l153 -340l13 -8l-4 -9l22 -49l2 -24l70 -146l112 -325l11 -11l-37 857l18 49h215l25 -256v-60l16 -153l8 -9v-20zM633 -195v-30l-2 -25l-51 -219l-168 16l-54 269v20l31 47l43 41l49 27h47l47 -31l37 -51z" />
    <glyph glyph-name="ncommaaccent" unicode="&#x146;" horiz-adv-x="993" 
d="M901 1018l21 -393l8 -9l-10 -30l6 -6l-13 -207l15 -23l-15 -6v-22l17 -9l-17 -20l-10 -41l-8 -234h-233l-13 25l6 18l-75 158l-105 244l-113 293l-43 137v-143l13 -29l-10 -59l16 -123l-2 -17l6 -14l-16 -465l-35 -10h-80l-10 10l-17 -6h-45l-30 6l-35 969v286l24 228
l52 -10h104l35 12l153 -340l13 -8l-4 -9l22 -49l2 -24l70 -146l112 -325l11 -11l-37 857l18 49h215l25 -256v-60l16 -153l8 -9v-20zM633 -195v-30l-2 -25l-51 -219l-168 16l-54 269v20l31 47l43 41l49 27h47l47 -31l37 -51z" />
    <glyph glyph-name="Ncaron" unicode="&#x147;" horiz-adv-x="993" 
d="M901 1018l21 -393l8 -9l-10 -30l6 -6l-13 -207l15 -23l-15 -6v-22l17 -9l-17 -20l-10 -41l-8 -234h-233l-13 25l6 18l-75 158l-105 244l-113 293l-43 137v-143l13 -29l-10 -59l16 -123l-2 -17l6 -14l-16 -465l-35 -10h-80l-10 10l-17 -6h-45l-30 6l-35 969v286l24 228
l52 -10h104l35 12l153 -340l13 -8l-4 -9l22 -49l2 -24l70 -146l112 -325l11 -11l-37 857l18 49h215l25 -256v-60l16 -153l8 -9v-20zM307 1612l-92 209h215l70 -146l67 146h211l-65 -209h-406z" />
    <glyph glyph-name="ncaron" unicode="&#x148;" horiz-adv-x="993" 
d="M901 1018l21 -393l8 -9l-10 -30l6 -6l-13 -207l15 -23l-15 -6v-22l17 -9l-17 -20l-10 -41l-8 -234h-233l-13 25l6 18l-75 158l-105 244l-113 293l-43 137v-143l13 -29l-10 -59l16 -123l-2 -17l6 -14l-16 -465l-35 -10h-80l-10 10l-17 -6h-45l-30 6l-35 969v286l24 228
l52 -10h104l35 12l153 -340l13 -8l-4 -9l22 -49l2 -24l70 -146l112 -325l11 -11l-37 857l18 49h215l25 -256v-60l16 -153l8 -9v-20zM307 1612l-92 209h215l70 -146l67 146h211l-65 -209h-406z" />
    <glyph glyph-name="Eng" unicode="&#x14a;" horiz-adv-x="993" 
d="M926 580l-6 -263l10 -4l-10 -14v-367l4 -10l-4 -2l-13 -176l-14 -66h-473v242h69l158 -18v73l6 29l-8 10l4 11v49l-69 145l-218 537l-43 137v-143l13 -29l-10 -59l16 -123l-2 -17l6 -14l-16 -465l-35 -10h-80l-10 10l-17 -6h-45l-30 6l-35 969v286l24 228l52 -10h104
l35 12l153 -340l13 -8l-4 -9l22 -49l2 -24l70 -146l112 -325l11 -11l-37 857l18 49h215l25 -256v-60l16 -153l8 -9v-20l-12 -6l21 -393l8 -9l-10 -30z" />
    <glyph glyph-name="eng" unicode="&#x14b;" horiz-adv-x="993" 
d="M926 580l-6 -263l10 -4l-10 -14v-367l4 -10l-4 -2l-13 -176l-14 -66h-473v242h69l158 -18v73l6 29l-8 10l4 11v49l-69 145l-218 537l-43 137v-143l13 -29l-10 -59l16 -123l-2 -17l6 -14l-16 -465l-35 -10h-80l-10 10l-17 -6h-45l-30 6l-35 969v286l24 228l52 -10h104
l35 12l153 -340l13 -8l-4 -9l22 -49l2 -24l70 -146l112 -325l11 -11l-37 857l18 49h215l25 -256v-60l16 -153l8 -9v-20l-12 -6l21 -393l8 -9l-10 -30z" />
    <glyph glyph-name="Omacron" unicode="&#x14c;" horiz-adv-x="921" 
d="M858 403l-12 -8l2 -35l-6 -88l-8 -16l10 -8l-17 -8l7 -23l18 -33l-18 -16l12 -4l-10 -58l8 -116l-13 2l-16 16l-10 -18h-12l-11 16l-10 -10l-16 6h-92l-25 10v-10h-96l-99 10l-6 -12h-166l-133 12l-6 6l-10 -10h-17l-30 402v628l12 66v43l-12 12l14 37v14l-14 9l12 14
l-16 295h712l35 -19v-301l21 -28l-2 -25l-17 -47l13 -10l-9 -97l17 -10l-8 -110l12 -23v-31l-19 -14l25 -47l-12 -10l6 -25l-6 -18v-49l6 -21l-8 -12l6 -25l-4 -18l12 -8l-8 -23v-145zM635 375v35l-6 116l-15 29v436l-16 6l14 23v211l6 61h-329l8 -123l-8 -16l10 -4v-10
l-12 -19l12 -41v-268l12 -14l-4 -9l-14 -8l31 -18l-35 -29l22 -135l6 -188l-18 -11l18 -22v-45l-10 -94l6 -13l181 13h133v104l-4 25zM772 1821v-181l-45 17h-86l-166 -17h-266l-35 -20l-27 10v191h625z" />
    <glyph glyph-name="omacron" unicode="&#x14d;" horiz-adv-x="921" 
d="M858 403l-12 -8l2 -35l-6 -88l-8 -16l10 -8l-17 -8l7 -23l18 -33l-18 -16l12 -4l-10 -58l8 -116l-13 2l-16 16l-10 -18h-12l-11 16l-10 -10l-16 6h-92l-25 10v-10h-96l-99 10l-6 -12h-166l-133 12l-6 6l-10 -10h-17l-30 402v628l12 66v43l-12 12l14 37v14l-14 9l12 14
l-16 295h712l35 -19v-301l21 -28l-2 -25l-17 -47l13 -10l-9 -97l17 -10l-8 -110l12 -23v-31l-19 -14l25 -47l-12 -10l6 -25l-6 -18v-49l6 -21l-8 -12l6 -25l-4 -18l12 -8l-8 -23v-145zM635 375v35l-6 116l-15 29v436l-16 6l14 23v211l6 61h-329l8 -123l-8 -16l10 -4v-10
l-12 -19l12 -41v-268l12 -14l-4 -9l-14 -8l31 -18l-35 -29l22 -135l6 -188l-18 -11l18 -22v-45l-10 -94l6 -13l181 13h133v104l-4 25zM772 1821v-181l-45 17h-86l-166 -17h-266l-35 -20l-27 10v191h625z" />
    <glyph glyph-name="Ohungarumlaut" unicode="&#x150;" horiz-adv-x="921" 
d="M858 403l-12 -8l2 -35l-6 -88l-8 -16l10 -8l-17 -8l7 -23l18 -33l-18 -16l12 -4l-10 -58l8 -116l-13 2l-16 16l-10 -18h-12l-11 16l-10 -10l-16 6h-92l-25 10v-10h-96l-99 10l-6 -12h-166l-133 12l-6 6l-10 -10h-17l-30 402v628l12 66v43l-12 12l14 37v14l-14 9l12 14
l-16 295h712l35 -19v-301l21 -28l-2 -25l-17 -47l13 -10l-9 -97l17 -10l-8 -110l12 -23v-31l-19 -14l25 -47l-12 -10l6 -25l-6 -18v-49l6 -21l-8 -12l6 -25l-4 -18l12 -8l-8 -23v-145zM635 375v35l-6 116l-15 29v436l-16 6l14 23v211l6 61h-329l8 -123l-8 -16l10 -4v-10
l-12 -19l12 -41v-268l12 -14l-4 -9l-14 -8l31 -18l-35 -29l22 -135l6 -188l-18 -11l18 -22v-45l-10 -94l6 -13l181 13h133v104l-4 25zM629 1821l186 -2l-147 -236l-138 10zM301 1819h186l-147 -236l-137 10z" />
    <glyph glyph-name="ohungarumlaut" unicode="&#x151;" horiz-adv-x="921" 
d="M858 403l-12 -8l2 -35l-6 -88l-8 -16l10 -8l-17 -8l7 -23l18 -33l-18 -16l12 -4l-10 -58l8 -116l-13 2l-16 16l-10 -18h-12l-11 16l-10 -10l-16 6h-92l-25 10v-10h-96l-99 10l-6 -12h-166l-133 12l-6 6l-10 -10h-17l-30 402v628l12 66v43l-12 12l14 37v14l-14 9l12 14
l-16 295h712l35 -19v-301l21 -28l-2 -25l-17 -47l13 -10l-9 -97l17 -10l-8 -110l12 -23v-31l-19 -14l25 -47l-12 -10l6 -25l-6 -18v-49l6 -21l-8 -12l6 -25l-4 -18l12 -8l-8 -23v-145zM635 375v35l-6 116l-15 29v436l-16 6l14 23v211l6 61h-329l8 -123l-8 -16l10 -4v-10
l-12 -19l12 -41v-268l12 -14l-4 -9l-14 -8l31 -18l-35 -29l22 -135l6 -188l-18 -11l18 -22v-45l-10 -94l6 -13l181 13h133v104l-4 25zM629 1821l186 -2l-147 -236l-138 10zM301 1819h186l-147 -236l-137 10z" />
    <glyph glyph-name="OE" unicode="&#x152;" horiz-adv-x="1413" 
d="M1358 215v-213l-80 4l-31 -6l-18 12l-80 -12h-885l-133 12l-6 6l-10 -10h-17l-30 402v628l12 66v43l-12 12l14 37v14l-14 9l12 14l-17 295h1237l43 -35v-217l-32 14h-393l-84 -4l-13 -12v-363l27 -14h205l133 14l4 -88l-8 -8l10 -145h-361l7 -27v-237l12 -3l-8 -20v-80
l6 -88h510zM621 526l-15 29v676l4 61h-329l8 -123l-8 -16l10 -4v-10l-12 -19l12 -41v-841l14 -13l180 13h133v104l-4 25l7 4v155z" />
    <glyph glyph-name="oe" unicode="&#x153;" horiz-adv-x="1413" 
d="M1358 215v-213l-80 4l-31 -6l-18 12l-80 -12h-885l-133 12l-6 6l-10 -10h-17l-30 402v628l12 66v43l-12 12l14 37v14l-14 9l12 14l-17 295h1237l43 -35v-217l-32 14h-393l-84 -4l-13 -12v-363l27 -14h205l133 14l4 -88l-8 -8l10 -145h-361l7 -27v-237l12 -3l-8 -20v-80
l6 -88h510zM621 526l-15 29v676l4 61h-329l8 -123l-8 -16l10 -4v-10l-12 -19l12 -41v-841l14 -13l180 13h133v104l-4 25l7 4v155z" />
    <glyph glyph-name="Racute" unicode="&#x154;" horiz-adv-x="958" 
d="M88 55v181l-18 28l14 21v266l-23 14l11 10v105l-15 20l11 56v757h780v-49l26 -114v-56l-6 -14l35 -309l-6 -10l-14 -9l-127 9h-54l-14 -15l49 -235l86 -336l21 -109l-6 -8l14 -14l14 -84l-4 -29l19 -20l16 -113h-209l-94 274l-29 101l-86 405l-30 172h-158l33 -446v-168
l6 -139l-21 -187l-200 -8l-19 18zM283 1153h381l-5 59l5 74h-381l12 -61v-43zM86 59l2 -2l-2 -2v4zM489 1829l195 -21l-10 -22l-139 -152l-41 -10h-142z" />
    <glyph glyph-name="racute" unicode="&#x155;" horiz-adv-x="958" 
d="M88 55v181l-18 28l14 21v266l-23 14l11 10v105l-15 20l11 56v757h780v-49l26 -114v-56l-6 -14l35 -309l-6 -10l-14 -9l-127 9h-54l-14 -15l49 -235l86 -336l21 -109l-6 -8l14 -14l14 -84l-4 -29l19 -20l16 -113h-209l-94 274l-29 101l-86 405l-30 172h-158l33 -446v-168
l6 -139l-21 -187l-200 -8l-19 18zM283 1153h381l-5 59l5 74h-381l12 -61v-43zM86 59l2 -2l-2 -2v4zM489 1829l195 -21l-10 -22l-139 -152l-41 -10h-142z" />
    <glyph glyph-name="Rcommaaccent" unicode="&#x156;" horiz-adv-x="958" 
d="M88 55v181l-18 28l14 21v266l-23 14l11 10v105l-15 20l11 56v757h780v-49l26 -114v-56l-6 -14l35 -309l-6 -10l-14 -9l-127 9h-54l-14 -15l49 -235l86 -336l21 -109l-6 -8l14 -14l14 -84l-4 -29l19 -20l16 -113h-209l-94 274l-29 101l-86 405l-30 172h-158l33 -446v-168
l6 -139l-21 -187l-200 -8l-19 18zM283 1153h381l-5 59l5 74h-381l12 -61v-43zM86 59l2 -2l-2 -2v4zM616 -195v-30l-2 -25l-51 -219l-168 16l-53 269v20l31 47l43 41l49 27h47l47 -31l37 -51z" />
    <glyph glyph-name="rcommaaccent" unicode="&#x157;" horiz-adv-x="958" 
d="M88 55v181l-18 28l14 21v266l-23 14l11 10v105l-15 20l11 56v757h780v-49l26 -114v-56l-6 -14l35 -309l-6 -10l-14 -9l-127 9h-54l-14 -15l49 -235l86 -336l21 -109l-6 -8l14 -14l14 -84l-4 -29l19 -20l16 -113h-209l-94 274l-29 101l-86 405l-30 172h-158l33 -446v-168
l6 -139l-21 -187l-200 -8l-19 18zM283 1153h381l-5 59l5 74h-381l12 -61v-43zM86 59l2 -2l-2 -2v4zM616 -195v-30l-2 -25l-51 -219l-168 16l-53 269v20l31 47l43 41l49 27h47l47 -31l37 -51z" />
    <glyph glyph-name="Rcaron" unicode="&#x158;" horiz-adv-x="958" 
d="M88 55v181l-18 28l14 21v266l-23 14l11 10v105l-15 20l11 56v757h780v-49l26 -114v-56l-6 -14l35 -309l-6 -10l-14 -9l-127 9h-54l-14 -15l49 -235l86 -336l21 -109l-6 -8l14 -14l14 -84l-4 -29l19 -20l16 -113h-209l-94 274l-29 101l-86 405l-30 172h-158l33 -446v-168
l6 -139l-21 -187l-200 -8l-19 18zM283 1153h381l-5 59l5 74h-381l12 -61v-43zM86 59l2 -2l-2 -2v4zM289 1612l-92 209h215l69 -146l68 146h211l-66 -209h-405z" />
    <glyph glyph-name="rcaron" unicode="&#x159;" horiz-adv-x="958" 
d="M88 55v181l-18 28l14 21v266l-23 14l11 10v105l-15 20l11 56v757h780v-49l26 -114v-56l-6 -14l35 -309l-6 -10l-14 -9l-127 9h-54l-14 -15l49 -235l86 -336l21 -109l-6 -8l14 -14l14 -84l-4 -29l19 -20l16 -113h-209l-94 274l-29 101l-86 405l-30 172h-158l33 -446v-168
l6 -139l-21 -187l-200 -8l-19 18zM283 1153h381l-5 59l5 74h-381l12 -61v-43zM86 59l2 -2l-2 -2v4zM289 1612l-92 209h215l69 -146l68 146h211l-66 -209h-405z" />
    <glyph glyph-name="Sacute" unicode="&#x15a;" horiz-adv-x="960" 
d="M893 301l6 -4l-29 -135v-49l17 -27l-8 -70l-154 9l-20 -5h-592l-15 43l-14 130v438l8 12l86 4h133v-96l15 -21l-13 -10v-186l-6 -17l10 -88h359l-23 365l-575 274v641h323l11 9l34 -5l9 -8l65 13l10 -13l64 17l33 -2l6 -11l155 13l11 -13l47 -14l8 -90l-12 -6l24 -35v-57
l-8 -15l14 -26v-353l-206 19l-19 65v275l-37 4l-96 -6h-225v-80l12 -21l-8 -22v-49l8 -8l-6 -19v-43l27 -20l473 -246v-17l92 -40v-15l-10 -6l12 -293l-12 -59l14 -8zM512 1829l195 -21l-11 -22l-139 -152l-41 -10h-141z" />
    <glyph glyph-name="sacute" unicode="&#x15b;" horiz-adv-x="960" 
d="M893 301l6 -4l-29 -135v-49l17 -27l-8 -70l-154 9l-20 -5h-592l-15 43l-14 130v438l8 12l86 4h133v-96l15 -21l-13 -10v-186l-6 -17l10 -88h359l-23 365l-575 274v641h323l11 9l34 -5l9 -8l65 13l10 -13l64 17l33 -2l6 -11l155 13l11 -13l47 -14l8 -90l-12 -6l24 -35v-57
l-8 -15l14 -26v-353l-206 19l-19 65v275l-37 4l-96 -6h-225v-80l12 -21l-8 -22v-49l8 -8l-6 -19v-43l27 -20l473 -246v-17l92 -40v-15l-10 -6l12 -293l-12 -59l14 -8zM512 1829l195 -21l-11 -22l-139 -152l-41 -10h-141z" />
    <glyph glyph-name="Scedilla" unicode="&#x15e;" horiz-adv-x="960" 
d="M893 301l6 -4l-29 -135v-49l17 -27l-8 -70l-154 9l-20 -5h-592l-15 43l-14 130v438l8 12l86 4h133v-96l15 -21l-13 -10v-186l-6 -17l10 -88h359l-23 365l-575 274v641h323l11 9l34 -5l9 -8l65 13l10 -13l64 17l33 -2l6 -11l155 13l11 -13l47 -14l8 -90l-12 -6l24 -35v-57
l-8 -15l14 -26v-353l-206 19l-19 65v275l-37 4l-96 -6h-225v-80l12 -21l-8 -22v-49l8 -8l-6 -19v-43l27 -20l473 -246v-17l92 -40v-15l-10 -6l12 -293l-12 -59l14 -8zM616 -195v-30l-2 -25l-51 -219l-168 16l-53 269v20l31 47l43 41l49 27h47l47 -31l37 -51z" />
    <glyph glyph-name="scedilla" unicode="&#x15f;" horiz-adv-x="960" 
d="M893 301l6 -4l-29 -135v-49l17 -27l-8 -70l-154 9l-20 -5h-592l-15 43l-14 130v438l8 12l86 4h133v-96l15 -21l-13 -10v-186l-6 -17l10 -88h359l-23 365l-575 274v641h323l11 9l34 -5l9 -8l65 13l10 -13l64 17l33 -2l6 -11l155 13l11 -13l47 -14l8 -90l-12 -6l24 -35v-57
l-8 -15l14 -26v-353l-206 19l-19 65v275l-37 4l-96 -6h-225v-80l12 -21l-8 -22v-49l8 -8l-6 -19v-43l27 -20l473 -246v-17l92 -40v-15l-10 -6l12 -293l-12 -59l14 -8zM616 -195v-30l-2 -25l-51 -219l-168 16l-53 269v20l31 47l43 41l49 27h47l47 -31l37 -51z" />
    <glyph glyph-name="Scaron" unicode="&#x160;" horiz-adv-x="960" 
d="M893 301l6 -4l-29 -135v-49l17 -27l-8 -70l-154 9l-20 -5h-592l-15 43l-14 130v438l8 12l86 4h133v-96l15 -21l-13 -10v-186l-6 -17l10 -88h359l-23 365l-575 274v641h323l11 9l34 -5l9 -8l65 13l10 -13l64 17l33 -2l6 -11l155 13l11 -13l47 -14l8 -90l-12 -6l24 -35v-57
l-8 -15l14 -26v-353l-206 19l-19 65v275l-37 4l-96 -6h-225v-80l12 -21l-8 -22v-49l8 -8l-6 -19v-43l27 -20l473 -246v-17l92 -40v-15l-10 -6l12 -293l-12 -59l14 -8zM291 1581l-92 209h215l69 -145l68 145h211l-66 -209h-405z" />
    <glyph glyph-name="scaron" unicode="&#x161;" horiz-adv-x="937" 
d="M879 420l2 -8v-398h-799l-12 21v22l10 39v559l8 9l68 -9h137v-419l14 -13h117l14 13l6 -9h220l-13 72v268l-358 226l-193 139h-14l-14 39v76l-15 170v305h555l242 8v-518l-16 -6l-119 6l-62 -6l-12 12v295l-27 16l-61 12h-35l-16 -18h-227v-104l12 -138l432 -282l156 -92
v-287zM279 1612l-93 209h215l70 -146l68 146h211l-66 -209h-405z" />
    <glyph glyph-name="Tcaron" unicode="&#x164;" horiz-adv-x="950" 
d="M903 1419v-168h-311v-1271l-162 14l-37 -17l-39 3v432l-4 18l8 12l-16 183l-8 10l20 49v567h-309v254h854v-47l-6 -18zM285 1612l-92 209h215l69 -146l68 146h211l-66 -209h-405z" />
    <glyph glyph-name="tcaron" unicode="&#x165;" horiz-adv-x="950" 
d="M903 1419v-168h-311v-1271l-162 14l-37 -17l-39 3v432l-4 18l8 12l-16 183l-8 10l20 49v567h-309v254h854v-47l-6 -18zM285 1612l-92 209h215l69 -146l68 146h211l-66 -209h-405z" />
    <glyph glyph-name="Tbar" unicode="&#x166;" horiz-adv-x="950" 
d="M844 877v-236l-60 21h-90l-102 -13v-669l-162 14l-37 -17l-39 3v432l-4 18l8 12l-16 183l-8 10l2 6h-129l-66 -25l-22 13h-15v235h250v387h-309v254h854v-47l-6 -18l10 -21v-168h-311v-387h147z" />
    <glyph glyph-name="tbar" unicode="&#x167;" horiz-adv-x="950" 
d="M844 877v-236l-60 21h-90l-102 -13v-669l-162 14l-37 -17l-39 3v432l-4 18l8 12l-16 183l-8 10l2 6h-129l-66 -25l-22 13h-15v235h250v387h-309v254h854v-47l-6 -18l10 -21v-168h-311v-387h147z" />
    <glyph glyph-name="Utilde" unicode="&#x168;" horiz-adv-x="974" 
d="M625 1497h256l-15 -94v-1397h-624l-166 -12v221l-8 25l24 172v1085h203v-674l24 -303l-8 -10l-16 -291h311l19 25v1253zM637 1843h172l-21 -221h-313l-123 139l-28 -131l-160 -12l26 219h306l129 -127z" />
    <glyph glyph-name="utilde" unicode="&#x169;" horiz-adv-x="974" 
d="M625 1497h256l-15 -94v-1397h-624l-166 -12v221l-8 25l24 172v1085h203v-674l24 -303l-8 -10l-16 -291h311l19 25v1253zM637 1843h172l-21 -221h-313l-123 139l-28 -131l-160 -12l26 219h306l129 -127z" />
    <glyph glyph-name="Umacron" unicode="&#x16a;" horiz-adv-x="974" 
d="M625 1497h256l-15 -94v-1397h-624l-166 -12v221l-8 25l24 172v1085h203v-674l24 -303l-8 -10l-16 -291h311l19 25v1253zM799 1821v-181l-45 17h-86l-166 -17h-266l-35 -20l-27 10v191h625z" />
    <glyph glyph-name="umacron" unicode="&#x16b;" horiz-adv-x="974" 
d="M625 1497h256l-15 -94v-1397h-624l-166 -12v221l-8 25l24 172v1085h203v-674l24 -303l-8 -10l-16 -291h311l19 25v1253zM799 1821v-181l-45 17h-86l-166 -17h-266l-35 -20l-27 10v191h625z" />
    <glyph glyph-name="Ubreve" unicode="&#x16c;" horiz-adv-x="974" 
d="M625 1497h256l-15 -94v-1397h-624l-166 -12v221l-8 25l24 172v1085h203v-674l24 -303l-8 -10l-16 -291h311l19 25v1253zM201 1671l10 150l201 -11l-31 -96l117 -31l86 11l8 116l182 11l-12 -150l-53 -59h-406z" />
    <glyph glyph-name="ubreve" unicode="&#x16d;" horiz-adv-x="974" 
d="M625 1497h256l-15 -94v-1397h-624l-166 -12v221l-8 25l24 172v1085h203v-674l24 -303l-8 -10l-16 -291h311l19 25v1253zM201 1671l10 150l201 -11l-31 -96l117 -31l86 11l8 116l182 11l-12 -150l-53 -59h-406z" />
    <glyph glyph-name="Uring" unicode="&#x16e;" horiz-adv-x="974" 
d="M625 1497h256l-15 -94v-1397h-624l-166 -12v221l-8 25l24 172v1085h203v-674l24 -303l-8 -10l-16 -291h311l19 25v1253zM662 1681v-114l-113 -101h-156l-114 101v114l30 66l53 47l70 27h78l70 -27l51 -47zM592 1595v97l-74 65h-98l-72 -63v-99l72 -63h100z" />
    <glyph glyph-name="uring" unicode="&#x16f;" horiz-adv-x="974" 
d="M625 1497h256l-15 -94v-1397h-624l-166 -12v221l-8 25l24 172v1085h203v-674l24 -303l-8 -10l-16 -291h311l19 25v1253zM662 1681v-114l-113 -101h-156l-114 101v114l30 66l53 47l70 27h78l70 -27l51 -47zM592 1595v97l-74 65h-98l-72 -63v-99l72 -63h100z" />
    <glyph glyph-name="Uhungarumlaut" unicode="&#x170;" horiz-adv-x="974" 
d="M625 1497h256l-15 -94v-1397h-624l-166 -12v221l-8 25l24 172v1085h203v-674l24 -303l-8 -10l-16 -291h311l19 25v1253zM659 1821l187 -2l-148 -236l-137 10zM332 1819h186l-147 -236l-138 10z" />
    <glyph glyph-name="uhungarumlaut" unicode="&#x171;" horiz-adv-x="974" 
d="M625 1497h256l-15 -94v-1397h-624l-166 -12v221l-8 25l24 172v1085h203v-674l24 -303l-8 -10l-16 -291h311l19 25v1253zM659 1821l187 -2l-148 -236l-137 10zM332 1819h186l-147 -236l-138 10z" />
    <glyph glyph-name="Uogonek" unicode="&#x172;" horiz-adv-x="974" 
d="M625 1497h256l-15 -94v-1397h-180l-278 -266l270 10l-25 -219l-284 16l-90 39l-9 209l297 211h-325l-166 -12v221l-8 25l24 172v1085h203v-674l24 -303l-8 -10l-16 -291h311l19 25v1253z" />
    <glyph glyph-name="uogonek" unicode="&#x173;" horiz-adv-x="974" 
d="M625 1497h256l-15 -94v-1397h-180l-278 -266l270 10l-25 -219l-284 16l-90 39l-9 209l297 211h-325l-166 -12v221l-8 25l24 172v1085h203v-674l24 -303l-8 -10l-16 -291h311l19 25v1253z" />
    <glyph glyph-name="Wcircumflex" unicode="&#x174;" horiz-adv-x="960" 
d="M860 1526l12 -27l-12 -69l4 -17v-254h-8v-209l-22 -55l-43 -457l-23 -112l12 -2l-51 -150l6 -22l-8 -138h-162l-26 19l2 45l-31 483l-25 -2l-82 -532l-10 -7h-164l-166 1516h199l-14 -20v-89l16 -41l-6 -14l18 -90l43 -405l156 630l66 -282l69 -369l11 -14l8 -2l69 686
h162zM670 1821l92 -209h-215l-70 145l-67 -145h-211l65 209h406z" />
    <glyph glyph-name="wcircumflex" unicode="&#x175;" horiz-adv-x="960" 
d="M860 1526l12 -27l-12 -69l4 -17v-254h-8v-209l-22 -55l-43 -457l-23 -112l12 -2l-51 -150l6 -22l-8 -138h-162l-26 19l2 45l-31 483l-25 -2l-82 -532l-10 -7h-164l-166 1516h199l-14 -20v-89l16 -41l-6 -14l18 -90l43 -405l156 630l66 -282l69 -369l11 -14l8 -2l69 686
h162zM670 1821l92 -209h-215l-70 145l-67 -145h-211l65 209h406z" />
    <glyph glyph-name="Ycircumflex" unicode="&#x176;" horiz-adv-x="849" 
d="M551 1530h240l-164 -379l-76 -242l-8 -75v-392l8 -36l-25 -19l6 -18v-328h-233v795l-12 82l-43 145l-193 485h238l135 -461zM614 1821l93 -209h-215l-70 145l-68 -145h-211l66 209h405z" />
    <glyph glyph-name="ycircumflex" unicode="&#x177;" horiz-adv-x="849" 
d="M551 1530h240l-164 -379l-76 -242l-8 -75v-392l8 -36l-25 -19l6 -18v-328h-233v795l-12 82l-43 145l-193 485h238l135 -461zM614 1821l93 -209h-215l-70 145l-68 -145h-211l66 209h405z" />
    <glyph glyph-name="Ydieresis" unicode="&#x178;" horiz-adv-x="849" 
d="M551 1530h240l-164 -379l-76 -242l-8 -75v-392l8 -36l-25 -19l6 -18v-328h-233v795l-12 82l-43 145l-193 485h238l135 -461zM324 1745l16 -164h-203v195h178zM711 1784v-211l-37 10l-144 -10v211h181z" />
    <glyph glyph-name="Zacute" unicode="&#x179;" horiz-adv-x="870" 
d="M811 1470v-155l-74 -92l-6 -43l-440 -949h514v-231h-111l-18 12l-96 -6h-496l-14 209l116 215l2 29l48 102l36 60l119 251l-6 19l31 39l4 45l135 301h-485l-23 233h758zM406 1829l194 -21l-10 -22l-139 -152l-41 -10h-142z" />
    <glyph glyph-name="zacute" unicode="&#x17a;" horiz-adv-x="870" 
d="M811 1470v-155l-74 -92l-6 -43l-440 -949h514v-231h-111l-18 12l-96 -6h-496l-14 209l116 215l2 29l48 102l36 60l119 251l-6 19l31 39l4 45l135 301h-485l-23 233h758zM406 1829l194 -21l-10 -22l-139 -152l-41 -10h-142z" />
    <glyph glyph-name="Zdotaccent" unicode="&#x17b;" horiz-adv-x="870" 
d="M811 1470v-155l-74 -92l-6 -43l-440 -949h514v-231h-111l-18 12l-96 -6h-496l-14 209l116 215l2 29l48 102l36 60l119 251l-6 19l31 39l4 45l135 301h-485l-23 233h758zM520 1774l17 -162h-203v194h178z" />
    <glyph glyph-name="zdotaccent" unicode="&#x17c;" horiz-adv-x="870" 
d="M811 1470v-155l-74 -92l-6 -43l-440 -949h514v-231h-111l-18 12l-96 -6h-496l-14 209l116 215l2 29l48 102l36 60l119 251l-6 19l31 39l4 45l135 301h-485l-23 233h758zM520 1774l17 -162h-203v194h178z" />
    <glyph glyph-name="Zcaron" unicode="&#x17d;" horiz-adv-x="870" 
d="M811 1470v-155l-74 -92l-6 -43l-440 -949h514v-231h-111l-18 12l-96 -6h-496l-14 209l116 215l2 29l48 102l36 60l119 251l-6 19l31 39l4 45l135 301h-485l-23 233h758zM246 1581l-92 209h215l69 -145l68 145h211l-66 -209h-405z" />
    <glyph glyph-name="zcaron" unicode="&#x17e;" horiz-adv-x="829" 
d="M772 264l23 -233h-756l-4 28v166l61 84l17 51l438 949h-512v231h111l18 -12l96 6h508v-209l-115 -213l-2 -31l-49 -104l-35 -57l-120 -250l6 -21l-29 -39l-10 -59l-131 -287h485zM225 1612l-92 209h215l70 -146l67 146h211l-65 -209h-406z" />
    <glyph glyph-name="florin" unicode="&#x192;" horiz-adv-x="839" 
d="M748 862l-5 -213l-69 10h-70l-74 -10l-63 -491l18 -8l-12 -29l-27 -109l-24 -184l-12 -8l-9 -47l-4 -41l-12 -4h-266l-68 -25l-22 12h-9v236h211l91 690h-97l-53 -25l-18 13h-7v223h203l76 571l31 97h260l104 12v-236h-215l-8 -141l-41 -303h109z" />
    <glyph glyph-name="Scommaaccent" unicode="&#x218;" horiz-adv-x="960" 
d="M893 301l6 -4l-29 -135v-49l17 -27l-8 -70l-154 9l-20 -5h-592l-15 43l-14 130v438l8 12l86 4h133v-96l15 -21l-13 -10v-186l-6 -17l10 -88h359l-23 365l-575 274v641h323l11 9l34 -5l9 -8l65 13l10 -13l64 17l33 -2l6 -11l155 13l11 -13l47 -14l8 -90l-12 -6l24 -35v-57
l-8 -15l14 -26v-353l-206 19l-19 65v275l-37 4l-96 -6h-225v-80l12 -21l-8 -22v-49l8 -8l-6 -19v-43l27 -20l473 -246v-17l92 -40v-15l-10 -6l12 -293l-12 -59l14 -8zM616 -195v-30l-2 -25l-51 -219l-168 16l-53 269v20l31 47l43 41l49 27h47l47 -31l37 -51z" />
    <glyph glyph-name="scommaaccent" unicode="&#x219;" horiz-adv-x="960" 
d="M893 301l6 -4l-29 -135v-49l17 -27l-8 -70l-154 9l-20 -5h-592l-15 43l-14 130v438l8 12l86 4h133v-96l15 -21l-13 -10v-186l-6 -17l10 -88h359l-23 365l-575 274v641h323l11 9l34 -5l9 -8l65 13l10 -13l64 17l33 -2l6 -11l155 13l11 -13l47 -14l8 -90l-12 -6l24 -35v-57
l-8 -15l14 -26v-353l-206 19l-19 65v275l-37 4l-96 -6h-225v-80l12 -21l-8 -22v-49l8 -8l-6 -19v-43l27 -20l473 -246v-17l92 -40v-15l-10 -6l12 -293l-12 -59l14 -8zM616 -195v-30l-2 -25l-51 -219l-168 16l-53 269v20l31 47l43 41l49 27h47l47 -31l37 -51z" />
    <glyph glyph-name="uni021A" unicode="&#x21a;" horiz-adv-x="950" 
d="M903 1419v-168h-311v-1271l-162 14l-37 -17l-39 3v432l-4 18l8 12l-16 183l-8 10l20 49v567h-309v254h854v-47l-6 -18zM592 -195v-30l-2 -25l-51 -219l-168 16l-54 269v20l31 47l43 41l49 27h47l48 -31l36 -51z" />
    <glyph glyph-name="uni021B" unicode="&#x21b;" horiz-adv-x="950" 
d="M903 1419v-168h-311v-1271l-162 14l-37 -17l-39 3v432l-4 18l8 12l-16 183l-8 10l20 49v567h-309v254h854v-47l-6 -18zM592 -195v-30l-2 -25l-51 -219l-168 16l-54 269v20l31 47l43 41l49 27h47l48 -31l36 -51z" />
    <glyph glyph-name="circumflex" unicode="&#x2c6;" horiz-adv-x="645" 
d="M512 1821l92 -209h-215l-70 145l-67 -145h-211l65 209h406z" />
    <glyph glyph-name="caron" unicode="&#x2c7;" horiz-adv-x="645" 
d="M131 1612l-92 209h215l70 -146l67 146h211l-65 -209h-406z" />
    <glyph glyph-name="breve" unicode="&#x2d8;" horiz-adv-x="645" 
d="M-12 1671l10 150l201 -11l-31 -96l117 -31l86 11l8 116l182 11l-12 -150l-53 -59h-406z" />
    <glyph glyph-name="dotaccent" unicode="&#x2d9;" horiz-adv-x="360" 
d="M268 1774l17 -162h-203v194h178z" />
    <glyph glyph-name="ring" unicode="&#x2da;" horiz-adv-x="464" 
d="M424 1681v-114l-113 -101h-155l-115 101v114l31 66l53 47l70 27h77l70 -27l51 -47zM354 1595v97l-73 65h-99l-71 -63v-99l71 -63h101z" />
    <glyph glyph-name="ogonek" unicode="&#x2db;" horiz-adv-x="524" 
d="M502 23l-297 -283l270 10l-24 -219l-285 16l-90 39l-8 209l315 223z" />
    <glyph glyph-name="tilde" unicode="&#x2dc;" horiz-adv-x="727" 
d="M514 1843h172l-20 -221h-314l-123 139l-28 -131l-160 -12l27 219h305l129 -127z" />
    <glyph glyph-name="hungarumlaut" unicode="&#x2dd;" horiz-adv-x="645" 
d="M438 1821l187 -2l-148 -236l-137 10zM111 1819h186l-147 -236l-138 10z" />
    <glyph glyph-name="Delta" unicode="&#x394;" horiz-adv-x="937" 
d="M66 25l-7 112l43 187l-6 67l45 258v37l88 504l11 22l-13 15l23 76l26 155l5 78h333l64 -360v-76l63 -264l11 -17l108 -794h-794zM442 1286l-178 -1012h66l14 -10l2 -12l264 10l-55 352l-4 99l-31 51z" />
    <glyph glyph-name="Omega" unicode="&#x3a9;" horiz-adv-x="921" 
d="M840 756l6 -185l-111 -340h187v-231h-111l-18 12l-97 -6h-168l-14 209l100 356v420l-16 6l14 23v211l6 61h-329l10 -123v-358l12 -14l-4 -9l-14 -8l31 -18l-35 -29l22 -131l117 -381l-8 -209l-127 -12l-92 -20l-76 20l-100 6v232l176 -7l-125 340v467l12 66v129l-16 295
h712l35 -19v-301l21 -28l-15 -179l17 -10l-8 -110l18 -115z" />
    <glyph glyph-name="mu" unicode="&#x3bc;" horiz-adv-x="989" 
d="M895 -10l-268 10l-195 -12h-59l-4 -4l6 -37v-17l18 -8l-18 -18v-15l12 -8l-12 -18v-170l-13 -15h-231l-41 54l-16 37l24 20v57l-18 13l24 49l-16 481l10 6l-8 17v153l10 64v217l-14 78l12 12h262l46 -574l-13 -6l2 -34l-8 -7l16 -34l142 8l94 16l-8 35v397l-10 199h249
l15 -55v-86l-13 -27l9 -61l28 -123l-10 -4l-8 -13l22 -166l9 -12l-2 -14l-11 -13z" />
    <glyph glyph-name="pi" unicode="&#x3c0;" horiz-adv-x="905" 
d="M94 8l2 522l-24 330l24 53h371l6 -6h307l56 11v-619l-13 -14l19 -295l-242 18v692h-315l6 -141v-557h-133z" />
    <glyph glyph-name="Wgrave" unicode="&#x1e80;" horiz-adv-x="960" 
d="M860 1526l12 -27l-12 -69l4 -17v-254h-8v-209l-22 -55l-43 -457l-23 -112l12 -2l-51 -150l6 -22l-8 -138h-162l-26 19l2 45l-31 483l-25 -2l-82 -532l-10 -7h-164l-166 1516h199l-14 -20v-89l16 -41l-6 -14l18 -90l43 -405l156 630l66 -282l69 -369l11 -14l8 -2l69 686
h162zM449 1829l139 -205h-142l-40 10l-64 64l-86 110z" />
    <glyph glyph-name="wgrave" unicode="&#x1e81;" horiz-adv-x="960" 
d="M860 1526l12 -27l-12 -69l4 -17v-254h-8v-209l-22 -55l-43 -457l-23 -112l12 -2l-51 -150l6 -22l-8 -138h-162l-26 19l2 45l-31 483l-25 -2l-82 -532l-10 -7h-164l-166 1516h199l-14 -20v-89l16 -41l-6 -14l18 -90l43 -405l156 630l66 -282l69 -369l11 -14l8 -2l69 686
h162zM449 1829l139 -205h-142l-40 10l-64 64l-86 110z" />
    <glyph glyph-name="Wacute" unicode="&#x1e82;" horiz-adv-x="960" 
d="M860 1526l12 -27l-12 -69l4 -17v-254h-8v-209l-22 -55l-43 -457l-23 -112l12 -2l-51 -150l6 -22l-8 -138h-162l-26 19l2 45l-31 483l-25 -2l-82 -532l-10 -7h-164l-166 1516h199l-14 -20v-89l16 -41l-6 -14l18 -90l43 -405l156 630l66 -282l69 -369l11 -14l8 -2l69 686
h162zM496 1829l194 -21l-10 -22l-139 -152l-41 -10h-142z" />
    <glyph glyph-name="wacute" unicode="&#x1e83;" horiz-adv-x="960" 
d="M860 1526l12 -27l-12 -69l4 -17v-254h-8v-209l-22 -55l-43 -457l-23 -112l12 -2l-51 -150l6 -22l-8 -138h-162l-26 19l2 45l-31 483l-25 -2l-82 -532l-10 -7h-164l-166 1516h199l-14 -20v-89l16 -41l-6 -14l18 -90l43 -405l156 630l66 -282l69 -369l11 -14l8 -2l69 686
h162zM496 1829l194 -21l-10 -22l-139 -152l-41 -10h-142z" />
    <glyph glyph-name="Wdieresis" unicode="&#x1e84;" horiz-adv-x="960" 
d="M860 1526l12 -27l-12 -69l4 -17v-254h-8v-209l-22 -55l-43 -457l-23 -112l12 -2l-51 -150l6 -22l-8 -138h-162l-26 19l2 45l-31 483l-25 -2l-82 -532l-10 -7h-164l-166 1516h199l-14 -20v-89l16 -41l-6 -14l18 -90l43 -405l156 630l66 -282l69 -369l11 -14l8 -2l69 686
h162zM379 1776l16 -164h-202v194h178zM766 1815v-211l-37 10l-143 -10v211h180z" />
    <glyph glyph-name="wdieresis" unicode="&#x1e85;" horiz-adv-x="960" 
d="M860 1526l12 -27l-12 -69l4 -17v-254h-8v-209l-22 -55l-43 -457l-23 -112l12 -2l-51 -150l6 -22l-8 -138h-162l-26 19l2 45l-31 483l-25 -2l-82 -532l-10 -7h-164l-166 1516h199l-14 -20v-89l16 -41l-6 -14l18 -90l43 -405l156 630l66 -282l69 -369l11 -14l8 -2l69 686
h162zM379 1776l16 -164h-202v194h178zM766 1815v-211l-37 10l-143 -10v211h180z" />
    <glyph glyph-name="Ygrave" unicode="&#x1ef2;" horiz-adv-x="849" 
d="M551 1530h240l-164 -379l-76 -242l-8 -75v-392l8 -36l-25 -19l6 -18v-328h-233v795l-12 82l-43 145l-193 485h238l135 -461zM399 1829l140 -205h-142l-41 10l-63 64l-86 110z" />
    <glyph glyph-name="ygrave" unicode="&#x1ef3;" horiz-adv-x="849" 
d="M551 1530h240l-164 -379l-76 -242l-8 -75v-392l8 -36l-25 -19l6 -18v-328h-233v795l-12 82l-43 145l-193 485h238l135 -461zM399 1829l140 -205h-142l-41 10l-63 64l-86 110z" />
    <glyph glyph-name="endash" unicode="&#x2013;" horiz-adv-x="1091" 
d="M1028 877v-236l-59 21h-90l-170 -21h-523l-65 -25l-23 13h-14v235h840z" />
    <glyph glyph-name="emdash" unicode="&#x2014;" horiz-adv-x="1323" 
d="M1233 877v-236l-59 21h-91l-170 -21h-727l-65 -25l-23 13h-14v235h1044z" />
    <glyph glyph-name="quoteleft" unicode="&#x2018;" horiz-adv-x="380" 
d="M315 1460v-20l-53 -269l-168 -16l-51 219l-2 56l20 63l37 49l47 33h43l52 -27l45 -41z" />
    <glyph glyph-name="quoteright" unicode="&#x2019;" horiz-adv-x="368" 
d="M324 1423v-30l-2 -25l-52 -219l-168 16l-53 269v20l31 47l43 41l49 27h47l47 -31l37 -51z" />
    <glyph glyph-name="quotesinglbase" unicode="&#x201a;" horiz-adv-x="440" 
d="M365 236v-31l-3 -25l-51 -219l-168 16l-53 269v20l31 47l43 41l49 27h47l47 -31l37 -51z" />
    <glyph glyph-name="quotedblleft" unicode="&#x201c;" horiz-adv-x="694" 
d="M623 1466v-20l-54 -268l-168 -17l-51 219l-2 56l21 63l37 49l47 33h43l51 -27l45 -41zM336 1466v-20l-53 -268l-168 -17l-52 219l-2 56l21 63l37 49l47 33h43l51 -27l45 -41z" />
    <glyph glyph-name="quotedblright" unicode="&#x201d;" horiz-adv-x="675" 
d="M324 1423v-30l-2 -25l-52 -219l-168 16l-53 269v20l31 47l43 41l49 27h47l47 -31l37 -51zM631 1423v-30l-2 -25l-51 -219l-168 16l-54 269v20l31 47l43 41l49 27h47l47 -31l37 -51z" />
    <glyph glyph-name="quotedblbase" unicode="&#x201e;" horiz-adv-x="880" 
d="M365 236v-31l-3 -25l-51 -219l-168 16l-53 269v20l31 47l43 41l49 27h47l47 -31l37 -51zM805 236v-31l-2 -25l-51 -219l-168 16l-54 269v20l31 47l43 41l49 27h47l48 -31l36 -51z" />
    <glyph glyph-name="dagger" unicode="&#x2020;" horiz-adv-x="1013" 
d="M672 438h-324v305h-182l-4 27l37 41l-6 16l40 58v8l269 340l76 6l124 -235v-17l58 -59l8 -4l94 -183h-205v-243z" />
    <glyph glyph-name="daggerdbl" unicode="&#x2021;" horiz-adv-x="1013" 
d="M338 1061h326v-309h180l-17 -84l-317 -404h-74l-127 223l-2 27l-55 61l-10 3l-107 184h205l25 242z" />
    <glyph glyph-name="bullet" unicode="&#x2022;" horiz-adv-x="829" 
d="M698 762v-174l-178 -135h-160l-186 151l-51 115v94l156 188l106 56h96l103 -68l71 -100z" />
    <glyph glyph-name="ellipsis" unicode="&#x2026;" horiz-adv-x="1554" 
d="M379 180v-84l-86 -65h-78l-49 28l-41 45l-25 56v45l31 49l45 43l51 27h47l50 -33l34 -49zM922 190v-84l-86 -65h-78l-49 29l-41 45l-25 55v45l31 49l45 43l51 27h47l49 -33l35 -49zM1423 201v-84l-86 -66h-77l-50 29l-41 45l-24 55v45l31 49l45 43l51 27h47l49 -33
l35 -49z" />
    <glyph glyph-name="perthousand" unicode="&#x2030;" horiz-adv-x="2107" 
d="M561 784l-76 -96h-299l-16 29l-4 22l-23 9l-26 22v641l-15 47l41 45l9 17l2 22h309l80 -94v-363l12 -258zM244 838h190v125l-26 237v201h-177l13 -309v-254zM1214 1481l-12 -51l-39 -70l-76 -117l-28 -61l-686 -1143h-193l230 393l2 23l24 22l8 47l25 2l12 39l-6 10
l19 11l4 41l18 -4l121 235l27 16l-2 19l14 16l2 13l18 10l2 16l11 8l4 21l20 18l43 80l-2 17l174 258l-2 24l21 4l4 31l18 6l25 66h200zM1346 143l-76 -96h-299l-17 29l-4 22l-22 8l-27 23v641l-14 47l41 45l8 17l2 22h309l80 -94v-363l12 -258zM1028 197h191v125l-27 237
v201h-176l12 -309v-254zM1845 90l-76 -96h-299l-16 29l-4 22l-23 8l-26 23v641l-15 47l41 45l9 16l2 23h309l80 -94v-363l12 -258zM1528 143h190v125l-26 238v201h-176l12 -310v-254z" />
    <glyph glyph-name="guilsinglleft" unicode="&#x2039;" horiz-adv-x="499" 
d="M354 1047l35 -9l-10 -180l-107 -88l-16 -39l127 -100l12 -166l-35 -21l-108 142l-23 -2l2 24l-139 140z" />
    <glyph glyph-name="guilsinglright" unicode="&#x203a;" horiz-adv-x="491" 
d="M131 459l-35 -2l10 174l136 98l-21 47l-131 92v162l45 8l111 -114l139 -185l-106 -114l-27 -45l-49 -37z" />
    <glyph glyph-name="fraction" unicode="&#x2044;" horiz-adv-x="268" 
d="M653 1479l-12 -52l-39 -69l-76 -117l-28 -61l-686 -1143h-193l229 393l2 23l25 22l8 47l25 2l12 39l-6 10l18 11l5 41l18 -4l121 235l26 16l-2 19l15 16l2 13l18 10l2 16l10 8l5 21l20 18l43 80l-2 17l174 258l-2 24l21 4l4 31l18 6l25 66h200z" />
    <glyph glyph-name="zerosuperior" unicode="&#x2070;" horiz-adv-x="585" 
d="M520 784l-76 -96h-299l-16 29l-4 22l-23 9l-26 22v641l-15 47l41 45l9 17l2 22h309l80 -94v-363l12 -258zM203 838h190v125l-26 237v201h-177l13 -309v-254z" />
    <glyph glyph-name="foursuperior" unicode="&#x2074;" horiz-adv-x="555" 
d="M500 946v-125h-78l-4 -90l10 -24l-57 -7h-84v29l6 86h-92l-146 -22v211l211 505h146l-9 -34v-297l23 -224h51zM188 946h93v172l-11 8l4 45z" />
    <glyph glyph-name="fivesuperior" unicode="&#x2075;" horiz-adv-x="585" 
d="M520 956v-106l-2 -41l-61 -113h-285l-76 86l-12 111v145l4 29l107 -6l41 16v-223l12 -4h100l21 6l2 8l-15 8v306l-10 12h-125l-26 -6l-78 8l-39 -4l-21 340l17 2l10 -6l6 12l49 -4l17 8l47 -4l96 2l12 -6l47 14h131l17 -18v-27l-8 -10l4 -113l-94 8h-125l-70 -12l6 -51
l17 -2l4 12l14 -8h143l62 16v-28l57 -49l-6 -23v-74l8 -18l-6 -8l6 2v-166l-10 -12z" />
    <glyph glyph-name="sixsuperior" unicode="&#x2076;" horiz-adv-x="598" 
d="M535 1124l-7 -352l-20 -12l-49 -76l-72 4h-250l-20 33l-2 14l-31 15l-8 26l-4 82l4 16l-6 27v557l-4 17l28 10v14l19 10v13l14 2l25 35l88 -7h198l4 -16l15 -6l6 -12l51 -37v-35l8 -29v-31l-6 -12l12 -33v-127l-149 21v139l4 33l-27 6h-151l6 -10l-4 -21l10 -194h283
l-8 -17l2 -16zM219 834h176l-16 172l6 32h-166v-204z" />
    <glyph glyph-name="sevensuperior" unicode="&#x2077;" horiz-adv-x="602" 
d="M537 1552v-6l-13 -96l-14 -27l2 -37l-25 -165l-26 -109l2 -31l-12 -14l-23 -125l-18 -57l4 -13l32 -10l-45 -8l-22 -119l2 -41h-133l-4 25l16 82v39l70 424l41 155l-66 -10l-112 -8l-138 4l4 102l-8 56h484z" />
    <glyph glyph-name="eightsuperior" unicode="&#x2078;" horiz-adv-x="583" 
d="M510 854l6 -68l-51 -59v-25h-309l-80 95v307l71 43l-18 12l-16 2l-54 23v274l74 96h299l21 -49h-2l16 -4l35 -26v-265l12 -4l-4 -49l-74 -41l15 -8l59 -8v-246zM205 1200h166v207h-187l13 -209zM266 846h121l-10 78v123h-180l10 -46v-159z" />
    <glyph glyph-name="ninesuperior" unicode="&#x2079;" horiz-adv-x="598" 
d="M528 801l2 -6l-57 -86h-6l6 -21l-80 8h-229l-80 64v129l-10 94l63 12h35l8 13l8 -4l27 4l12 -78v-45l-8 -41h176l-8 39l-10 170h-182l-56 -9l-12 11v12l-53 37v282l-11 89l78 86l64 -5h233l19 -2l55 -69v-80l12 -105l4 -202l-2 -29v-108l-6 -21l8 -29v-110zM385 1204
l-12 211h-162l6 -43l-10 -8l6 -8l-4 -4l12 -9l-6 -28v-117l21 6h149z" />
    <glyph glyph-name="zeroinferior" unicode="&#x2080;" horiz-adv-x="585" 
d="M520 84l-76 -96h-299l-16 28l-4 23l-23 8l-26 23v641l-15 47l41 45l9 16l2 23h309l80 -94v-363l12 -258zM203 137h190v125l-26 238v200h-177l13 -309v-254z" />
    <glyph glyph-name="oneinferior" unicode="&#x2081;" horiz-adv-x="403" 
d="M313 559l6 -20l-8 -27l6 -193v-186l-8 -133l-110 4l-27 -6v465l-14 6l8 16l-2 9l-21 20l17 2l-2 16v33l-43 -22l-15 2l-32 -25v236l73 71l4 25l29 8h80l55 -8v-174l8 -6v-23l-10 -6l4 -27l2 -26l-8 10z" />
    <glyph glyph-name="twoinferior" unicode="&#x2082;" horiz-adv-x="544" 
d="M494 16h-424l-9 142l11 20l139 113l115 121l-9 125v137l-14 14h-94l-10 -4l-2 -88l14 -147l-4 -39l2 -91l-72 -2l-78 -20l-20 463l16 10l41 74l156 -4l14 6l90 -6l21 6l59 -41l6 -14l19 -19v-135l-4 -21l16 -6l-10 -20v-164l6 -121l-129 -84l-12 -2l-2 -12l-66 -45h213
v-80z" />
    <glyph glyph-name="threeinferior" unicode="&#x2083;" horiz-adv-x="575" 
d="M502 170l6 -41v-39l-62 -84l-47 4h-235l-27 17l-57 51v237l139 -16l-4 -61l4 -15l2 -73l10 -11l19 -6l115 6v121l-11 94l-22 8h-92l-62 -16v168l45 -12l125 10l6 8l-14 174l-8 6h-125l-6 -12l6 -22l6 -119l-55 4l-95 -27v189l-12 41l62 84h297l24 -29l41 -31l14 -2
l-6 -43l15 -241l-60 -39l19 -29l41 -23v-108l10 -21z" />
    <glyph glyph-name="fourinferior" unicode="&#x2084;" horiz-adv-x="555" 
d="M500 246v-125h-78l-4 -90l10 -25l-57 -6h-84v29l6 86h-92l-146 -23v211l211 506h146l-9 -35v-297l23 -223h51zM188 246h93v172l-11 8l4 45z" />
    <glyph glyph-name="fiveinferior" unicode="&#x2085;" horiz-adv-x="585" 
d="M520 256v-106l-2 -41l-61 -113h-285l-76 86l-12 111v145l4 29l107 -7l41 17v-223l12 -4h100l21 6l2 8l-15 8v305l-10 12h-125l-26 -6l-78 9l-39 -5l-21 340l17 2l10 -6l6 13l49 -5l17 9l47 -4l96 2l12 -7l47 15h131l17 -19v-26l-8 -10l4 -113l-94 8h-125l-70 -12l6 -51
l17 -2l4 12l14 -8h143l62 16v-29l57 -49l-6 -22v-74l8 -18l-6 -9l6 2v-166l-10 -12z" />
    <glyph glyph-name="sixinferior" unicode="&#x2086;" horiz-adv-x="598" 
d="M535 424l-7 -352l-20 -13l-49 -75l-72 4h-250l-20 32l-2 15l-31 14l-8 27l-4 82l4 16l-6 27v557l-4 16l28 10v15l19 10v12l14 2l25 35l88 -6h198l4 -16l15 -7l6 -12l51 -37v-35l8 -28v-31l-6 -12l12 -33v-127l-149 21v139l4 33l-27 6h-151l6 -11l-4 -20l10 -195h283
l-8 -16l2 -16zM219 133h176l-16 172l6 33h-166v-205z" />
    <glyph glyph-name="seveninferior" unicode="&#x2087;" horiz-adv-x="602" 
d="M537 852v-6l-13 -96l-14 -27l2 -37l-25 -166l-26 -108l2 -31l-12 -14l-23 -125l-18 -58l4 -12l32 -10l-45 -8l-22 -119l2 -41h-133l-4 24l16 82v39l70 424l41 156l-66 -10l-112 -9l-138 5l4 102l-8 55h484z" />
    <glyph glyph-name="eightinferior" unicode="&#x2088;" horiz-adv-x="583" 
d="M510 154l6 -68l-51 -59v-25h-309l-80 94v307l71 43l-18 13l-16 2l-54 22v275l74 96h299l21 -49h-2l16 -4l35 -27v-264l12 -4l-4 -49l-74 -41l15 -8l59 -9v-245zM205 500h166v207h-187l13 -209zM266 145h121l-10 78v123h-180l10 -45v-160z" />
    <glyph glyph-name="nineinferior" unicode="&#x2089;" horiz-adv-x="598" 
d="M528 100l2 -6l-57 -86h-6l6 -20l-80 8h-229l-80 63v129l-10 95l63 12h35l8 12l8 -4l27 4l12 -78v-45l-8 -41h176l-8 39l-10 170h-182l-56 -8l-12 10v13l-53 36v283l-11 88l78 86l64 -4h233l19 -2l55 -70v-79l12 -105l4 -203l-2 -28v-109l-6 -20l8 -29v-111zM385 504
l-12 211h-162l6 -43l-10 -8l6 -9l-4 -4l12 -8l-6 -29v-116l21 6h149z" />
    <glyph glyph-name="Euro" unicode="&#x20ac;" horiz-adv-x="841" 
d="M367 1016l69 6h209l-37 -199h-246v-88h230l-35 -194h-195v-92l-10 -11l17 -16l-13 -35v-35l13 -6l-7 -82l68 -10h262l94 -8v-199l-84 6h-444l-86 -4l-12 88l-17 201v172l-4 18l-63 -4l-29 11v200h86v88h-94v193h115v145l-25 29l14 12v344h598l-36 -205h-359v-108z" />
    <glyph glyph-name="uni2117" unicode="&#x2117;" horiz-adv-x="1492" 
d="M1415 991l4 -1001l-401 22l-6 -12h-740l-166 8l-30 402v628l12 66v43l-12 12l14 37v14l-14 9l12 14l-16 295h1286l35 -19v-301l20 -28l-2 -25l-16 -47l12 -10l-8 -97zM1260 334v37l-7 131l-16 30v484l-18 6l16 27v233l6 68h-999l8 -138l-8 -16l10 -6v-10l-12 -21l12 -45
v-754l20 -24v-51l-10 -105l6 -12h983v129l-4 27zM453 322l-17 890h594v-28l41 -295l-14 -12h-451l25 -267v-184l-10 -111h-154zM600 997h289v80h-289l8 -37v-26z" />
    <glyph glyph-name="trademark" unicode="&#x2122;" horiz-adv-x="1400" 
d="M1286 1126l-16 -600h-160v400l10 174l-63 -234l-31 -86l-22 6l-21 82l-92 258l10 -233v-231l-18 -146h-125l-25 84v930l33 63l100 4l119 -262l23 -88l104 346h141zM662 1585v-180h-222v-879h-168v879h-219v180h609z" />
    <glyph glyph-name="onethird" unicode="&#x2153;" horiz-adv-x="1329" 
d="M354 1260l6 -21l-8 -27l6 -192v-186l-8 -134l-110 5l-27 -7v465l-14 6l8 17l-2 8l-21 20l17 3l-2 16v33l-43 -23l-15 2l-32 -24v235l73 72l4 24l29 9h80l55 -9v-174l8 -6v-22l-10 -7l4 -26l2 -27l-8 10zM1098 1479l-13 -52l-38 -69l-76 -117l-29 -61l-686 -1143h-193
l230 393l2 23l24 22l9 47l24 2l13 39l-7 10l19 11l4 41l18 -4l121 235l27 16l-2 19l14 16l2 13l19 10l2 16l10 8l4 21l20 18l43 80l-2 17l174 258l-2 24l21 4l4 31l18 6l25 66h201zM1214 170l7 -41v-39l-62 -84l-47 4h-235l-27 17l-57 51v237l139 -16l-4 -61l4 -15l2 -73
l10 -11l19 -6l114 6v121l-10 94l-23 8h-92l-61 -16v168l45 -12l125 10l6 8l-14 174l-9 6h-124l-7 -12l7 -22l6 -119l-56 4l-94 -27v189l-12 41l61 84h297l25 -29l41 -31l14 -2l-6 -43l14 -241l-59 -39l18 -29l41 -23v-108l11 -21z" />
    <glyph glyph-name="twothirds" unicode="&#x2154;" horiz-adv-x="1470" 
d="M535 717h-424l-9 141l11 21l139 112l115 121l-9 125v137l-14 15h-94l-10 -5l-2 -88l14 -147l-4 -39l2 -90l-72 -2l-78 -21l-20 463l16 10l41 74l156 -4l14 6l90 -6l21 6l59 -41l6 -14l19 -18v-136l-4 -20l16 -6l-10 -21v-164l6 -120l-129 -84l-12 -2l-2 -13l-66 -45h213
v-80zM1239 1479l-12 -52l-39 -69l-76 -117l-29 -61l-686 -1143h-192l229 393l2 23l25 22l8 47l25 2l12 39l-6 10l18 11l4 41l19 -4l121 235l26 16l-2 19l14 16l2 13l19 10l2 16l10 8l4 21l21 18l43 80l-2 17l174 258l-2 24l20 4l4 31l19 6l24 66h201zM1356 170l6 -41v-39
l-62 -84l-47 4h-235l-27 17l-57 51v237l139 -16l-4 -61l4 -15l2 -73l10 -11l19 -6l115 6v121l-11 94l-22 8h-92l-62 -16v168l45 -12l125 10l6 8l-14 174l-8 6h-125l-6 -12l6 -22l6 -119l-55 4l-94 -27v189l-13 41l62 84h297l24 -29l41 -31l14 -2l-6 -43l15 -241l-60 -39
l19 -29l41 -23v-108l10 -21z" />
    <glyph glyph-name="oneeighth" unicode="&#x215b;" horiz-adv-x="1337" 
d="M354 1260l6 -21l-8 -27l6 -192v-186l-8 -134l-110 5l-27 -7v465l-14 6l8 17l-2 8l-21 20l17 3l-2 16v33l-43 -23l-15 2l-32 -24v235l73 72l4 24l29 9h80l55 -9v-174l8 -6v-22l-10 -7l4 -26l2 -27l-8 10zM1098 1479l-13 -52l-38 -69l-76 -117l-29 -61l-686 -1143h-193
l230 393l2 23l24 22l9 47l24 2l13 39l-7 10l19 11l4 41l18 -4l121 235l27 16l-2 19l14 16l2 13l19 10l2 16l10 8l4 21l20 18l43 80l-2 17l174 258l-2 24l21 4l4 31l18 6l25 66h201zM1223 154l6 -68l-51 -59v-25h-310l-80 94v307l72 43l-18 13l-17 2l-53 22v275l74 96h299
l20 -49h-2l17 -4l34 -27v-264l13 -4l-4 -49l-74 -41l14 -8l60 -9v-245zM918 500h165v207h-186l12 -209zM979 145h121l-10 78v123h-181l11 -45v-160z" />
    <glyph glyph-name="threeeighths" unicode="&#x215c;" horiz-adv-x="1509" 
d="M543 870l6 -41v-38l-62 -84l-47 4h-235l-27 16l-57 51v238l139 -17l-4 -61l4 -14l2 -74l10 -10l19 -6l115 6v121l-11 94l-22 8h-92l-62 -16v167l45 -12l125 10l6 9l-14 174l-8 6h-125l-6 -12l6 -23l6 -119l-55 4l-95 -26v188l-12 41l62 84h297l24 -29l41 -30l14 -2
l-6 -43l15 -242l-60 -39l19 -29l41 -22v-109l10 -20zM1212 1483l-12 -51l-39 -70l-76 -117l-28 -61l-686 -1143h-193l230 393l2 23l24 22l8 47l25 2l12 39l-6 11l19 10l4 41l18 -4l121 235l27 17l-3 18l15 16l2 13l18 10l2 16l11 8l4 21l20 18l43 80l-2 17l174 258l-2 24
l21 4l4 31l18 6l25 66h200zM1333 156l6 -68l-51 -59v-25h-309l-80 94v308l72 43l-19 12l-16 2l-53 22v275l73 96h299l21 -49h-2l16 -4l35 -27v-264l12 -4l-4 -49l-73 -41l14 -8l59 -9v-245zM1028 502h166v207h-186l12 -209zM1090 147h120l-10 78v123h-180l10 -45v-160z" />
    <glyph glyph-name="fiveeighths" unicode="&#x215d;" horiz-adv-x="1519" 
d="M561 956v-106l-2 -41l-61 -113h-285l-76 86l-12 111v145l4 29l107 -6l40 16v-223l13 -4h100l21 6l2 8l-15 8v306l-10 12h-125l-26 -6l-78 8l-39 -4l-21 340l17 2l10 -6l6 12l49 -4l17 8l47 -4l96 2l12 -6l47 14h131l17 -18v-27l-8 -10l4 -113l-94 8h-125l-70 -12l6 -51
l16 -2l5 12l14 -8h143l62 16v-28l57 -49l-6 -23v-74l8 -18l-6 -8l6 2v-166l-10 -12zM1227 1479l-13 -52l-38 -69l-76 -117l-29 -61l-686 -1143h-192l229 393l2 23l25 22l8 47l24 2l13 39l-7 10l19 11l4 41l18 -4l121 235l27 16l-2 19l14 16l2 13l19 10l2 16l10 8l4 21l20 18
l43 80l-2 17l175 258l-3 24l21 4l4 31l18 6l25 66h201zM1341 162l7 -68l-52 -59v-25h-309l-80 94v308l72 43l-18 12l-17 2l-53 23v274l74 96h299l20 -49h-2l16 -4l35 -27v-264l13 -4l-5 -49l-73 -41l14 -8l59 -8v-246zM1036 508h166v207h-186l12 -209zM1098 154h121l-11 77
v123h-180l10 -45v-159z" />
    <glyph glyph-name="seveneighths" unicode="&#x215e;" horiz-adv-x="1536" 
d="M578 1552v-6l-13 -96l-14 -27l2 -37l-25 -165l-26 -109l2 -31l-12 -14l-23 -125l-18 -57l4 -13l32 -10l-45 -8l-22 -119l2 -41h-133l-4 25l16 82v39l70 424l41 155l-66 -10l-113 -8l-137 4l4 102l-8 56h483zM1174 1485l-13 -51l-39 -70l-75 -117l-29 -61l-686 -1143h-193
l230 393l2 23l24 22l8 47l25 2l12 39l-6 11l19 10l4 41l18 -4l121 235l27 17l-2 18l14 16l2 13l18 10l2 16l11 9l4 20l20 18l43 80l-2 17l174 258l-2 24l21 4l4 31l18 6l25 66h201zM1315 164l6 -68l-51 -59v-25h-309l-80 94v308l71 43l-18 12l-16 2l-54 23v274l74 96h299
l20 -49h-2l17 -4l35 -27v-264l12 -4l-4 -49l-74 -41l14 -8l60 -8v-246zM1010 510h166v207h-187l12 -209zM1071 156h121l-10 77v123h-181l11 -45v-159z" />
    <glyph glyph-name="arrowleft" unicode="&#x2190;" horiz-adv-x="1013" 
d="M918 889v-324h-306v-182l-26 -4l-41 37l-17 -6l-57 41h-8l-340 268l-6 76l235 125h17l59 57l4 8l182 94v-205h244z" />
    <glyph glyph-name="arrowright" unicode="&#x2192;" horiz-adv-x="1013" 
d="M117 569v326h309v180l84 -16l403 -318v-73l-223 -127l-26 -2l-62 -56l-2 -10l-184 -106v204l-242 25z" />
    <glyph glyph-name="partialdiff" unicode="&#x2202;" horiz-adv-x="956" 
d="M197 227h284l86 412h-256l-16 -16l-4 -62zM27 147l118 617l70 57l8 47h400l92 375v29l14 12l4 27l-182 8l33 207l247 14l23 -63l12 -2l-4 -19l4 -6h17l2 -27l14 -20l12 -8l-168 -805l-14 -33h12l-45 -207l-18 -28l-37 -179l-25 -41l-41 -16l-6 -18l-28 -60h-33l-16 12
h-205l-203 -18l-39 137l-12 -2z" />
    <glyph glyph-name="product" unicode="&#x220f;" horiz-adv-x="974" 
d="M324 -293h-256l14 94v1684h625l165 12v-221l9 -25l-25 -172v-1372h-203v961l-24 303l8 10l16 291h-311l-18 -25v-1540z" />
    <glyph glyph-name="summation" unicode="&#x2211;" horiz-adv-x="870" 
d="M621 547l-295 -606h514v-232h-111l-18 12l-97 -6h-495l-15 209l117 215l2 29l47 102l37 60l115 217l-295 633l-6 43l-74 92v155l6 39h758l-23 -233h-485l236 -512l4 -45l30 -39l-6 -18z" />
    <glyph glyph-name="minus" unicode="&#x2212;" horiz-adv-x="886" 
d="M815 877v-236l-59 21h-109l-307 -25h-156l-26 -4l-45 -17l-23 13h-14v235h622z" />
    <glyph glyph-name="radical" unicode="&#x221a;" horiz-adv-x="937" 
d="M895 1526l6 -113l-43 -186l6 -68l-45 -258v-37l-88 -504l-10 -22l12 -14l-22 -76l-27 -156l-4 -78h-334l-63 361v76l-23 86l-172 -7l-41 31v205h297l80 -8l27 -43l67 -451l215 1262h162z" />
    <glyph glyph-name="infinity" unicode="&#x221e;" horiz-adv-x="1345" 
d="M924 1120h174l16 -6l90 -86h15v-512l-121 -131l-381 -16l-86 192l-90 -182l-363 -21l-123 119v504l105 117h295l133 -23l69 -194l103 227zM551 594v307h-320v-340h314l16 14zM1042 918l5 16l-109 -19h-199v-325l62 -10h252v208z" />
    <glyph glyph-name="integral" unicode="&#x222b;" horiz-adv-x="591" 
d="M578 1800v-235h-185l10 -142v-1265l21 -8l-10 -29l-13 -109v-184l-10 -8l-2 -47l2 -41l-12 -4h-268l-66 -25l-22 12h-15v236h187v1741l18 96h260z" />
    <glyph glyph-name="approxequal" unicode="&#x2248;" horiz-adv-x="956" 
d="M653 1116h215l15 -141l-29 -23l-12 -145h-393l-154 194l-35 -182l-201 -18l11 131l14 31l6 112l49 33h336l60 -84l36 -14l66 -80zM659 707h215l15 -142l-29 -22l-12 -146h-393l-154 195l-35 -182l-200 -19l10 131l14 31l6 113l49 32h336l60 -84l37 -14l65 -80z" />
    <glyph glyph-name="notequal" unicode="&#x2260;" horiz-adv-x="872" 
d="M817 1069v-246h-252l-53 -110h319v-236h-333l-101 -6l-123 -262h-176l113 250l-88 -6l-35 12v248h229l41 110h-280v236h393l100 180l-6 18l37 35l4 49l182 7v-39l-26 -9v-53l-84 -184z" />
    <glyph glyph-name="lessequal" unicode="&#x2264;" horiz-adv-x="872" 
d="M819 547l8 -240l-399 123l-8 12l-129 70h-35l-184 90v359l39 4l77 30l37 25l6 -12l263 108l12 -2l135 53l29 -4l96 45l57 13v-199l-626 -244l252 -88l331 -143h39zM815 264v-235l-59 20h-109l-307 -24h-156l-26 -5l-45 -16l-23 12h-14v236h622z" />
    <glyph glyph-name="greaterequal" unicode="&#x2265;" horiz-adv-x="872" 
d="M72 307l8 240h39l332 143l251 88l-626 244v199l57 -13l96 -45l29 4l135 -53l13 2l262 -108l6 12l37 -25l77 -30l39 -4v-359l-184 -90h-35l-129 -70l-8 -12zM84 29v235l117 -12h622v-236h-14l-23 -12l-45 16l-26 5h-156l-307 24h-109z" />
    <glyph glyph-name="lozenge" unicode="&#x25ca;" horiz-adv-x="892" 
d="M51 762l109 268l10 6l61 88v25l80 127h316l4 -27l26 -53l23 -27l-12 -4l96 -180l-2 -8l47 -92l-4 -21l41 -65l10 -35l-108 -275l-11 -6l-61 -88v-24l-80 -127h-315l-5 26l-26 54l-23 26l13 4l-97 181l2 8l-47 92l4 20l-41 66zM262 788l-35 -28l213 -430l78 174l127 227
l37 27l-215 432l-78 -174z" />
    <glyph glyph-name="CR" horiz-adv-x="477" 
 />
    </font>
</defs>
</svg>
