<?xml version="1.0" standalone="no"?>
<!DOCTYPE svg PUBLIC "-//W3C//DTD SVG 1.1//EN" "http://www.w3.org/Graphics/SVG/1.1/DTD/svg11.dtd" >
<svg xmlns="http://www.w3.org/2000/svg" xmlns:xlink="http://www.w3.org/1999/xlink" version="1.1">
<metadata>
Created by FontForge 20170731 at Mon Apr 25 02:38:47 2011
 By Aleksey,,,
Typeface (c) Teabeer Studios. 2011. All Rights Reserved
</metadata>
<defs>
<font id="Punkboy-Bold" horiz-adv-x="1139" >
  <font-face 
    font-family="Punkboy"
    font-weight="700"
    font-stretch="normal"
    units-per-em="2048"
    panose-1="2 0 8 0 0 0 0 0 0 0"
    ascent="1638"
    descent="-410"
    x-height="1329"
    cap-height="1740"
    bbox="-88 -449 2082 1880"
    underline-thickness="150"
    underline-position="-442"
    unicode-range="U+0020-F005"
  />
<missing-glyph horiz-adv-x="1586" 
d="M256 -20v1320h1074v-1320h-1074zM338 52h910v1176h-910v-1176z" />
    <glyph glyph-name=".notdef" horiz-adv-x="1586" 
d="M256 -20v1320h1074v-1320h-1074zM338 52h910v1176h-910v-1176z" />
    <glyph glyph-name=".null" horiz-adv-x="0" 
 />
    <glyph glyph-name="nonmarkingreturn" horiz-adv-x="569" 
 />
    <glyph glyph-name="space" unicode=" " horiz-adv-x="569" 
 />
    <glyph glyph-name="space" unicode="&#xa0;" horiz-adv-x="569" 
 />
    <glyph glyph-name="exclam" unicode="!" horiz-adv-x="619" 
d="M359 1872h10q119 0 157 -180q0 -217 -57 -421q-71 -285 -115 -600q-18 -220 -61 -220q0 -11 -61 -11q-119 0 -191 172q-21 76 -26 183l5 26l-5 54l5 51l-5 35l61 348q41 221 122 422q67 141 161 141zM182 370q177 -38 177 -163q0 -227 -162 -227q-117 0 -192 173l-5 43
q0 141 182 174z" />
    <glyph glyph-name="quotedbl" unicode="&#x22;" horiz-adv-x="1173" 
d="M736 1747q136 0 243 -207q35 -67 74 -279l-6 -6l5 -51q0 -236 -175 -410q0 -28 -91 -110h-43v30q32 66 32 119v33l5 5q-82 289 -82 369q-31 154 -84 315l-7 43q35 149 129 149zM127 1695h32q99 0 211 -168q48 -133 48 -169v-117q0 -256 -164 -416q-71 -41 -135 -44
l-127 24v32l52 32v-4l-7 66q39 233 39 317q0 155 -65 301v38q32 108 116 108z" />
    <glyph glyph-name="numbersign" unicode="#" horiz-adv-x="1326" 
d="M381 1704h25q62 0 79 -77v-33q-21 -114 -39 -156h-28q164 -24 210 -24q69 197 142 197h8q81 -19 81 -75q0 -54 -43 -168l417 -97v-44l-123 -6h-16l-331 19l-61 -174v15q442 -64 442 -120v-25h-48l-457 -23q-64 -131 -134 -390h-30q-40 14 -40 64v5q0 50 59 324h23
q-172 21 -258 46v20q-50 -99 -118 -366h-67l12 36l-10 68l23 300q-21 0 -47 45v19q0 30 64 48q4 44 33 153h26q-139 0 -153 98v35q29 50 94 50l29 -10h52l15 -2q94 248 169 248zM380 1270l-55 -137l204 -31l39 166q0 -12 9 -12z" />
    <glyph glyph-name="dollar" unicode="$" horiz-adv-x="1084" 
d="M627 1814h15q57 0 65 -195q190 -107 190 -191q0 -59 -90 -77l-104 60l-10 -100q254 -77 254 -171q20 -43 20 -68v-55q0 -77 -108 -155q-68 -50 -243 -105q0 -60 -132 -480l-61 -76l-42 42q44 65 90 429l4 59h28q-19 -10 -62 -10h-91l-24 2v17q-30 -211 -68 -309l-18 -15
h-15q-35 0 -35 36l15 75v267q-153 157 -185 306l-5 51v6q0 70 65 70q44 0 162 -120h-31v-10l4 119q-180 20 -180 142l-5 90q0 146 189 216q27 1 27 -10q0 130 65 130h21q59 -51 59 -110h76l100 -4q6 144 60 144zM401 1483v-76l-2 -10l137 -32v-21l13 132l-60 7h-88z
M220 1413h8l6 65q-14 0 -14 -65zM381 1193v13l-24 -218q12 -11 18 -11q126 5 126 16l14 148q-124 52 -134 52zM663 1069l-2 -19l41 15v-14z" />
    <glyph glyph-name="percent" unicode="%" horiz-adv-x="1752" 
d="M766 1628h20q187 0 187 -117v-1q120 -19 182 -73q71 -76 71 -121v-22q-9 -77 -46 -119h-56q366 372 471 410l25 -37v-12q-45 -192 -275 -447q-93 -101 -397 -389h-54q164 58 190 106q92 50 150 50h60q87 -8 195 -88q81 -85 100 -202l-6 -6l5 -46v-8q-21 -117 -91 -204
q-102 -116 -357 -202q-157 -50 -355 -50q-249 23 -292 120q-40 52 -40 94v12l-4 -23q-255 -225 -369 -273h-18q-62 26 -62 69q0 124 491 573q0 11 293 250l249 225h58q-172 -117 -314 -145q-68 -22 -190 -33q-248 0 -314 123q-30 29 -30 75v71q14 113 85 199
q147 170 438 241zM536 1202h-19l97 -6q94 0 303 104v-15q-79 45 -133 109h7q-190 -72 -255 -210v18zM746 310v17l84 -5h37q200 0 402 140q31 30 31 45v6q0 48 -11 58q-201 -34 -316 -112q-124 -71 -227 -149z" />
    <glyph glyph-name="ampersand" unicode="&#x26;" horiz-adv-x="1642" 
d="M641 1711q157 0 300 -91q209 -102 209 -194q21 -32 21 -66v-27q-17 -110 -120 -196q-109 -93 -196 -153v8q50 -89 130 -359l-9 13q17 24 17 42v9q-86 44 -86 149v10q0 131 172 162q75 9 210 46q247 0 253 -127v-13q-50 -139 -96 -139q-19 -28 -153 -80q0 -166 -207 -378
q54 -161 74 -275q0 -62 -85 -72q-65 4 -188 199q-129 -77 -332 -77h-35l-16 4l-17 -4h-39v-1l3 1q-378 0 -436 236l-15 109q0 244 112 360q114 127 258 232l94 66q-74 133 -188 267l-11 47q0 163 66 196q130 96 310 96zM600 1416v20q46 -60 108 -178h-15q90 60 122 98v-11
l-91 50q-39 21 -57 21h-67zM290 397q16 -10 100 -20l19 5l104 -5l47 7l5 -6q114 13 167 44l42 34v-6q-96 281 -162 400l4 -11q-114 -61 -299 -253q-17 -35 -27 -189z" />
    <glyph glyph-name="quotesingle" unicode="'" horiz-adv-x="813" 
d="M518 1755q139 0 192 -150l6 -47l-6 -17l6 -50v-25q-16 -146 -60 -211q-107 -241 -272 -345q0 -26 -169 -51l-135 10l-34 -16h-38v29q86 217 189 355q137 236 137 358q0 82 113 141z" />
    <glyph glyph-name="parenleft" unicode="(" horiz-adv-x="1231" 
d="M919 1872h60q91 -9 91 -74q-9 -33 -57 -71h-24l-16 11h-11q-234 -107 -376 -194q-220 -208 -228 -266q-52 -39 -104 -243l5 -88v-108l52 -217q56 -110 139 -142q42 0 199 -151q161 -84 285 -84q100 -72 100 -66l68 37v-51l-63 -53q0 -83 -141 -132h-90q-133 14 -314 126
l-112 117q-27 30 -166 108l-76 82q-72 100 -92 215q-48 99 -48 251v206q54 226 110 277q162 184 320 302z" />
    <glyph glyph-name="parenright" unicode=")" horiz-adv-x="1187" 
d="M265 1858h29q356 -60 356 -87q21 0 130 -132q147 -94 185 -215q127 -234 127 -316l5 -44q-22 -222 -72 -312l-65 -200q-28 -118 -336 -372q-124 -51 -265 -172l-207 -28q-134 0 -152 161q0 97 156 146q22 0 161 106q109 32 252 194q59 32 86 126l87 286q-41 250 -128 376
l-148 192q-208 81 -286 195v47q25 49 85 49z" />
    <glyph glyph-name="asterisk" unicode="*" horiz-adv-x="1071" 
d="M656 1726q90 0 106 -106v-19q0 -68 -57 -202l54 7q167 0 221 -157h-41l-54 6q-315 -85 -315 -143v-1q146 -191 146 -232v-29q0 -67 -78 -67q-67 0 -172 158h21q-96 -210 -192 -315h-41q-55 0 -72 142q35 212 43 231h33l-23 -6h-33q-144 0 -172 102q35 74 84 94l31 -29
v-22l2 6h-32q112 37 156 71q-77 137 -77 211v24q0 42 52 72h44q36 -19 92 -145l-10 11q55 168 195 302q42 36 89 36z" />
    <glyph glyph-name="plus" unicode="+" horiz-adv-x="1137" 
d="M590 1446h5q112 0 153 -193l10 -97l-29 -187h-25l140 28q174 -32 174 -163l6 -7q-37 -179 -164 -179h-40l-159 32q-9 0 -9 -24q-61 -240 -118 -366q-58 -76 -87 -76h-21q-110 0 -152 269l25 241l-284 88l-22 43q0 101 253 135l88 -10l19 5h3q11 77 62 207q55 254 172 254
z" />
    <glyph glyph-name="comma" unicode="," horiz-adv-x="505" 
d="M276 463q96 -45 96 -189v-31q0 -334 -279 -543l-67 -35l-34 36v19l15 23v41q0 110 23 245l-15 137q0 251 69 251q0 39 192 46z" />
    <glyph glyph-name="hyphen" unicode="-" horiz-adv-x="1033" 
d="M416 1063q336 -34 379 -57q65 0 144 -108l6 -69q0 -132 -189 -171l-143 -26l-116 6h-28l-22 6l-21 -6h-11q-347 34 -387 130q-28 28 -28 79v13q0 113 132 158q0 22 284 45z" />
    <glyph glyph-name="hyphen" unicode="&#xad;" horiz-adv-x="1033" 
d="M416 1063q336 -34 379 -57q65 0 144 -108l6 -69q0 -132 -189 -171l-143 -26l-116 6h-28l-22 6l-21 -6h-11q-347 34 -387 130q-28 28 -28 79v13q0 113 132 158q0 22 284 45z" />
    <glyph glyph-name="period" unicode="." horiz-adv-x="542" 
d="M229 427q130 0 162 -190q0 -197 -132 -229q-48 -28 -90 -28q-139 0 -169 177v27q0 33 53 98q0 132 168 145h8z" />
    <glyph glyph-name="slash" unicode="/" horiz-adv-x="1459" 
d="M1176 1806h28q114 0 136 -144q0 -144 -254 -468q-175 -247 -394 -645q-64 -78 -82 -116q-30 -30 -107 -145q-107 -124 -203 -267q-59 -41 -116 -41h-10q-128 0 -174 143v31q0 66 86 193q221 269 282 388q131 242 242 415q161 273 401 547q106 109 165 109z" />
    <glyph glyph-name="zero" unicode="0" horiz-adv-x="1421" 
d="M996 1821q112 -18 188 -77q90 -85 90 -241l-5 -19q39 -60 64 -186q0 -244 -167 -558q-19 -72 -305 -478q-186 -186 -368 -240l-128 -42q-217 0 -283 172q-61 89 -61 235h-21l21 -21v26l6 29l-6 40q12 306 156 648q182 296 334 478q206 234 485 234zM261 379v-18
q0 -72 40 -102q152 39 227 141q441 696 441 963v29q0 45 -42 115v19l6 16l-12 2h-34q-130 0 -381 -369q-103 -136 -163 -285q-82 -317 -82 -511z" />
    <glyph glyph-name="one" unicode="1" horiz-adv-x="1084" 
d="M759 1821h33q132 0 179 -171q0 -228 -263 -716q-113 -230 -191 -496q0 -76 -130 -367q-80 -91 -162 -91h-36q-189 42 -189 187v43l61 168q56 273 181 556l207 407l8 20h34q-122 -54 -152 -54q-81 0 -106 112q0 101 333 249q89 153 193 153z" />
    <glyph glyph-name="two" unicode="2" horiz-adv-x="1561" 
d="M1159 1630q179 -66 179 -174q17 -23 17 -52v-77q0 -147 -299 -459q-431 -464 -431 -469h-22l607 112h16q224 -31 224 -221q-28 -219 -217 -219l-726 -140l-225 -59l-101 -13q-189 33 -189 184v6q0 106 149 222q23 77 131 259l274 328q12 0 363 374q108 137 108 134
q-114 0 -273 -88h-52q-52 30 -52 79q0 80 163 181q163 92 356 92z" />
    <glyph glyph-name="three" unicode="3" horiz-adv-x="1415" 
d="M913 1792q106 -19 202 -113l26 -73q0 -179 -80 -223l-66 -61q133 0 177 -60q52 0 132 -204v-22q-12 -142 -51 -200q-46 -95 -189 -263l-183 -164q-422 -359 -493 -371q0 -18 -166 -58q-222 0 -222 141q0 100 253 245q0 8 194 160q475 450 475 487v-15l-21 -5l-57 6
q-119 -6 -251 -112l-52 -15h-40q-142 0 -163 176q0 73 240 344q88 97 155 150l8 -1l-430 -36q-100 29 -100 92v12q0 155 702 183z" />
    <glyph glyph-name="four" unicode="4" horiz-adv-x="1189" 
d="M948 1828h11q89 0 115 -117q11 -23 11 -65q-24 -186 -196 -459q-199 -332 -293 -575q-59 -164 -123 -417q-63 -215 -169 -215q-122 0 -122 133q22 343 49 481q63 222 152 390l54 90h34q-85 -37 -228 -69h-89q-129 0 -149 200l-5 39q0 210 179 379q41 28 79 28
q98 -16 98 -90q0 -53 -86 -250v6q219 65 370 95q182 323 230 382q50 34 78 34z" />
    <glyph glyph-name="five" unicode="5" horiz-adv-x="1304" 
d="M784 1806h47l-8 8l-6 -8q185 0 218 -103l8 -21q-25 -114 -154 -114h-228q-103 0 -383 -32v6q29 -164 29 -229v-43q398 215 649 215q125 -26 169 -78q92 -94 92 -286v-26q-48 -192 -97 -236q-32 -60 -361 -507q-286 -408 -363 -501q-94 -116 -173 -116h-14
q-156 35 -156 155v11q0 78 230 360q134 209 379 543q202 274 202 364l6 41v-15h19q-134 0 -643 -266l-99 -32h-11q-101 0 -136 123v29q76 184 76 436l11 78q-34 23 -34 66q0 78 140 107q233 71 591 71z" />
    <glyph glyph-name="six" unicode="6" horiz-adv-x="1268" 
d="M841 1865h17q108 0 126 -131q0 -61 -192 -239q-141 -146 -267 -362q-31 -43 -31 -33h-20l110 6l17 -3l3 3q457 0 531 -203q23 0 29 -160q0 -415 -467 -698q-138 -65 -216 -65h-109q-99 11 -207 85q-159 150 -159 276l-6 23v120q0 343 216 745q154 244 340 431
q81 98 187 174zM364 829q-78 -197 -78 -362q0 -147 76 -190l83 -21q112 0 331 217q102 116 102 298q0 34 -229 42l-199 -5l-6 -24h-56q0 45 -24 45z" />
    <glyph glyph-name="seven" unicode="7" horiz-adv-x="1018" 
d="M688 1858h38q98 0 127 -126v-31q-21 -99 -173 -478q-260 -578 -280 -816l-20 -78l4 -21q-34 -323 -178 -323l-32 -5q-142 0 -174 171l5 28l-5 43q27 132 49 368q57 246 82 285q59 206 119 338q114 283 219 436v-14h19q-447 26 -466 99v34q0 55 186 63h405z" />
    <glyph glyph-name="eight" unicode="8" horiz-adv-x="1092" 
d="M550 1718h30q184 0 184 -91v6l50 8q111 0 139 -160v-13q0 -212 -108 -346q-30 -68 -205 -258v0v6q130 -269 130 -387l6 -6v-13q0 -266 -303 -360q-64 -30 -234 -74l-36 6l-27 -5q-90 0 -162 125q-14 34 -14 113v54q8 158 258 501l39 44l-98 152q-155 152 -158 241v72
q14 100 155 243q205 142 354 142zM339 1321v-16q108 -96 182 -195q170 220 170 287v40l-12 65v30q-120 -18 -189 -62q-97 -70 -151 -149zM262 337q156 54 187 92v23q0 48 -53 180v-11h33q-155 -199 -167 -284z" />
    <glyph glyph-name="nine" unicode="9" horiz-adv-x="1189" 
d="M683 1771l108 -14l88 6q199 -49 199 -197q0 -157 -75 -353l-189 -584q-41 -157 -117 -290q-97 -210 -117 -223q-61 -34 -101 -34h-15q-150 28 -150 142v31l17 97l-5 5v13q12 251 38 329l84 296v-16h25q-68 -30 -156 -43h-115q-187 34 -187 185v24q0 135 261 421
q205 197 399 197zM285 1175v14h-19q136 0 278 132q25 42 98 280h32q-200 -77 -378 -370z" />
    <glyph glyph-name="colon" unicode=":" horiz-adv-x="520" 
d="M154 1219q169 0 169 -228v-10q-50 -118 -154 -118q-162 0 -162 252q31 104 147 104zM255 398q98 0 145 -176v-77q-47 -165 -155 -165h-72q-145 37 -145 90q-16 0 -28 81v30q0 133 164 211z" />
    <glyph glyph-name="semicolon" unicode=";" horiz-adv-x="586" 
d="M222 1234h36q155 -45 155 -154v-64q-18 -195 -173 -195h-25q-176 43 -176 155q-14 0 -14 76q0 135 197 182zM238 524h16q138 0 152 -174v-76l7 -28q0 -273 -223 -540q-129 -122 -234 -122l-22 22v21q162 133 162 530l-9 29l8 8l-6 42q0 260 56 260q0 16 93 28z" />
    <glyph glyph-name="semicolon" unicode="&#x37e;" horiz-adv-x="586" 
d="M222 1234h36q155 -45 155 -154v-64q-18 -195 -173 -195h-25q-176 43 -176 155q-14 0 -14 76q0 135 197 182zM238 524h16q138 0 152 -174v-76l7 -28q0 -273 -223 -540q-129 -122 -234 -122l-22 22v21q162 133 162 530l-9 29l8 8l-6 42q0 260 56 260q0 16 93 28z" />
    <glyph glyph-name="less" unicode="&#x3c;" horiz-adv-x="1510" 
d="M1273 1872h19q116 0 141 -141v-8q0 -103 -124 -144q-130 -160 -240 -212q-366 -283 -571 -405q-92 -75 -101 -75v17q71 -38 384 -280q27 0 235 -163q90 -32 208 -137q157 -80 157 -176v-32q0 -107 -157 -136q-79 0 -138 71q-65 0 -162 135q-17 0 -117 71q-152 0 -529 308
q-50 38 -208 212q-52 0 -70 83v21q0 83 305 272q649 457 728 524q117 195 240 195z" />
    <glyph glyph-name="equal" unicode="=" horiz-adv-x="1400" 
d="M601 1227q473 0 610 -121q36 -44 36 -68v-26q0 -25 -63 -47l-335 48q-791 40 -791 132v6q0 76 358 76h185zM684 766l5 -5l39 4h253q232 0 330 -76l13 -39v-18q0 -77 -141 -115l-32 -20l-26 26v24q36 14 30 -12q-227 -41 -610 -41h-125l-33 -8l-7 7l-139 -14l-28 5h-71
q-120 16 -120 92v10q0 108 211 148l230 17l5 -5z" />
    <glyph glyph-name="greater" unicode="&#x3e;" horiz-adv-x="1319" 
d="M223 1858h13q62 0 194 -227q116 -125 308 -225q268 -256 308 -256q146 -64 146 -186v-13q0 -127 -178 -256q-95 -118 -161 -167q-62 -51 -184 -196q-115 -94 -201 -224q-19 0 -52 -55q-83 -73 -174 -73q-159 0 -228 162l-14 67q0 96 96 199q0 26 114 121q189 225 210 225
q205 230 251 230l57 50v-2q-256 206 -357 269q-185 185 -237 381l-6 47v14q13 115 95 115z" />
    <glyph glyph-name="question" unicode="?" horiz-adv-x="1121" 
d="M423 1858q231 -16 439 -145q154 -117 154 -227v-33q0 -35 -81 -189q-379 -408 -469 -552l-91 -145q-14 0 -82 -74q-61 -27 -112 -27q-151 0 -175 188q22 215 55 215q1 53 346 449l139 156q-110 98 -304 98l-4 4l-27 -4q-155 0 -155 110v5q0 146 320 171h47zM166 322
q152 -30 152 -143v-28q0 -93 -158 -171h-26q-134 23 -134 126v45q0 125 119 164z" />
    <glyph glyph-name="at" unicode="@" horiz-adv-x="1752" 
d="M725 1623q221 -46 262 -46q137 0 380 -105l112 -80l50 -66q21 -53 27 -156q0 -195 -150 -390q-60 -114 -187 -243q-124 -94 -207 -94q-240 0 -276 199h26q-76 -51 -162 -51h-36q-163 0 -228 116l-5 45q0 202 379 430q53 19 108 19l16 -4l40 10q128 -21 128 -118v-16
l-21 -112q13 -259 6 -259h5q76 0 267 313q39 95 39 125v60q-36 43 -180 83l-203 24l-5 -6l-207 27q-245 -143 -350 -353q-43 -83 -43 -161v-63q102 -238 395 -418q194 -74 261 -74l245 5q124 0 304 174l62 96h51q0 -61 -172 -305q-207 -244 -321 -244l-132 -5l-11 4l-10 -4
q-291 0 -504 157q-93 48 -207 167q-177 166 -208 259q-63 89 -63 216q0 204 145 447q124 149 227 232q167 165 353 165zM503 761q1 -3 62 -8h15q79 0 138 62l-6 76l7 147v0l6 -33q-222 -146 -222 -244z" />
    <glyph glyph-name="A" unicode="A" horiz-adv-x="1048" 
d="M467 1850q154 0 175 -197q66 -409 84 -658q34 -149 89 -537q30 -128 75 -455q9 0 21 -87q-29 -76 -60 -79q-76 0 -127 157q-106 161 -203 390q-21 93 -8 93l-125 -36h-84l-20 3q-97 -440 -184 -440l-18 -12q-82 0 -82 81q60 726 203 1241q91 401 117 465q71 71 147 71z
M421 949q0 -11 -90 -331h-13q29 0 125 28q-42 131 -58 303h36z" />
    <glyph glyph-name="B" unicode="B" horiz-adv-x="1231" 
d="M569 1587l17 -6l45 5l34 -4l14 4q210 0 276 -100q41 -56 41 -85q0 -134 -70 -209l-127 -101l-35 10l2 2h29q120 0 255 -142q79 -104 79 -160v-81q-21 -120 -149 -275q-380 -403 -442 -403l-30 -6q-136 29 -136 133q0 92 266 337q101 101 181 232l4 24q-25 67 -79 67
l-154 -20q-130 -42 -230 -92l3 -16v-32h-3l3 -32v-58l24 -292h25l-27 23q0 -259 53 -650q-6 -101 -72 -101q-123 36 -191 363q-58 246 -90 750l-17 151l5 5q-25 241 -30 388l4 34q-47 31 -47 88v5q0 61 84 118q41 93 100 93h17q33 -13 41 -34q54 21 327 67zM307 1248
l27 -199h-28q110 100 347 276v-23h15q-147 0 -328 -47z" />
    <glyph glyph-name="C" unicode="C" horiz-adv-x="1194" 
d="M355 1814h34q94 0 193 -139q30 -38 223 -150q225 -187 225 -241l6 -24v-21q0 -80 -114 -106q-53 0 -314 176q-213 109 -231 151h25q-81 -222 -81 -449q0 -269 123 -655l28 -68l19 -15h15q59 0 418 179q20 0 111 50l26 -26q0 -26 -257 -339q-142 -157 -335 -157
q-178 0 -269 171q-51 60 -89 233q-111 359 -111 523l6 6v-7l-6 7q0 534 177 787q87 97 178 114z" />
    <glyph glyph-name="D" unicode="D" horiz-adv-x="1203" 
d="M160 1858h5q32 0 70 -32h68l165 -34l312 -71q180 -106 224 -246l22 -99v-86l6 -23q-33 -141 -136 -456q-20 -148 -73 -266q-44 -43 -171 -261q-108 -265 -151 -271q-44 -33 -115 -33q-47 0 -100 25l-42 -9h-14q-120 0 -181 184q-22 168 -27 327l5 5l-5 48v149l-8 30l7 6
l-21 165l5 292v166l-5 33l27 289q63 168 133 168zM311 1554l14 -206l-5 -59l5 -21l-5 -39l5 -32l-5 -33l5 -33l-5 -22l10 -182q-10 -133 18 -133l-27 22l-11 -115l5 -5l-6 -87v-141l-6 -76v16h-37q65 159 137 260q82 107 82 218l71 235q64 173 64 232v51q-14 32 -325 150h16
z" />
    <glyph glyph-name="E" unicode="E" horiz-adv-x="1179" 
d="M319 1806h6q66 0 81 -161q356 114 563 114l19 -5l29 11l33 -50q-265 -145 -576 -230l-23 -7l4 -57q-35 -166 -35 -204l7 -7l-7 -48v-37h-22q178 41 383 64h15q158 -10 171 -53v-37q0 -60 -216 -131q-215 -60 -345 -60l-71 -577h-28q98 39 229 110q204 67 276 67h30
q91 0 142 -80v-17q0 -66 -235 -169l-246 -130q-236 -132 -294 -132q-168 46 -168 166l-6 82q0 105 58 559l-6 7l7 36v4l23 392h11q-128 84 -128 196q0 159 179 220q4 0 46 105q46 59 94 59z" />
    <glyph glyph-name="F" unicode="F" horiz-adv-x="1114" 
d="M703 1674h5q185 0 248 -100v-29q-28 -69 -350 -159q-66 -27 -320 -76h6l5 -203v-32q71 29 244 62q160 -12 172 -75q-46 -102 -188 -159q-90 -60 -242 -95l4 5v0l-43 -509l6 -6l-6 -59v-42q-25 -349 -110 -349h-25q-64 18 -85 386l-16 261v218q45 812 80 812l62 76l49 15
h9q63 0 63 -27h1q24 0 216 57q153 28 215 28z" />
    <glyph glyph-name="G" unicode="G" horiz-adv-x="1495" 
d="M546 1858h15q110 -28 126 -133l106 -540l-13 -96q11 0 18 -64q-20 -60 -78 -60h-10q-79 0 -99 185l-58 253l-24 114q-11 -18 -80 -211q-71 -181 -125 -502q-63 -383 -63 -477v-91h-13q162 32 468 334h52q-27 -24 -171 -51q-31 -33 -66 -33h-6q-44 0 -77 51v33
q35 185 127 259q160 162 396 238l115 22q110 0 216 -123l17 -76q-32 -158 -148 -282l-200 -179l-259 -227q-137 -110 -285 -183q-71 -26 -152 -39q-222 0 -264 197l-11 97l11 124l-6 16q32 466 117 775l84 264q168 405 340 405z" />
    <glyph glyph-name="H" unicode="H" horiz-adv-x="1034" 
d="M228 1858h50l43 -34l5 -174v-166l-11 -221v-27l6 -72l-20 -224h-24l98 11l13 -3l3 3h25l5 -4l128 10h26v-15q0 117 22 201l-6 131q22 584 162 584q87 -24 87 -53v-37q34 -101 57 -374l-6 -5l5 -48v-28q0 -100 -17 -173l6 -36v-80l-45 -475q-33 -368 -67 -596l-16 -20h-24
q-137 0 -158 639v95l5 32l-5 27v-11l-69 -8l-100 11l-49 -6l-85 10l10 8v-9q-22 -338 -22 -519l6 -127q0 -72 -107 -81q-129 0 -159 334v200q0 230 16 331l-6 6l22 227l-5 6q50 410 95 606q32 114 106 154z" />
    <glyph glyph-name="I" unicode="I" horiz-adv-x="954" 
d="M563 1740h80q86 0 106 -115q0 -70 -126 -136l-123 -48q24 -91 24 -268v-81l-27 -203l5 -25q0 -69 -59 -476l-8 -42l-23 -80l158 4l93 8q101 8 155 -75v-37q0 -129 -154 -186h-22l-116 5l-54 -5l-131 11l-20 -5q-221 -20 -343 9q-55 54 -55 133l-11 35q108 103 239 56
q23 181 45 303.5t10 449.5q24 210 -22 396h16l-84 -12q-103 28 -103 96q0 116 348 212z" />
    <glyph glyph-name="J" unicode="J" horiz-adv-x="1128" 
d="M715 1697h41q193 -27 193 -165q31 0 54 -418l5 -44l-5 -43v-24l5 -22q-23 -285 -71 -386l-105 -220q0 -20 -108 -222q-80 -197 -215 -255l-44 -13q-189 0 -344 122q-121 75 -121 153v32q0 74 53 110q0 21 98 45v-35l-14 -38q3 -7 94 -25l147 -61l150 361q68 303 68 382
l-5 32v18l5 36l-5 47v6q0 294 -2 294h-4l-213 -21q-308 10 -340 117l-5 30v6q0 111 177 111l255 30q76 32 256 60z" />
    <glyph glyph-name="K" unicode="K" horiz-adv-x="1467" 
d="M1061 1865h7q180 -20 180 -177q0 -42 -39 -107q-51 -114 -185 -286l-178 -188q-51 -64 -201 -186l1 1v7q87 -138 183 -238q198 -173 298 -282q134 -99 199 -350l7 -62l-22 -18h-25q-26 21 -258 106q-65 33 -181 117q-108 53 -326 243q-39 26 -82 85q-39 34 -73 100
l21 -14q-71 -307 -81 -427l7 -17l-22 -121q36 -148 36 -225v-5q0 -57 -61 -57q-102 0 -218 271q-38 138 -38 223l6 5v-4l-16 174q5 110 14 140l-4 3v15q42 353 84 592q46 376 144 536q62 78 153 78q115 0 151 -154l5 -76l-37 -238q122 117 226 250q127 152 169 189
q72 97 156 97z" />
    <glyph glyph-name="L" unicode="L" horiz-adv-x="1246" 
d="M252 1660h18q131 0 165 -417h19l-21 21v-13q0 -389 -43 -905l6 -6l-7 -51v-6q310 109 440 109h33q131 -21 175 -65q62 -76 62 -106v-69q0 -18 25 -58v-37h-47q-45 31 -56 31q-322 -92 -557 -175q0 -19 -122 -37l-9 -4q0 -98 -142 -123h-27q-151 51 -151 176l-13 51
q0 54 75 138l8 271h-17l16 -18l50 671v55l-6 57q26 497 89 497z" />
    <glyph glyph-name="M" unicode="M" horiz-adv-x="1756" 
d="M1368 1652q183 -40 183 -179q20 -48 20 -365v-13l-20 -563v-31l7 -61l-7 -31l8 -51l-8 -8v3q91 -330 91 -397q-29 -130 -101 -130l-72 25l19 21v-6q-163 176 -211 276q-73 124 -73 371v212q28 0 -37 -136q-111 -181 -114 -181q0 -19 -94 -32h-22q-101 0 -201 144
q-229 176 -362 305v50q0 -33 264 -610q27 -101 27 -154v-40q32 -2 32 -42q-47 -67 -96 -67q-78 0 -102 164q-251 502 -407 958q-10 49 -85 160l-7 45q24 117 144 117q137 -24 310 -235q221 -234 405 -358q0 -16 46 -53q237 384 280 527l32 107l-7 49q0 209 158 209z" />
    <glyph glyph-name="N" unicode="N" horiz-adv-x="1143" 
d="M872 1880h11q139 -26 139 -132q-13 -153 -30 -192l6 -53l-13 -74v-65l7 -26l-38 -500q0 -698 28 -698q27 -46 27 -88q0 -82 -120 -105q-92 0 -211 172q-85 338 -249 500l-115 154v66l-5 -165l5 -6v-15l-6 -25q-42 -725 -135 -725h-7q-87 0 -98 364l30 572v31l-6 197l6 65
l-98 303q27 156 160 156t184 -217q60 -99 117 -264q116 -211 203 -320v-55l43 707l-6 92q12 13 18 137q28 184 68 184q0 14 85 25z" />
    <glyph glyph-name="O" unicode="O" horiz-adv-x="1804" 
d="M1265 1674q235 0 332 -78q62 -20 107 -164l16 -145q-46 -430 -196 -798q-74 -220 -229 -359q-135 -150 -498 -150h-16q-417 26 -473 80q-270 129 -270 272q-19 25 -38 189l8 9v0l-7 45q0 368 304 710q14 0 53 52q135 113 390 230q109 32 187 32l46 -9q0 29 284 84z
M918 1365q-131 -87 -303 -261q-205 -262 -205 -592q43 -103 187 -103q0 -16 94 -22l75 7l129 -7h22q247 0 401 581l45 245l-7 104v-12q-89 0 -249 -38q-118 0 -200 -23v43l4 4l-12 39v18l6 5q-4 12 13 12z" />
    <glyph glyph-name="P" unicode="P" horiz-adv-x="1180" 
d="M520 1711h19q183 -24 399 -179l63 -75l40 -108q0 -215 -108 -301q-50 -59 -208 -185q-205 -124 -233 -124q-24 -15 -79 -19l30 -356q16 -63 16 -91h-19q80 0 111 -142v-23q0 -102 -137 -128q-161 18 -164 43q-11 0 -81 120q-50 102 -67 263q-32 132 -80 798l-22 93
l21 213q-16 5 -16 46v6q0 60 114 102l40 -6q236 53 361 53zM260 1483v18q59 -123 81 -334q27 -70 38 -186v14h-29l138 97q143 104 189 152l39 53v19q-49 134 -358 167h-98z" />
    <glyph glyph-name="Q" unicode="Q" horiz-adv-x="1547" 
d="M1021 1718h14q81 0 229 -139q118 -122 118 -308q-26 -272 -106 -602q-33 -70 -89 -292q121 -143 201 -313l27 -88q0 -168 -124 -168q-107 0 -355 308q-272 -124 -537 -124q-273 0 -372 152l-27 108v107q0 382 457 1028q180 197 315 238q137 36 179 68q0 22 70 25z
M253 326v-39q0 -32 41 -32q261 0 487 78q0 1 -109 182q-88 138 -88 173v13q0 118 137 118q63 0 273 -184h-24q119 438 119 551q-7 190 -58 190l-47 42l4 4h-56q0 29 -39 71q-137 -85 -249 -263q-129 -172 -235 -405q-113 -189 -156 -499z" />
    <glyph glyph-name="R" unicode="R" horiz-adv-x="1627" 
d="M179 1609q88 -24 88 -44l153 14l116 -11l84 6l6 -6h-8l19 6q218 -40 299 -112q74 -103 74 -145q0 -219 -132 -301q-20 -34 -195 -154q-2 0 437 -478l285 -313l59 -118q36 -107 36 -139v-6q0 -148 -196 -176q-117 0 -181 134q-11 21 -209 197l-433 466q-113 111 -116 113
v34q34 -154 34 -332q-32 -379 -107 -439h-27q-47 0 -89 258q-121 299 -121 532q-40 139 -40 591l11 96l-5 5v14l6 52v9q-35 37 -35 76q0 64 75 88q0 63 112 83zM427 1309l-100 5h3v15l13 -205h26l-27 23v-27l-4 -48h-20l58 -5q146 58 289 165l42 55q-5 6 -178 33z" />
    <glyph glyph-name="S" unicode="S" horiz-adv-x="1416" 
d="M445 1858q136 -21 194 -89q90 -111 90 -217q0 -63 -74 -90l-139 83h2q-98 0 -162 -143v-61q27 -129 115 -129q202 -86 523 -278q268 -237 268 -513l7 -40q0 -86 -112 -253q-151 -108 -195 -108q-78 -24 -219 -40l-40 7l-110 -9v-1l10 3q-208 0 -286 47q-54 0 -174 144
q-83 174 -83 262v7q0 70 84 132l295 -186h4l108 14l65 -7l29 8l24 -8q142 0 157 49v4q0 108 -163 237q-319 163 -433 206q-130 109 -156 189q-46 76 -74 226v95q14 170 145 311q128 124 300 148z" />
    <glyph glyph-name="T" unicode="T" horiz-adv-x="1552" 
d="M817 1807l70 -16h109q126 0 241 -22l64 7h62q100 0 114 -116v-16q0 -133 -285 -169l-717 55q558 0 576 -305l-7 -30l7 -44l-7 -52l9 -88h18l-20 20v-75l-7 -65l7 -22q-97 -889 -234 -889h-52q-154 0 -175 423l-7 98l29 337l-7 7v15q15 91 23 637h-43q-578 0 -578 103
l-7 7v52q0 94 405 110h13l42 10l8 -8l25 5h40q146 0 284 31z" />
    <glyph glyph-name="U" unicode="U" horiz-adv-x="1187" 
d="M250 1821h29q110 0 138 -209l-5 -22l5 -51q-45 -177 -45 -414v-46q0 -292 162 -457q11 -25 93 -68h27q-6 0 3 112v36l-6 25l17 75l-5 118v35l5 49q-51 187 -51 599q20 144 145 144h5q136 0 190 -256l40 -307l7 -95l-7 -6v3l17 -142v-15l2 2l-2 2v-99l-5 -5l16 -102
l-17 -124l6 -29q-22 -146 -64 -206q-11 -51 -161 -149l-171 -12q-214 48 -283 120q-130 90 -192 215q-63 81 -111 335l-11 71l-6 296q0 85 40 333q71 244 195 244z" />
    <glyph glyph-name="V" unicode="V" horiz-adv-x="1150" 
d="M899 1866q126 -31 126 -113v-74q-66 -256 -113 -617q-152 -648 -252 -952l-149 -384q-18 0 -46 -88q-43 -87 -122 -87h-18q-130 30 -130 129l10 79q-71 141 -113 394l6 16q0 46 -46 328q-20 107 -37 364l6 17q-7 227 -21 242l5 83v57l-5 115l5 5v-3l-5 26q29 252 72 252
q0 9 70 21q108 -43 108 -98q48 0 103 -420v-44l-4 -18l4 -19v-40l2 2l-2 2v-68l6 -63l-6 -6v3l46 -509q0 -201 -15 -201h-14q246 766 246 885l68 295l65 253l-5 36q44 194 126 194z" />
    <glyph glyph-name="W" unicode="W" horiz-adv-x="1642" 
d="M1304 1865q170 -37 170 -157l-6 -100q11 -40 17 -168l-6 -33l7 -30l-7 -18l12 -214l5 -6v-13l-9 -44l4 -3v-14l-6 -103l17 -170l-6 -56l6 -29l-6 -46l6 -40l-6 -34l6 -46l-6 -80l6 -91l-6 -131v-80q0 -107 -141 -166l-63 -13q-142 0 -260 219q-40 128 -207 296
q-119 136 -190 271h23q-203 -220 -241 -285q-129 -163 -146 -266q-60 -70 -126 -70h-6q-115 0 -139 139v6q0 49 63 244q85 500 85 895q4 220 36 220q0 8 61 17q141 0 175 -201q17 -137 17 -235v-109l-20 -159q101 106 101 144q21 184 190 184q172 0 246 -271
q68 -148 151 -239v-58l-6 64l11 182l-11 205l6 7v-9l-6 5v14l11 170l-5 22v33h4q-4 124 -21 189v38q64 223 216 223z" />
    <glyph glyph-name="X" unicode="X" horiz-adv-x="1730" 
d="M1457 1792h41q104 0 104 -174q-25 -162 -176 -393q-82 -95 -239 -326l-76 -76q78 -85 281 -364q10 0 176 -206l21 -84q0 -159 -195 -188q-146 0 -468 387q-103 115 -103 78q-238 -289 -313 -469q18 -31 18 -69v-15q-63 -224 -220 -224q-228 28 -228 193q0 122 155 367
q233 332 384 521q-619 775 -619 878q25 118 151 118q215 0 471 -315q98 -102 200 -246l79 -93l184 226l172 232q140 205 200 242z" />
    <glyph glyph-name="Y" unicode="Y" horiz-adv-x="1580" 
d="M1354 1880q116 0 116 -189q0 -227 -129 -571q0 -23 -183 -470q-282 -720 -351 -763q-136 -156 -248 -156q-92 0 -92 153q100 172 271 696l-1 -4h24q-101 7 -322 203l-63 69q-288 376 -376 760v23q22 134 140 134h13q121 0 274 -296q345 -576 430 -576q57 188 138 378
q218 602 325 602z" />
    <glyph glyph-name="Z" unicode="Z" horiz-adv-x="1569" 
d="M1228 1718h38q103 0 117 -160v-12q0 -68 -162 -236l-375 -439q-241 -319 -297 -459h-30l178 11l19 -5l18 5q183 0 508 -54l20 5q151 0 203 -160v-56q0 -114 -146 -165l-21 -8q-104 0 -442 55h-25l-84 -6l-26 6l-42 -6l-63 6l-26 -7l-20 7q-161 0 -367 -60h-15
q-131 0 -183 130l-5 36v34q0 66 140 233q106 150 161 259q103 179 204 312q191 253 366 455h45q-354 -109 -456 -109h-30q-87 20 -87 80q0 75 188 100q253 76 560 151q42 57 137 57z" />
    <glyph glyph-name="bracketleft" unicode="[" horiz-adv-x="1136" 
d="M451 1807l21 -6l53 5h36v-1l8 1h17q252 0 291 -71q16 -7 31 -68v-22q0 -110 -177 -145l-94 -5l-14 5l-119 -12l-6 7h10l-69 -12l-10 3l11 11v-14l-5 -63l6 -6l-6 -31v-17l5 -16l-5 -28v-321l-4 -49l4 -4v-12q-8 -125 12 -125l-21 21l-6 -42v-2l5 -16q0 -164 -71 -389
l-37 -110h-20l348 59l27 7l23 -6l167 10q156 -51 156 -166v-35q0 -135 -191 -170l-54 9l-20 -4l-31 4l-55 -9l-27 5l-208 -25l-16 5l-163 -10l-6 5h11l-23 -5l-48 9l-47 -20h-21q-101 0 -126 145v11q0 48 70 122q0 78 56 275q18 0 40 262v4l-10 242v185l-5 47l5 20l-5 38v31
h3l-3 30v91l-5 96q0 155 108 229z" />
    <glyph glyph-name="backslash" unicode="\" horiz-adv-x="1202" 
d="M114 1821q124 0 404 -482q119 -191 191 -363l256 -509q20 0 112 -240l5 -112q0 -117 -243 -135q-59 29 -59 68l10 34q-174 182 -249 346q-74 111 -201 425q-90 150 -230 518q-110 238 -110 350q0 74 114 100z" />
    <glyph glyph-name="bracketright" unicode="]" horiz-adv-x="1238" 
d="M838 1821h120q106 -29 106 -65q0 -24 -22 -55q56 -253 73 -442l22 -189l-11 -74l6 -102l-6 -34v10h7l-7 -106v-194l-5 -21l5 -20v-17l-5 -15l5 -25v-43l-6 -32l6 -22l-17 -104l6 -141q0 -78 -125 -150h-37l-123 6l-44 -6h-38v4l-42 -4h-228q-122 0 -183 158l-6 42v32
q48 187 195 187h61l74 7l7 -7h-6q139 0 139 5l6 28v61l-1 -1l1 -1v60l-1 -1l1 -1v215l-7 86l7 7v-3l-6 46l6 96l-12 73v74q-38 372 -37 372h-28l-465 -12q-217 0 -217 91l-6 17q0 108 187 108l367 55v1l-14 -5q231 16 297 34h1v17z" />
    <glyph glyph-name="asciicircum" unicode="^" horiz-adv-x="1114" 
d="M510 1666h15q98 0 251 -185l128 -202q80 -201 80 -268l-6 -18l6 -51v-19q0 -132 -179 -159q-146 0 -213 268q-110 228 -111 228l-381 -433l-41 -10q-59 21 -59 69v19q0 96 330 474l35 51q-15 26 -15 59v24q0 117 160 153z" />
    <glyph glyph-name="underscore" unicode="_" horiz-adv-x="1569" 
d="M101 337l124 -5h132l61 5q260 -16 422 -48h21l30 5l34 -5q130 0 280 27h86q168 -17 168 -165q0 -121 -176 -157l-7 8q-186 -6 -237 -22l-79 5h-14l-63 -5l-297 59l-336 22h-23q-227 26 -227 149q0 85 101 127z" />
    <glyph glyph-name="grave" unicode="`" horiz-adv-x="754" 
d="M211 1726h11q162 0 200 -211q207 -215 207 -256q30 -77 30 -133v-31q0 -52 -117 -58q-230 31 -230 86q-157 93 -244 249l-39 149v32q0 138 182 173z" />
    <glyph glyph-name="a" unicode="a" horiz-adv-x="1189" 
d="M370 1608q204 0 516 -810q114 -366 114 -505q11 0 56 -65q0 -125 28 -235q-22 -162 -166 -162h-7q-155 0 -215 425q-21 216 -62 328q-105 -29 -334 -43h-58l-44 4v16l7 -429q0 -73 -103 -106q-102 31 -102 85l7 534q0 83 113 593q12 264 74 264q77 106 176 106zM333 1399
l-23 -28v-1q0 -110 -112 -676v-15h-27q210 134 258 134q0 12 145 14h-4v-16q-133 337 -260 588h23zM1007 217v-2h-43v2h43z" />
    <glyph glyph-name="b" unicode="b" horiz-adv-x="1159" 
d="M734 1865h48q181 0 245 -174l22 -141q-13 -126 -178 -315l-57 -57v20q93 0 192 -191q42 -95 42 -323q0 -136 -121 -286q-147 -151 -444 -202h-92q-62 0 -103 13q-15 -88 -55 -88h-28q-113 0 -175 140l-8 306v50l6 20l-6 6l14 213l-7 7l40 481q-19 0 -26 102q0 108 86 183
q42 78 138 78q291 158 467 158zM410 1505l20 -273l-7 -25l7 -21l-10 -63h-29q44 21 180 157q193 190 193 296q-2 36 5 36h-35q-118 0 -324 -107zM418 863h-30l-11 2q-64 -343 -64 -420l5 -3h-3q417 0 485 258l12 107q-26 166 -68 166q0 16 -45 20q-116 0 -142 -45
q-90 -85 -139 -85z" />
    <glyph glyph-name="c" unicode="c" horiz-adv-x="1246" 
d="M419 1633q190 -45 225 -104q58 -75 58 -134v-21q0 -256 -87 -298h-21q-101 0 -101 254l-3 9l-20 8q-92 0 -135 -287l-28 -179l7 -47v-244q0 -190 130 -297q62 -37 122 -37h63q171 0 335 138q53 63 55 91l-37 28l42 36l18 -15h-8l26 7q66 -22 66 -76v-35q0 -178 -203 -348
q-155 -102 -253 -102h-62q-386 0 -523 318q-85 170 -85 451l7 243l7 7v-7l-7 7v15q28 226 113 388q117 221 289 221z" />
    <glyph glyph-name="d" unicode="d" horiz-adv-x="1277" 
d="M177 1601h28q61 0 103 -56l-8 -8h40q215 0 341 -74q201 -93 365 -365q69 -113 96 -293l-8 -86l8 -6v-17q-69 -297 -207 -417q-288 -269 -472 -299h-44q-184 0 -281 227q-81 171 -129 810v56l-9 36l8 8l-6 115v152q51 217 175 217zM356 1304v-18l75 -762l-12 -7l43 -276
q294 199 368 319q83 73 83 151q0 340 -538 567z" />
    <glyph glyph-name="e" unicode="e" horiz-adv-x="1189" 
d="M226 1432q47 -13 78 -42h73l472 28q74 0 82 -40v-14q-68 -74 -246 -132q-70 -37 -309 -37q34 -90 34 -235h-22q227 63 386 63q221 -26 221 -105q0 -107 -457 -132l-121 -31v-71q-50 -245 -83 -564h-26l365 140l75 16h53q101 0 109 -118q0 -71 -248 -199
q-253 -209 -434 -209l-7 -8q-221 0 -221 409q85 777 85 866l-7 7q14 401 118 401l7 7h23z" />
    <glyph glyph-name="f" unicode="f" horiz-adv-x="1231" 
d="M163 1645q81 0 150 -132h62q201 0 496 96l71 11l53 -18l93 10l26 -63q0 -139 -367 -312q-141 -46 -249 -46h-76q22 -135 22 -287h-21q162 53 384 53h80l42 -28q0 -127 -494 -287q0 -238 -271 -879h-57l-21 107v37l68 684h-8q-65 0 -96 60v31q0 76 106 117v24
q0 410 -120 501l-21 60v24q44 108 44 169q51 68 104 68z" />
    <glyph glyph-name="g" unicode="g" horiz-adv-x="1503" 
d="M729 1528q183 0 226 -129q-21 -181 -93 -181l-37 37v66q-197 0 -402 -737l-8 -69v-47q0 -75 214 -91h221q92 0 198 371v-14h17q-32 0 -231 -107q-66 -44 -103 -44h-11q-149 26 -149 131v24q0 148 360 289l180 17h52q220 -41 220 -217l8 -41q-80 -312 -168 -539
q-137 -235 -236 -235q0 -32 -256 -32q-512 0 -649 240q-45 49 -82 207q0 402 177 669q167 300 443 415z" />
    <glyph glyph-name="h" unicode="h" horiz-adv-x="1363" 
d="M1054 1608h30q112 0 145 -312v-272q-83 -719 -196 -1063q-107 -263 -197 -263q-91 0 -130 447q0 215 14 270l-7 22l20 169q-215 -52 -310 -52q-98 -585 -254 -585q-169 78 -169 448q85 906 138 906q41 60 124 60q201 -51 201 -373v-23l-14 -231l312 45q91 807 293 807z
" />
    <glyph glyph-name="i" unicode="i" horiz-adv-x="557" 
d="M269 1630q110 0 154 -421l-14 -130l7 -7l-29 -401l7 -7q-11 -183 6 -183l-20 20v-15q-60 -492 -122 -492l-64 -14q-100 0 -172 239l-22 195l7 7l-6 43v109l6 37l-6 7v13q65 1000 268 1000z" />
    <glyph glyph-name="j" unicode="j" horiz-adv-x="982" 
d="M526 1608q134 0 292 -425q37 -155 51 -372l-7 -28l7 -34q0 -284 -180 -582q-135 -173 -251 -173q0 -14 -74 -14h-21q-103 0 -234 145q-44 89 -66 185q-29 33 -29 72l6 85l-20 20v14q0 34 52 34q170 -68 200 -156l65 -40q100 102 156 389v203l-8 70l7 7l-63 482
q27 118 117 118z" />
    <glyph glyph-name="k" unicode="k" horiz-adv-x="1416" 
d="M222 1616h57q59 0 68 -128v-200l7 -32l-7 -22l7 -28l-7 -28l7 -20l-24 -306q390 403 422 403q0 20 230 157l39 10q141 -25 141 -136v-15q0 -102 -447 -482l-202 -203v0l228 -173l486 -282l58 -58v-24q-16 -43 -155 -54q-224 10 -578 199q-195 128 -245 206l-12 -253h21
l-19 19l-8 -58v-63l15 -154q-36 -76 -98 -76q-122 0 -176 205q-29 178 -29 342v145l6 58l-7 7l43 426l-7 7q35 360 119 535z" />
    <glyph glyph-name="l" unicode="l" horiz-adv-x="982" 
d="M115 1616h19q179 0 211 -558v-58l-7 -380l-4 -13l5 -5q-13 -192 -28 -255h-23q458 0 530 -175l8 -29q0 -131 -192 -131q-115 0 -234 17l-5 -5l-76 7h-25q0 -37 -80 -51q-152 0 -201 577l-13 269l6 7v-2l-6 26v46v0v0v84q0 591 45 591q14 38 70 38z" />
    <glyph glyph-name="m" unicode="m" horiz-adv-x="1473" 
d="M972 1616q137 0 264 -217q67 -153 98 -450l-8 -8q28 -175 28 -482v-73q0 -282 -127 -282q-146 0 -192 449l-7 247l-13 58h10q-27 218 -87 434h21q-209 -365 -209 -534l7 -111q-48 -135 -142 -135h-36q-117 0 -133 165q-68 58 -154 457q-28 114 -47 114q-13 -25 -13 -169
v-88q0 -396 73 -757q-21 -254 -105 -254h-37q-75 0 -156 521l-7 66v36h6l-6 250v218q0 304 104 359q41 32 131 40q288 0 342 -377q-22 -12 81 197q179 326 314 326z" />
    <glyph glyph-name="n" unicode="n" horiz-adv-x="1165" 
d="M800 1571h28q94 0 104 -120q-28 -228 -43 -509q0 -364 144 -851v-66q0 -192 -147 -192h-36q-98 0 -125 156q0 17 -197 226q-236 304 -347 535h28v-107l9 -36l-8 -7l6 -30v-51l-15 -445q22 -6 22 -58q-15 -54 -75 -54q-104 0 -104 335v91l-9 36l7 7l-5 22l7 549
q-43 87 -43 133v65q0 86 128 120h26q100 0 118 -151l213 -391l236 -368h-33v-14l-22 273q0 320 29 710l-7 111q41 81 111 81z" />
    <glyph glyph-name="o" unicode="o" horiz-adv-x="1378" 
d="M756 1609q109 -14 241 -76q44 -36 175 -210q60 0 95 -208v-74q-45 -400 -85 -563q-82 -217 -199 -278q-150 -95 -442 -95l-7 7h18l-7 -7h-18q-200 0 -319 118q-54 47 -127 161q-74 143 -74 230l7 59v57q0 318 171 660q153 206 331 206l21 -4l4 4h22l22 -6q66 19 171 19z
M285 691q0 -182 149 -294l56 -11h108q150 0 239 63q55 97 55 171v45l19 358v7q-165 207 -199 207q-224 42 -224 98h18q-73 -32 -138 -187q-83 -253 -83 -457z" />
    <glyph glyph-name="p" unicode="p" horiz-adv-x="1385" 
d="M662 1462q332 -38 422 -117q178 -127 178 -223q11 0 20 -92q0 -83 -126 -219q-113 -55 -263 -102q-186 -64 -352 -143q-155 -51 -195 -77v-159l19 -275v-18q-34 -62 -86 -62q-173 21 -173 512q-92 36 -92 130q0 86 92 135v9q0 106 31 374q-90 34 -90 111v13
q0 132 246 169q35 14 369 34zM348 1114l4 -44v-197h-21q92 62 473 195l48 10q0 -5 -143 36v0l-62 -6l-36 5l-19 -5l-76 6h-104l5 -6l7 6h-76z" />
    <glyph glyph-name="q" unicode="q" horiz-adv-x="1627" 
d="M1031 1616h44q124 -24 124 -101v-46l-5 -8q120 -57 193 -246l35 -180l-7 -36v-99q0 -416 -105 -607q193 -262 193 -299q-14 -53 -72 -53h-27q-118 0 -254 164q-159 -124 -328 -124h-40q-415 0 -663 293q-96 110 -119 314v55q8 168 97 352q152 281 386 401
q131 101 455 213zM354 531q123 -273 421 -273h27q109 0 198 81v-4q-122 247 -155 339q0 70 96 91q98 0 224 -212v2h-33q30 164 30 304l-6 255q-44 144 -223 144l-39 34q-423 -273 -508 -541q-16 -24 -32 -220z" />
    <glyph glyph-name="r" unicode="r" horiz-adv-x="1217" 
d="M206 1492h6q48 0 63 -28l77 10q66 0 352 -83q272 -14 290 -53q74 0 127 -202v-22q-48 -175 -194 -271q-10 -19 -152 -121l-114 -91l3 8l125 -103q122 -129 262 -232l75 -102l14 -91q-47 -107 -145 -107q-206 0 -379 149q-19 0 -225 183l-44 28l16 16l5 -28v-33h-6
q0 -67 29 -329q0 -100 -139 -134h-16q-179 0 -215 431l6 17l-6 28l6 72l-12 166q18 144 18 279v19l5 28l-5 5v14q36 343 80 406l30 49q-15 17 -15 43v7q10 72 78 72zM350 1302l24 -107v-73l5 -156l-3 -12l3 -4v-12l-5 -83v45l149 131q75 33 164 118q-51 0 -238 68l-99 52v33
z" />
    <glyph glyph-name="s" unicode="s" horiz-adv-x="1128" 
d="M290 1624l6 -5l21 4h77q188 -45 188 -122q15 0 26 -130q-28 -160 -121 -160h-7q-80 0 -112 134l-35 14h2q-61 -91 -73 -212v-18q0 -87 539 -310q140 -82 184 -212l33 -131q0 -349 -214 -428q-40 -40 -318 -68l-34 6h-104q-277 71 -277 270q0 81 60 123h41q0 -70 6 -70
l135 -58q335 0 376 60q29 38 29 93v109q0 73 -255 168q-463 218 -463 415v33q0 218 140 422q87 67 150 73z" />
    <glyph glyph-name="t" unicode="t" horiz-adv-x="974" 
d="M439 1749h10q85 0 122 -194q10 0 13 -97h-23q60 15 110 15q200 0 200 -108q-13 -87 -96 -87l-65 13l-21 -4h-86q6 -36 6 -139v-11l-5 -43l5 -28v-30h-1l1 -4v-43l5 -40l-5 -29l5 -23l-5 -51l-5 -361l5 -29l-14 -155l6 -21l-6 -5q11 -191 114 -397q30 -44 45 -103v-8
q-19 -82 -92 -82q-98 26 -98 65l4 19q-146 157 -197 327q-30 79 -59 359l5 74v89l-7 26l6 6l-9 116l5 19l-5 44l5 19l-5 42v80l5 18l-5 18l5 35l-19 235l-3 -8h-79q-204 0 -204 93q0 32 55 55l48 -6l184 5l3 10l-4 16q0 118 75 275q39 33 71 33z" />
    <glyph glyph-name="u" unicode="u" horiz-adv-x="1136" 
d="M713 1490h21q165 0 268 -504l21 -245q-21 -257 -78 -388q-139 -291 -274 -336q-41 -30 -183 -45q-204 70 -345 330q-121 166 -121 273v125q0 224 173 607q8 51 46 51h42l33 -44q-64 -332 -64 -448v-14q0 -239 265 -549l3 -2q120 164 120 384l-7 56l7 56q-21 297 -42 408
v177q28 108 115 108z" />
    <glyph glyph-name="v" unicode="v" horiz-adv-x="1363" 
d="M1081 1630h7q134 0 147 -151q-366 -1050 -466 -1281l-93 -180q-51 -38 -89 -38h-38q-131 0 -131 233q0 69 -121 358q-106 310 -282 746l-15 110v25q22 110 116 110h15q90 0 123 -112q138 -192 251 -549l124 -349h-31q117 367 361 998q60 80 122 80z" />
    <glyph glyph-name="w" unicode="w" horiz-adv-x="1774" 
d="M1357 1564h28q106 0 125 -143q-43 -85 -43 -189q0 -73 154 -462q58 -167 58 -317l-14 -425q0 -106 -143 -133h-49q-188 60 -655 657q-36 -22 -191 -209q-349 -363 -432 -363h-58q-123 13 -123 105v126l-14 109q112 460 270 869q94 240 173 240h21q80 0 103 -103v-9
q0 -108 -185 -715q-32 -52 -79 -235q372 339 513 513l55 18h25q88 0 129 -145q158 -158 363 -421v36q0 264 -126 576q-72 221 -72 317v87q60 216 167 216z" />
    <glyph glyph-name="x" unicode="x" horiz-adv-x="1609" 
d="M1299 1596h14q112 0 130 -133q0 -164 -131 -344q-59 -117 -251 -382v-10q212 -217 309 -434q20 -12 147 -242v-36q0 -77 -108 -95q-195 0 -372 235q-19 0 -221 236l-15 5q-249 -337 -365 -351q2 4 -67 -19l6 -9v42q-48 0 -81 155q14 134 73 263l126 208
q-210 183 -303 332q-129 181 -153 279q-30 33 -30 64v15q14 118 123 118q63 0 144 -91q230 -207 398 -315l72 -72q7 0 189 240q95 93 200 230q15 0 87 87q40 24 79 24z" />
    <glyph glyph-name="y" unicode="y" horiz-adv-x="1767" 
d="M107 1520h25q233 -56 233 -119q75 -40 205 -188q95 -57 207 -147q35 -6 113 -89l335 303q161 160 295 206h32q107 0 115 -157v-7q0 -138 -258 -422q-117 -150 -529 -563q-157 -154 -266 -300q-138 -160 -226 -160h-37q-166 38 -166 164v28q12 127 209 360l188 226
q-135 114 -210 144q-297 286 -297 353q-82 106 -82 254q29 114 114 114z" />
    <glyph glyph-name="z" unicode="z" horiz-adv-x="2089" 
d="M755 1329q426 0 732 -105l51 14h26q131 0 158 -160q0 -124 -220 -207q-24 -27 -205 -113l-224 -160q-132 -90 -371 -324h-47l109 7l31 -6l19 6l439 -14l56 7l156 -14l362 43q134 -46 134 -148v-15q-21 -145 -154 -145q-207 -63 -340 -63l-103 -15l-7 7l-30 -5l-613 -7
l-68 -9l-6 6l-23 -5h-52q-78 0 -360 -41l-103 -31q-139 36 -139 134v28q0 63 170 199q1 14 287 259q0 28 267 259q306 257 461 344q-226 51 -452 51q-205 21 -205 112q0 111 264 111z" />
    <glyph glyph-name="braceleft" unicode="{" horiz-adv-x="1136" 
d="M203 1755q126 0 451 -345q145 -109 374 -332v-33h-49q-41 43 -273 154q-148 93 -469 395q-103 71 -103 99q0 45 69 62zM322 1055q291 0 598 -188l24 -32q0 -49 -178 -49l-589 72q-104 29 -104 99q0 88 236 98h13zM998 567v-46q-220 -202 -690 -409q-130 -44 -216 -44
q-85 0 -85 68v18q0 66 533 278q154 61 458 135z" />
    <glyph glyph-name="bar" unicode="|" horiz-adv-x="512" 
d="M180 1872q109 0 183 -178l28 -187l-6 -7v1l11 -68l-11 -55l5 -33v-25l-4 -4l11 -57l-6 -17l5 -36l-7 -178h3l-2 6l-5 -69l6 -50l-6 -7v2l11 -57l-6 -29l6 -60l-5 -61l5 -5v-16l-6 -15l12 -167l-6 -28l6 -43l-6 -39l6 -39q-17 -195 -63 -291q-85 -209 -191 -209h-8
q-123 19 -123 120v8l44 184v18l-6 28l6 8v-1l-55 380l5 50l-5 46l5 17l-5 48v30l4 27l-4 5l5 129v78l-5 80l5 16l-11 48l11 191l-5 61l5 129v39l-5 90q35 170 72 170q0 13 102 22z" />
    <glyph glyph-name="braceright" unicode="}" horiz-adv-x="1665" 
d="M1209 1648h18q99 -19 99 -97v-23q0 -161 -556 -407q-607 -251 -674 -309l-27 -25l-47 47q508 416 1011 717q121 97 176 97zM1465 983q48 0 90 -61v-43q0 -156 -387 -227l-133 -15h-247l-551 46h-69v59l1041 163q66 30 256 78zM251 603l92 -16l6 6h31l6 -6l41 6h301
q227 0 607 -140q167 -76 167 -163v-17q-36 -125 -132 -125q-161 0 -861 301q-164 80 -288 91v31z" />
    <glyph glyph-name="asciitilde" unicode="~" horiz-adv-x="1723" 
d="M535 1627h33q271 -38 271 -116l126 -88q42 0 133 -65q48 14 149 27q92 87 217 113q149 -32 149 -139v-18q0 -90 -180 -194q-30 -36 -111 -62q0 -18 -117 -18q-7 -24 -173 -31q-42 0 -172 99q-70 0 -207 156q-77 61 -99 61q-147 0 -209 -97l-150 -112l-80 -21
q-100 23 -100 89v31q0 67 135 185q140 188 298 188q0 11 87 12z" />
    <glyph glyph-name="exclamdown" unicode="&#xa1;" horiz-adv-x="619" 
d="M198 121q-81 201 -122 422l-61 348l5 35l-5 51l5 54l-5 26q5 107 26 183q72 172 191 172q61 0 61 -11q43 0 61 -220q44 -315 115 -600q57 -204 57 -421q-38 -180 -157 -180h-10q-94 0 -161 141zM0 1656l5 43q75 173 192 173q162 0 162 -227q0 -125 -177 -163
q-182 33 -182 174z" />
    <glyph glyph-name="cent" unicode="&#xa2;" horiz-adv-x="923" 
d="M494 1792h17q73 0 90 -318v-52l-2 2h6q148 0 148 -79q0 -78 -164 -78v13l-22 -289l-13 4l26 31h31l6 -6h19q0 -151 -78 -151q-63 -485 -176 -485q-53 54 -53 225v40l-7 43l7 6v-3l-10 56h-17l21 -21v149q-142 23 -225 77q-72 51 -91 142q0 245 341 322q43 372 146 372z
M221 1111v-4q2 -16 102 -48v43l4 16l-5 5l9 100q-110 -32 -110 -112z" />
    <glyph glyph-name="sterling" unicode="&#xa3;" horiz-adv-x="1158" 
d="M604 1171q187 0 187 -187q-12 -116 -56 -116q-42 0 -67 166q-16 17 -68 17h-24q-68 0 -104 -98l12 -290h-18q194 0 389 -84l15 -15v-19q0 -56 -379 -75h-13q9 0 -1 -40q63 0 142 -188q0 -29 165 -50q114 61 168 61q59 -11 59 -39q0 -49 -167 -172l-113 -13
q-243 0 -327 224q-3 21 7 21h6q-3 -9 -200 -205q-48 -70 -134 -89h-11q-72 11 -72 69v7q13 77 108 200q131 161 131 195h20l-80 -6q-173 0 -173 101q14 86 90 86l165 17l14 180q94 336 287 336z" />
    <glyph glyph-name="currency" unicode="&#xa4;" 
 />
    <glyph glyph-name="yen" unicode="&#xa5;" 
 />
    <glyph glyph-name="brokenbar" unicode="&#xa6;" horiz-adv-x="532" 
 />
    <glyph glyph-name="section" unicode="&#xa7;" 
 />
    <glyph glyph-name="dieresis" unicode="&#xa8;" horiz-adv-x="682" 
 />
    <glyph glyph-name="copyright" unicode="&#xa9;" horiz-adv-x="2199" 
d="M1068 1724q373 -24 373 -55l78 -33h43q181 -41 284 -141q0 -18 83 -52q86 -86 122 -192l31 -188v-114q-6 -102 -94 -275q-124 -213 -156 -248q-106 -163 -314 -309l-175 -90l-196 -42h-9l-178 -5l-340 92q-321 25 -363 77q-76 0 -183 207q-38 59 -74 237q0 317 188 632
q152 214 316 296q1 7 112 66q259 137 452 137zM312 688l6 -31l-6 -7v3q7 -90 75 -209q16 -29 133 -29l156 -24l3 4h21l282 -62q99 0 99 -10q137 0 316 162q188 202 210 327q76 119 76 183v25q-15 130 -19 130q-59 12 -135 133q0 7 -145 44q-12 15 -136 66q-2 19 -176 75
q-123 0 -309 -120q-87 -37 -226 -150q-138 -141 -138 -220q-16 -15 -59 -157q-11 -8 -28 -133zM1025 1370l13 -5l35 8l4 -5l6 2q142 0 205 -102q35 -33 35 -78v-5q0 -67 -101 -82l-125 52h-98q-190 -55 -190 -130l-41 -46l6 -80v-33l-6 -40l6 -40v-25q67 -64 161 -64
q53 35 262 52q54 -12 54 5q-11 -7 61 7l26 -25l-56 -79q0 -98 -159 -152q-141 -53 -179 -53h-46q-359 96 -359 292v31q0 317 41 317q0 -1 41 43q0 64 175 175q130 60 229 60z" />
    <glyph glyph-name="ordfeminine" unicode="&#xaa;" horiz-adv-x="758" 
 />
    <glyph glyph-name="guillemotleft" unicode="&#xab;" 
 />
    <glyph glyph-name="logicalnot" unicode="&#xac;" horiz-adv-x="1196" 
 />
    <glyph glyph-name="registered" unicode="&#xae;" horiz-adv-x="2163" 
d="M1045 1687q365 -24 365 -53l77 -33h42q177 -40 278 -138q0 -18 81 -51q84 -84 120 -188l30 -184v-111q-6 -100 -92 -269q-121 -209 -153 -243q-103 -159 -307 -302l-171 -89l-193 -41h-8l-174 -5l-333 90q-316 25 -355 76q-75 0 -180 202q-37 57 -72 233q0 310 184 618
q149 209 309 289q1 8 111 65q252 134 441 134zM306 673l6 -30l-6 -7v3q7 -88 73 -204q16 -28 130 -28l154 -24l3 3h20l276 -60q97 0 97 -10q133 0 307 158q184 198 206 320q75 117 75 180v24q-15 127 -19 127q-57 12 -132 130q0 7 -142 43q-11 14 -133 66q-2 17 -172 72
q-119 0 -302 -118q-85 -36 -221 -146q-135 -138 -135 -214q-15 -16 -57 -155q-11 -8 -28 -130zM1098 1295h47q63 0 89 -118q91 -112 91 -153q0 -114 -91 -134q-177 -72 -228 -72q31 -30 201 -130q123 -116 123 -166v-16q-21 -109 -115 -109h-19q-161 46 -201 87l-272 219h30
v-110l15 -75q0 -151 -75 -151h-10q-71 0 -71 98l-30 140v78q0 272 51 440q13 107 72 107l42 -5l86 15v27l-32 -32h29l2 -3q213 42 266 63zM780 1019q270 5 325 42q-16 44 -31 44h-35q-41 0 -257 -56z" />
    <glyph glyph-name="macron" unicode="&#xaf;" horiz-adv-x="1131" 
 />
    <glyph glyph-name="degree" unicode="&#xb0;" horiz-adv-x="819" 
 />
    <glyph glyph-name="plusminus" unicode="&#xb1;" horiz-adv-x="1124" 
 />
    <glyph glyph-name="uni00B2" unicode="&#xb2;" horiz-adv-x="682" 
 />
    <glyph glyph-name="uni00B3" unicode="&#xb3;" horiz-adv-x="682" 
 />
    <glyph glyph-name="acute" unicode="&#xb4;" horiz-adv-x="872" 
d="M598 1747q181 -44 181 -180v-27q0 -78 -205 -291q-74 -93 -256 -237q-104 -86 -168 -86q-135 29 -135 133v7q0 103 183 337q237 344 389 344h11z" />
    <glyph glyph-name="mu" unicode="&#xb5;" horiz-adv-x="1180" 
 />
    <glyph glyph-name="paragraph" unicode="&#xb6;" horiz-adv-x="1100" 
 />
    <glyph glyph-name="periodcentered" unicode="&#xb7;" horiz-adv-x="569" 
 />
    <glyph glyph-name="periodcentered" unicode="&#x2219;" horiz-adv-x="569" 
 />
    <glyph glyph-name="cedilla" unicode="&#xb8;" horiz-adv-x="682" 
 />
    <glyph glyph-name="uni00B9" unicode="&#xb9;" horiz-adv-x="682" 
 />
    <glyph glyph-name="ordmasculine" unicode="&#xba;" horiz-adv-x="748" 
 />
    <glyph glyph-name="guillemotright" unicode="&#xbb;" 
 />
    <glyph glyph-name="onequarter" unicode="&#xbc;" horiz-adv-x="1708" 
 />
    <glyph glyph-name="onehalf" unicode="&#xbd;" horiz-adv-x="1708" 
 />
    <glyph glyph-name="threequarters" unicode="&#xbe;" horiz-adv-x="1708" 
 />
    <glyph glyph-name="questiondown" unicode="&#xbf;" horiz-adv-x="1150" 
d="M594 -20q-232 16 -440 145q-154 117 -154 227v33q0 35 81 189q379 408 469 552l91 145q14 0 82 74q62 27 112 27q150 0 176 -188q-23 -215 -56 -215q0 -53 -346 -449l-139 -156q110 -98 304 -98l4 -4l27 4q156 0 156 -110v-5q0 -146 -320 -171h-47zM851 1516
q-153 30 -153 143v28q0 93 158 171h27q133 -23 133 -126v-45q0 -125 -118 -164z" />
    <glyph glyph-name="Agrave" unicode="&#xc0;" horiz-adv-x="1366" 
 />
    <glyph glyph-name="Aacute" unicode="&#xc1;" horiz-adv-x="1366" 
 />
    <glyph glyph-name="Acircumflex" unicode="&#xc2;" horiz-adv-x="1366" 
 />
    <glyph glyph-name="Atilde" unicode="&#xc3;" horiz-adv-x="1366" 
 />
    <glyph glyph-name="Adieresis" unicode="&#xc4;" horiz-adv-x="1366" 
 />
    <glyph glyph-name="Aring" unicode="&#xc5;" horiz-adv-x="1366" 
 />
    <glyph glyph-name="AE" unicode="&#xc6;" horiz-adv-x="2048" 
 />
    <glyph glyph-name="Ccedilla" unicode="&#xc7;" horiz-adv-x="1479" 
 />
    <glyph glyph-name="Egrave" unicode="&#xc8;" horiz-adv-x="1366" 
 />
    <glyph glyph-name="Eacute" unicode="&#xc9;" horiz-adv-x="1366" 
 />
    <glyph glyph-name="Ecircumflex" unicode="&#xca;" horiz-adv-x="1366" 
 />
    <glyph glyph-name="Edieresis" unicode="&#xcb;" horiz-adv-x="1366" 
 />
    <glyph glyph-name="Igrave" unicode="&#xcc;" horiz-adv-x="569" 
 />
    <glyph glyph-name="Iacute" unicode="&#xcd;" horiz-adv-x="569" 
 />
    <glyph glyph-name="Icircumflex" unicode="&#xce;" horiz-adv-x="569" 
 />
    <glyph glyph-name="Idieresis" unicode="&#xcf;" horiz-adv-x="569" 
 />
    <glyph glyph-name="Eth" unicode="&#xd0;" horiz-adv-x="1479" 
 />
    <glyph glyph-name="Ntilde" unicode="&#xd1;" horiz-adv-x="1479" 
 />
    <glyph glyph-name="Ograve" unicode="&#xd2;" horiz-adv-x="1593" 
 />
    <glyph glyph-name="Oacute" unicode="&#xd3;" horiz-adv-x="1593" 
 />
    <glyph glyph-name="Ocircumflex" unicode="&#xd4;" horiz-adv-x="1593" 
 />
    <glyph glyph-name="Otilde" unicode="&#xd5;" horiz-adv-x="1593" 
 />
    <glyph glyph-name="Odieresis" unicode="&#xd6;" horiz-adv-x="1593" 
 />
    <glyph glyph-name="multiply" unicode="&#xd7;" horiz-adv-x="1196" 
 />
    <glyph glyph-name="Oslash" unicode="&#xd8;" horiz-adv-x="1593" 
 />
    <glyph glyph-name="Ugrave" unicode="&#xd9;" horiz-adv-x="1479" 
 />
    <glyph glyph-name="Uacute" unicode="&#xda;" horiz-adv-x="1479" 
 />
    <glyph glyph-name="Ucircumflex" unicode="&#xdb;" horiz-adv-x="1479" 
 />
    <glyph glyph-name="Udieresis" unicode="&#xdc;" horiz-adv-x="1479" 
 />
    <glyph glyph-name="Yacute" unicode="&#xdd;" horiz-adv-x="1366" 
 />
    <glyph glyph-name="Thorn" unicode="&#xde;" horiz-adv-x="1366" 
 />
    <glyph glyph-name="germandbls" unicode="&#xdf;" horiz-adv-x="1251" 
 />
    <glyph glyph-name="agrave" unicode="&#xe0;" 
 />
    <glyph glyph-name="aacute" unicode="&#xe1;" 
 />
    <glyph glyph-name="acircumflex" unicode="&#xe2;" 
 />
    <glyph glyph-name="atilde" unicode="&#xe3;" 
 />
    <glyph glyph-name="adieresis" unicode="&#xe4;" 
 />
    <glyph glyph-name="aring" unicode="&#xe5;" 
 />
    <glyph glyph-name="ae" unicode="&#xe6;" horiz-adv-x="1821" 
 />
    <glyph glyph-name="ccedilla" unicode="&#xe7;" horiz-adv-x="1024" 
 />
    <glyph glyph-name="egrave" unicode="&#xe8;" 
 />
    <glyph glyph-name="eacute" unicode="&#xe9;" 
 />
    <glyph glyph-name="ecircumflex" unicode="&#xea;" 
 />
    <glyph glyph-name="edieresis" unicode="&#xeb;" 
 />
    <glyph glyph-name="igrave" unicode="&#xec;" horiz-adv-x="569" 
 />
    <glyph glyph-name="iacute" unicode="&#xed;" horiz-adv-x="569" 
 />
    <glyph glyph-name="icircumflex" unicode="&#xee;" horiz-adv-x="569" 
 />
    <glyph glyph-name="idieresis" unicode="&#xef;" horiz-adv-x="569" 
 />
    <glyph glyph-name="eth" unicode="&#xf0;" 
 />
    <glyph glyph-name="ntilde" unicode="&#xf1;" 
 />
    <glyph glyph-name="ograve" unicode="&#xf2;" 
 />
    <glyph glyph-name="oacute" unicode="&#xf3;" 
 />
    <glyph glyph-name="ocircumflex" unicode="&#xf4;" 
 />
    <glyph glyph-name="otilde" unicode="&#xf5;" 
 />
    <glyph glyph-name="odieresis" unicode="&#xf6;" 
 />
    <glyph glyph-name="divide" unicode="&#xf7;" horiz-adv-x="1124" 
 />
    <glyph glyph-name="oslash" unicode="&#xf8;" horiz-adv-x="1251" 
 />
    <glyph glyph-name="ugrave" unicode="&#xf9;" 
 />
    <glyph glyph-name="uacute" unicode="&#xfa;" 
 />
    <glyph glyph-name="ucircumflex" unicode="&#xfb;" 
 />
    <glyph glyph-name="udieresis" unicode="&#xfc;" 
 />
    <glyph glyph-name="yacute" unicode="&#xfd;" horiz-adv-x="1024" 
 />
    <glyph glyph-name="thorn" unicode="&#xfe;" 
 />
    <glyph glyph-name="ydieresis" unicode="&#xff;" horiz-adv-x="1024" 
 />
    <glyph glyph-name="Amacron" unicode="&#x100;" horiz-adv-x="1366" 
 />
    <glyph glyph-name="amacron" unicode="&#x101;" 
 />
    <glyph glyph-name="Abreve" unicode="&#x102;" horiz-adv-x="1366" 
 />
    <glyph glyph-name="abreve" unicode="&#x103;" 
 />
    <glyph glyph-name="Aogonek" unicode="&#x104;" horiz-adv-x="1366" 
 />
    <glyph glyph-name="aogonek" unicode="&#x105;" 
 />
    <glyph glyph-name="Cacute" unicode="&#x106;" horiz-adv-x="1479" 
 />
    <glyph glyph-name="cacute" unicode="&#x107;" horiz-adv-x="1024" 
 />
    <glyph glyph-name="Ccircumflex" unicode="&#x108;" horiz-adv-x="1479" 
 />
    <glyph glyph-name="ccircumflex" unicode="&#x109;" horiz-adv-x="1024" 
 />
    <glyph glyph-name="Cdotaccent" unicode="&#x10a;" horiz-adv-x="1479" 
 />
    <glyph glyph-name="cdotaccent" unicode="&#x10b;" horiz-adv-x="1024" 
 />
    <glyph glyph-name="Ccaron" unicode="&#x10c;" horiz-adv-x="1479" 
 />
    <glyph glyph-name="ccaron" unicode="&#x10d;" horiz-adv-x="1024" 
 />
    <glyph glyph-name="Dcaron" unicode="&#x10e;" horiz-adv-x="1479" 
 />
    <glyph glyph-name="dcaron" unicode="&#x10f;" horiz-adv-x="1259" 
 />
    <glyph glyph-name="Dcroat" unicode="&#x110;" horiz-adv-x="1479" 
 />
    <glyph glyph-name="dcroat" unicode="&#x111;" 
 />
    <glyph glyph-name="Emacron" unicode="&#x112;" horiz-adv-x="1366" 
 />
    <glyph glyph-name="emacron" unicode="&#x113;" 
 />
    <glyph glyph-name="Ebreve" unicode="&#x114;" horiz-adv-x="1366" 
 />
    <glyph glyph-name="ebreve" unicode="&#x115;" 
 />
    <glyph glyph-name="Edotaccent" unicode="&#x116;" horiz-adv-x="1366" 
 />
    <glyph glyph-name="edotaccent" unicode="&#x117;" 
 />
    <glyph glyph-name="Eogonek" unicode="&#x118;" horiz-adv-x="1366" 
 />
    <glyph glyph-name="eogonek" unicode="&#x119;" 
 />
    <glyph glyph-name="Ecaron" unicode="&#x11a;" horiz-adv-x="1366" 
 />
    <glyph glyph-name="ecaron" unicode="&#x11b;" 
 />
    <glyph glyph-name="Gcircumflex" unicode="&#x11c;" horiz-adv-x="1593" 
 />
    <glyph glyph-name="gcircumflex" unicode="&#x11d;" 
 />
    <glyph glyph-name="Gbreve" unicode="&#x11e;" horiz-adv-x="1593" 
 />
    <glyph glyph-name="gbreve" unicode="&#x11f;" 
 />
    <glyph glyph-name="Gdotaccent" unicode="&#x120;" horiz-adv-x="1593" 
 />
    <glyph glyph-name="gdotaccent" unicode="&#x121;" 
 />
    <glyph glyph-name="Gcommaaccent" unicode="&#x122;" horiz-adv-x="1593" 
 />
    <glyph glyph-name="gcommaaccent" unicode="&#x123;" 
 />
    <glyph glyph-name="Hcircumflex" unicode="&#x124;" horiz-adv-x="1479" 
 />
    <glyph glyph-name="hcircumflex" unicode="&#x125;" 
 />
    <glyph glyph-name="Hbar" unicode="&#x126;" horiz-adv-x="1479" 
 />
    <glyph glyph-name="hbar" unicode="&#x127;" 
 />
    <glyph glyph-name="Itilde" unicode="&#x128;" horiz-adv-x="569" 
 />
    <glyph glyph-name="itilde" unicode="&#x129;" horiz-adv-x="569" 
 />
    <glyph glyph-name="Imacron" unicode="&#x12a;" horiz-adv-x="569" 
 />
    <glyph glyph-name="imacron" unicode="&#x12b;" horiz-adv-x="569" 
 />
    <glyph glyph-name="Ibreve" unicode="&#x12c;" horiz-adv-x="569" 
 />
    <glyph glyph-name="ibreve" unicode="&#x12d;" horiz-adv-x="569" 
 />
    <glyph glyph-name="Iogonek" unicode="&#x12e;" horiz-adv-x="569" 
 />
    <glyph glyph-name="iogonek" unicode="&#x12f;" horiz-adv-x="455" 
 />
    <glyph glyph-name="Idotaccent" unicode="&#x130;" horiz-adv-x="569" 
 />
    <glyph glyph-name="dotlessi" unicode="&#x131;" horiz-adv-x="569" 
 />
    <glyph glyph-name="IJ" unicode="&#x132;" horiz-adv-x="1505" 
 />
    <glyph glyph-name="ij" unicode="&#x133;" horiz-adv-x="909" 
 />
    <glyph glyph-name="Jcircumflex" unicode="&#x134;" horiz-adv-x="1024" 
 />
    <glyph glyph-name="jcircumflex" unicode="&#x135;" horiz-adv-x="455" 
 />
    <glyph glyph-name="Kcommaaccent" unicode="&#x136;" horiz-adv-x="1366" 
 />
    <glyph glyph-name="kcommaaccent" unicode="&#x137;" horiz-adv-x="1024" 
 />
    <glyph glyph-name="kgreenlandic" unicode="&#x138;" horiz-adv-x="1024" 
 />
    <glyph glyph-name="Lacute" unicode="&#x139;" 
 />
    <glyph glyph-name="lacute" unicode="&#x13a;" horiz-adv-x="455" 
 />
    <glyph glyph-name="Lcommaaccent" unicode="&#x13b;" 
 />
    <glyph glyph-name="lcommaaccent" unicode="&#x13c;" horiz-adv-x="455" 
 />
    <glyph glyph-name="Lcaron" unicode="&#x13d;" 
 />
    <glyph glyph-name="lcaron" unicode="&#x13e;" horiz-adv-x="597" 
 />
    <glyph glyph-name="Ldot" unicode="&#x13f;" 
 />
    <glyph glyph-name="ldot" unicode="&#x140;" horiz-adv-x="684" 
 />
    <glyph glyph-name="Lslash" unicode="&#x141;" 
 />
    <glyph glyph-name="lslash" unicode="&#x142;" horiz-adv-x="455" 
 />
    <glyph glyph-name="Nacute" unicode="&#x143;" horiz-adv-x="1479" 
 />
    <glyph glyph-name="nacute" unicode="&#x144;" 
 />
    <glyph glyph-name="Ncommaaccent" unicode="&#x145;" horiz-adv-x="1479" 
 />
    <glyph glyph-name="ncommaaccent" unicode="&#x146;" 
 />
    <glyph glyph-name="Ncaron" unicode="&#x147;" horiz-adv-x="1479" 
 />
    <glyph glyph-name="ncaron" unicode="&#x148;" 
 />
    <glyph glyph-name="napostrophe" unicode="&#x149;" horiz-adv-x="1237" 
 />
    <glyph glyph-name="Eng" unicode="&#x14a;" horiz-adv-x="1481" 
 />
    <glyph glyph-name="eng" unicode="&#x14b;" 
 />
    <glyph glyph-name="Omacron" unicode="&#x14c;" horiz-adv-x="1593" 
 />
    <glyph glyph-name="omacron" unicode="&#x14d;" 
 />
    <glyph glyph-name="Obreve" unicode="&#x14e;" horiz-adv-x="1593" 
 />
    <glyph glyph-name="obreve" unicode="&#x14f;" 
 />
    <glyph glyph-name="Ohungarumlaut" unicode="&#x150;" horiz-adv-x="1593" 
 />
    <glyph glyph-name="ohungarumlaut" unicode="&#x151;" 
 />
    <glyph glyph-name="OE" unicode="&#x152;" horiz-adv-x="2048" 
 />
    <glyph glyph-name="oe" unicode="&#x153;" horiz-adv-x="1933" 
 />
    <glyph glyph-name="Racute" unicode="&#x154;" horiz-adv-x="1479" 
 />
    <glyph glyph-name="racute" unicode="&#x155;" horiz-adv-x="682" 
 />
    <glyph glyph-name="Rcommaaccent" unicode="&#x156;" horiz-adv-x="1479" 
 />
    <glyph glyph-name="rcommaaccent" unicode="&#x157;" horiz-adv-x="682" 
 />
    <glyph glyph-name="Rcaron" unicode="&#x158;" horiz-adv-x="1479" 
 />
    <glyph glyph-name="rcaron" unicode="&#x159;" horiz-adv-x="682" 
 />
    <glyph glyph-name="Sacute" unicode="&#x15a;" horiz-adv-x="1366" 
 />
    <glyph glyph-name="sacute" unicode="&#x15b;" horiz-adv-x="1024" 
 />
    <glyph glyph-name="Scircumflex" unicode="&#x15c;" horiz-adv-x="1366" 
 />
    <glyph glyph-name="scircumflex" unicode="&#x15d;" horiz-adv-x="1024" 
 />
    <glyph glyph-name="Scedilla" unicode="&#x15e;" horiz-adv-x="1366" 
 />
    <glyph glyph-name="scedilla" unicode="&#x15f;" horiz-adv-x="1024" 
 />
    <glyph glyph-name="Scaron" unicode="&#x160;" horiz-adv-x="1366" 
 />
    <glyph glyph-name="scaron" unicode="&#x161;" horiz-adv-x="1024" 
 />
    <glyph glyph-name="Tcommaaccent" unicode="&#x162;" horiz-adv-x="1251" 
 />
    <glyph glyph-name="tcommaaccent" unicode="&#x163;" horiz-adv-x="569" 
 />
    <glyph glyph-name="Tcaron" unicode="&#x164;" horiz-adv-x="1251" 
 />
    <glyph glyph-name="tcaron" unicode="&#x165;" horiz-adv-x="768" 
 />
    <glyph glyph-name="Tbar" unicode="&#x166;" horiz-adv-x="1251" 
 />
    <glyph glyph-name="tbar" unicode="&#x167;" horiz-adv-x="569" 
 />
    <glyph glyph-name="Utilde" unicode="&#x168;" horiz-adv-x="1479" 
 />
    <glyph glyph-name="utilde" unicode="&#x169;" 
 />
    <glyph glyph-name="Umacron" unicode="&#x16a;" horiz-adv-x="1479" 
 />
    <glyph glyph-name="umacron" unicode="&#x16b;" 
 />
    <glyph glyph-name="Ubreve" unicode="&#x16c;" horiz-adv-x="1479" 
 />
    <glyph glyph-name="ubreve" unicode="&#x16d;" 
 />
    <glyph glyph-name="Uring" unicode="&#x16e;" horiz-adv-x="1479" 
 />
    <glyph glyph-name="uring" unicode="&#x16f;" 
 />
    <glyph glyph-name="Uhungarumlaut" unicode="&#x170;" horiz-adv-x="1479" 
 />
    <glyph glyph-name="uhungarumlaut" unicode="&#x171;" 
 />
    <glyph glyph-name="Uogonek" unicode="&#x172;" horiz-adv-x="1479" 
 />
    <glyph glyph-name="uogonek" unicode="&#x173;" 
 />
    <glyph glyph-name="Wcircumflex" unicode="&#x174;" horiz-adv-x="1933" 
 />
    <glyph glyph-name="wcircumflex" unicode="&#x175;" horiz-adv-x="1479" 
 />
    <glyph glyph-name="Ycircumflex" unicode="&#x176;" horiz-adv-x="1366" 
 />
    <glyph glyph-name="ycircumflex" unicode="&#x177;" horiz-adv-x="1024" 
 />
    <glyph glyph-name="Ydieresis" unicode="&#x178;" horiz-adv-x="1366" 
 />
    <glyph glyph-name="Zacute" unicode="&#x179;" horiz-adv-x="1251" 
 />
    <glyph glyph-name="zacute" unicode="&#x17a;" horiz-adv-x="1024" 
 />
    <glyph glyph-name="Zdotaccent" unicode="&#x17b;" horiz-adv-x="1251" 
 />
    <glyph glyph-name="zdotaccent" unicode="&#x17c;" horiz-adv-x="1024" 
 />
    <glyph glyph-name="Zcaron" unicode="&#x17d;" horiz-adv-x="1251" 
 />
    <glyph glyph-name="zcaron" unicode="&#x17e;" horiz-adv-x="1024" 
 />
    <glyph glyph-name="longs" unicode="&#x17f;" horiz-adv-x="455" 
 />
    <glyph glyph-name="florin" unicode="&#x192;" 
 />
    <glyph glyph-name="Aringacute" unicode="&#x1fa;" horiz-adv-x="1366" 
 />
    <glyph glyph-name="aringacute" unicode="&#x1fb;" 
 />
    <glyph glyph-name="AEacute" unicode="&#x1fc;" horiz-adv-x="2048" 
 />
    <glyph glyph-name="aeacute" unicode="&#x1fd;" horiz-adv-x="1821" 
 />
    <glyph glyph-name="Oslashacute" unicode="&#x1fe;" horiz-adv-x="1593" 
 />
    <glyph glyph-name="oslashacute" unicode="&#x1ff;" horiz-adv-x="1251" 
 />
    <glyph glyph-name="circumflex" unicode="&#x2c6;" horiz-adv-x="682" 
 />
    <glyph glyph-name="caron" unicode="&#x2c7;" horiz-adv-x="682" 
 />
    <glyph glyph-name="uni02C9" unicode="&#x2c9;" horiz-adv-x="682" 
 />
    <glyph glyph-name="breve" unicode="&#x2d8;" horiz-adv-x="682" 
 />
    <glyph glyph-name="dotaccent" unicode="&#x2d9;" horiz-adv-x="682" 
 />
    <glyph glyph-name="ring" unicode="&#x2da;" horiz-adv-x="682" 
 />
    <glyph glyph-name="ogonek" unicode="&#x2db;" horiz-adv-x="682" 
 />
    <glyph glyph-name="tilde" unicode="&#x2dc;" horiz-adv-x="682" 
 />
    <glyph glyph-name="hungarumlaut" unicode="&#x2dd;" horiz-adv-x="682" 
 />
    <glyph glyph-name="tonos" unicode="&#x384;" horiz-adv-x="682" 
 />
    <glyph glyph-name="dieresistonos" unicode="&#x385;" horiz-adv-x="682" 
 />
    <glyph glyph-name="Alphatonos" unicode="&#x386;" horiz-adv-x="1367" 
 />
    <glyph glyph-name="anoteleia" unicode="&#x387;" horiz-adv-x="569" 
 />
    <glyph glyph-name="Epsilontonos" unicode="&#x388;" horiz-adv-x="1606" 
 />
    <glyph glyph-name="Etatonos" unicode="&#x389;" horiz-adv-x="1716" 
 />
    <glyph glyph-name="Iotatonos" unicode="&#x38a;" horiz-adv-x="786" 
 />
    <glyph glyph-name="Omicrontonos" unicode="&#x38c;" horiz-adv-x="1586" 
 />
    <glyph glyph-name="Upsilontonos" unicode="&#x38e;" horiz-adv-x="1752" 
 />
    <glyph glyph-name="Omegatonos" unicode="&#x38f;" horiz-adv-x="1541" 
 />
    <glyph glyph-name="iotadieresistonos" unicode="&#x390;" horiz-adv-x="455" 
 />
    <glyph glyph-name="Alpha" unicode="&#x391;" horiz-adv-x="1366" 
 />
    <glyph glyph-name="Beta" unicode="&#x392;" horiz-adv-x="1366" 
 />
    <glyph glyph-name="Gamma" unicode="&#x393;" horiz-adv-x="1128" 
 />
    <glyph glyph-name="uni0394" unicode="&#x394;" horiz-adv-x="1368" 
 />
    <glyph glyph-name="Epsilon" unicode="&#x395;" horiz-adv-x="1366" 
 />
    <glyph glyph-name="Zeta" unicode="&#x396;" horiz-adv-x="1251" 
 />
    <glyph glyph-name="Eta" unicode="&#x397;" horiz-adv-x="1479" 
 />
    <glyph glyph-name="Theta" unicode="&#x398;" horiz-adv-x="1593" 
 />
    <glyph glyph-name="Iota" unicode="&#x399;" horiz-adv-x="569" 
 />
    <glyph glyph-name="Kappa" unicode="&#x39a;" horiz-adv-x="1366" 
 />
    <glyph glyph-name="Lambda" unicode="&#x39b;" horiz-adv-x="1368" 
 />
    <glyph glyph-name="Mu" unicode="&#x39c;" horiz-adv-x="1706" 
 />
    <glyph glyph-name="Nu" unicode="&#x39d;" horiz-adv-x="1479" 
 />
    <glyph glyph-name="Xi" unicode="&#x39e;" horiz-adv-x="1331" 
 />
    <glyph glyph-name="Omicron" unicode="&#x39f;" horiz-adv-x="1593" 
 />
    <glyph glyph-name="Pi" unicode="&#x3a0;" horiz-adv-x="1479" 
 />
    <glyph glyph-name="Rho" unicode="&#x3a1;" horiz-adv-x="1366" 
 />
    <glyph glyph-name="Sigma" unicode="&#x3a3;" horiz-adv-x="1266" 
 />
    <glyph glyph-name="Tau" unicode="&#x3a4;" horiz-adv-x="1251" 
 />
    <glyph glyph-name="Upsilon" unicode="&#x3a5;" horiz-adv-x="1366" 
 />
    <glyph glyph-name="Phi" unicode="&#x3a6;" horiz-adv-x="1634" 
 />
    <glyph glyph-name="Chi" unicode="&#x3a7;" horiz-adv-x="1366" 
 />
    <glyph glyph-name="Psi" unicode="&#x3a8;" horiz-adv-x="1711" 
 />
    <glyph glyph-name="uni03A9" unicode="&#x3a9;" horiz-adv-x="1531" 
 />
    <glyph glyph-name="Iotadieresis" unicode="&#x3aa;" horiz-adv-x="569" 
 />
    <glyph glyph-name="Upsilondieresis" unicode="&#x3ab;" horiz-adv-x="1366" 
 />
    <glyph glyph-name="alphatonos" unicode="&#x3ac;" horiz-adv-x="1184" 
 />
    <glyph glyph-name="epsilontonos" unicode="&#x3ad;" horiz-adv-x="913" 
 />
    <glyph glyph-name="etatonos" unicode="&#x3ae;" 
 />
    <glyph glyph-name="iotatonos" unicode="&#x3af;" horiz-adv-x="455" 
 />
    <glyph glyph-name="upsilondieresistonos" unicode="&#x3b0;" horiz-adv-x="1120" 
 />
    <glyph glyph-name="alpha" unicode="&#x3b1;" horiz-adv-x="1184" 
 />
    <glyph glyph-name="beta" unicode="&#x3b2;" horiz-adv-x="1178" 
 />
    <glyph glyph-name="gamma" unicode="&#x3b3;" horiz-adv-x="1024" 
 />
    <glyph glyph-name="delta" unicode="&#x3b4;" horiz-adv-x="1140" 
 />
    <glyph glyph-name="epsilon" unicode="&#x3b5;" horiz-adv-x="913" 
 />
    <glyph glyph-name="zeta" unicode="&#x3b6;" horiz-adv-x="903" 
 />
    <glyph glyph-name="eta" unicode="&#x3b7;" 
 />
    <glyph glyph-name="theta" unicode="&#x3b8;" 
 />
    <glyph glyph-name="iota" unicode="&#x3b9;" horiz-adv-x="455" 
 />
    <glyph glyph-name="kappa" unicode="&#x3ba;" horiz-adv-x="1024" 
 />
    <glyph glyph-name="lambda" unicode="&#x3bb;" horiz-adv-x="1024" 
 />
    <glyph glyph-name="uni03BC" unicode="&#x3bc;" horiz-adv-x="1180" 
 />
    <glyph glyph-name="nu" unicode="&#x3bd;" horiz-adv-x="1024" 
 />
    <glyph glyph-name="xi" unicode="&#x3be;" horiz-adv-x="917" 
 />
    <glyph glyph-name="omicron" unicode="&#x3bf;" 
 />
    <glyph glyph-name="pi" unicode="&#x3c0;" horiz-adv-x="1413" 
 />
    <glyph glyph-name="rho" unicode="&#x3c1;" horiz-adv-x="1165" 
 />
    <glyph glyph-name="sigma1" unicode="&#x3c2;" horiz-adv-x="987" 
 />
    <glyph glyph-name="sigma" unicode="&#x3c3;" horiz-adv-x="1264" 
 />
    <glyph glyph-name="tau" unicode="&#x3c4;" horiz-adv-x="809" 
 />
    <glyph glyph-name="upsilon" unicode="&#x3c5;" horiz-adv-x="1120" 
 />
    <glyph glyph-name="phi" unicode="&#x3c6;" horiz-adv-x="1328" 
 />
    <glyph glyph-name="chi" unicode="&#x3c7;" horiz-adv-x="1075" 
 />
    <glyph glyph-name="psi" unicode="&#x3c8;" horiz-adv-x="1460" 
 />
    <glyph glyph-name="omega" unicode="&#x3c9;" horiz-adv-x="1599" 
 />
    <glyph glyph-name="iotadieresis" unicode="&#x3ca;" horiz-adv-x="455" 
 />
    <glyph glyph-name="upsilondieresis" unicode="&#x3cb;" horiz-adv-x="1120" 
 />
    <glyph glyph-name="omicrontonos" unicode="&#x3cc;" 
 />
    <glyph glyph-name="upsilontonos" unicode="&#x3cd;" horiz-adv-x="1120" 
 />
    <glyph glyph-name="omegatonos" unicode="&#x3ce;" horiz-adv-x="1599" 
 />
    <glyph glyph-name="afii10023" unicode="&#x401;" horiz-adv-x="1367" 
 />
    <glyph glyph-name="afii10051" unicode="&#x402;" horiz-adv-x="1771" 
 />
    <glyph glyph-name="afii10052" unicode="&#x403;" horiz-adv-x="1109" 
 />
    <glyph glyph-name="afii10053" unicode="&#x404;" horiz-adv-x="1472" 
 />
    <glyph glyph-name="afii10054" unicode="&#x405;" horiz-adv-x="1366" 
 />
    <glyph glyph-name="afii10055" unicode="&#x406;" horiz-adv-x="569" 
 />
    <glyph glyph-name="afii10056" unicode="&#x407;" horiz-adv-x="569" 
 />
    <glyph glyph-name="afii10057" unicode="&#x408;" horiz-adv-x="1024" 
 />
    <glyph glyph-name="afii10058" unicode="&#x409;" horiz-adv-x="2165" 
 />
    <glyph glyph-name="afii10059" unicode="&#x40a;" horiz-adv-x="2069" 
 />
    <glyph glyph-name="afii10060" unicode="&#x40b;" horiz-adv-x="1749" 
 />
    <glyph glyph-name="afii10061" unicode="&#x40c;" horiz-adv-x="1193" 
 />
    <glyph glyph-name="afii10062" unicode="&#x40e;" horiz-adv-x="1301" 
 />
    <glyph glyph-name="afii10145" unicode="&#x40f;" horiz-adv-x="1472" 
 />
    <glyph glyph-name="afii10017" unicode="&#x410;" horiz-adv-x="1366" 
 />
    <glyph glyph-name="afii10018" unicode="&#x411;" horiz-adv-x="1344" 
 />
    <glyph glyph-name="afii10019" unicode="&#x412;" horiz-adv-x="1366" 
 />
    <glyph glyph-name="afii10020" unicode="&#x413;" horiz-adv-x="1109" 
 />
    <glyph glyph-name="afii10021" unicode="&#x414;" horiz-adv-x="1387" 
 />
    <glyph glyph-name="afii10022" unicode="&#x415;" horiz-adv-x="1366" 
 />
    <glyph glyph-name="afii10024" unicode="&#x416;" horiz-adv-x="1891" 
 />
    <glyph glyph-name="afii10025" unicode="&#x417;" horiz-adv-x="1237" 
 />
    <glyph glyph-name="afii10026" unicode="&#x418;" horiz-adv-x="1472" 
 />
    <glyph glyph-name="afii10027" unicode="&#x419;" horiz-adv-x="1472" 
 />
    <glyph glyph-name="afii10028" unicode="&#x41a;" horiz-adv-x="1193" 
 />
    <glyph glyph-name="afii10029" unicode="&#x41b;" horiz-adv-x="1344" 
 />
    <glyph glyph-name="afii10030" unicode="&#x41c;" horiz-adv-x="1706" 
 />
    <glyph glyph-name="afii10031" unicode="&#x41d;" horiz-adv-x="1479" 
 />
    <glyph glyph-name="afii10032" unicode="&#x41e;" horiz-adv-x="1593" 
 />
    <glyph glyph-name="afii10033" unicode="&#x41f;" horiz-adv-x="1472" 
 />
    <glyph glyph-name="afii10034" unicode="&#x420;" horiz-adv-x="1366" 
 />
    <glyph glyph-name="afii10035" unicode="&#x421;" horiz-adv-x="1479" 
 />
    <glyph glyph-name="afii10036" unicode="&#x422;" horiz-adv-x="1251" 
 />
    <glyph glyph-name="afii10037" unicode="&#x423;" horiz-adv-x="1301" 
 />
    <glyph glyph-name="afii10038" unicode="&#x424;" horiz-adv-x="1557" 
 />
    <glyph glyph-name="afii10039" unicode="&#x425;" horiz-adv-x="1366" 
 />
    <glyph glyph-name="afii10040" unicode="&#x426;" horiz-adv-x="1515" 
 />
    <glyph glyph-name="afii10041" unicode="&#x427;" horiz-adv-x="1365" 
 />
    <glyph glyph-name="afii10042" unicode="&#x428;" horiz-adv-x="1877" 
 />
    <glyph glyph-name="afii10043" unicode="&#x429;" horiz-adv-x="1920" 
 />
    <glyph glyph-name="afii10044" unicode="&#x42a;" horiz-adv-x="1621" 
 />
    <glyph glyph-name="afii10045" unicode="&#x42b;" horiz-adv-x="1813" 
 />
    <glyph glyph-name="afii10046" unicode="&#x42c;" horiz-adv-x="1344" 
 />
    <glyph glyph-name="afii10047" unicode="&#x42d;" horiz-adv-x="1472" 
 />
    <glyph glyph-name="afii10048" unicode="&#x42e;" horiz-adv-x="2069" 
 />
    <glyph glyph-name="afii10049" unicode="&#x42f;" horiz-adv-x="1479" 
 />
    <glyph glyph-name="afii10065" unicode="&#x430;" 
 />
    <glyph glyph-name="afii10066" unicode="&#x431;" horiz-adv-x="1173" 
 />
    <glyph glyph-name="afii10067" unicode="&#x432;" horiz-adv-x="1088" 
 />
    <glyph glyph-name="afii10068" unicode="&#x433;" horiz-adv-x="747" 
 />
    <glyph glyph-name="afii10069" unicode="&#x434;" horiz-adv-x="1195" 
 />
    <glyph glyph-name="afii10070" unicode="&#x435;" 
 />
    <glyph glyph-name="afii10072" unicode="&#x436;" horiz-adv-x="1370" 
 />
    <glyph glyph-name="afii10073" unicode="&#x437;" horiz-adv-x="939" 
 />
    <glyph glyph-name="afii10074" unicode="&#x438;" horiz-adv-x="1144" 
 />
    <glyph glyph-name="afii10075" unicode="&#x439;" horiz-adv-x="1144" 
 />
    <glyph glyph-name="afii10076" unicode="&#x43a;" horiz-adv-x="896" 
 />
    <glyph glyph-name="afii10077" unicode="&#x43b;" horiz-adv-x="1195" 
 />
    <glyph glyph-name="afii10078" unicode="&#x43c;" horiz-adv-x="1408" 
 />
    <glyph glyph-name="afii10079" unicode="&#x43d;" horiz-adv-x="1131" 
 />
    <glyph glyph-name="afii10080" unicode="&#x43e;" 
 />
    <glyph glyph-name="afii10081" unicode="&#x43f;" horiz-adv-x="1109" 
 />
    <glyph glyph-name="afii10082" unicode="&#x440;" 
 />
    <glyph glyph-name="afii10083" unicode="&#x441;" horiz-adv-x="1024" 
 />
    <glyph glyph-name="afii10084" unicode="&#x442;" horiz-adv-x="938" 
 />
    <glyph glyph-name="afii10085" unicode="&#x443;" horiz-adv-x="1024" 
 />
    <glyph glyph-name="afii10086" unicode="&#x444;" horiz-adv-x="1685" 
 />
    <glyph glyph-name="afii10087" unicode="&#x445;" horiz-adv-x="1024" 
 />
    <glyph glyph-name="afii10088" unicode="&#x446;" horiz-adv-x="1173" 
 />
    <glyph glyph-name="afii10089" unicode="&#x447;" horiz-adv-x="1067" 
 />
    <glyph glyph-name="afii10090" unicode="&#x448;" horiz-adv-x="1643" 
 />
    <glyph glyph-name="afii10091" unicode="&#x449;" horiz-adv-x="1685" 
 />
    <glyph glyph-name="afii10092" unicode="&#x44a;" horiz-adv-x="1280" 
 />
    <glyph glyph-name="afii10093" unicode="&#x44b;" horiz-adv-x="1472" 
 />
    <glyph glyph-name="afii10094" unicode="&#x44c;" horiz-adv-x="1067" 
 />
    <glyph glyph-name="afii10095" unicode="&#x44d;" horiz-adv-x="1045" 
 />
    <glyph glyph-name="afii10096" unicode="&#x44e;" horiz-adv-x="1536" 
 />
    <glyph glyph-name="afii10097" unicode="&#x44f;" horiz-adv-x="1109" 
 />
    <glyph glyph-name="afii10071" unicode="&#x451;" 
 />
    <glyph glyph-name="afii10099" unicode="&#x452;" 
 />
    <glyph glyph-name="afii10100" unicode="&#x453;" horiz-adv-x="747" 
 />
    <glyph glyph-name="afii10101" unicode="&#x454;" horiz-adv-x="1045" 
 />
    <glyph glyph-name="afii10102" unicode="&#x455;" horiz-adv-x="1024" 
 />
    <glyph glyph-name="afii10103" unicode="&#x456;" horiz-adv-x="455" 
 />
    <glyph glyph-name="afii10104" unicode="&#x457;" horiz-adv-x="569" 
 />
    <glyph glyph-name="afii10105" unicode="&#x458;" horiz-adv-x="455" 
 />
    <glyph glyph-name="afii10106" unicode="&#x459;" horiz-adv-x="1856" 
 />
    <glyph glyph-name="afii10107" unicode="&#x45a;" horiz-adv-x="1664" 
 />
    <glyph glyph-name="afii10108" unicode="&#x45b;" 
 />
    <glyph glyph-name="afii10109" unicode="&#x45c;" horiz-adv-x="896" 
 />
    <glyph glyph-name="afii10110" unicode="&#x45e;" horiz-adv-x="1024" 
 />
    <glyph glyph-name="afii10193" unicode="&#x45f;" horiz-adv-x="1131" 
 />
    <glyph glyph-name="afii10050" unicode="&#x490;" horiz-adv-x="1001" 
 />
    <glyph glyph-name="afii10098" unicode="&#x491;" horiz-adv-x="842" 
 />
    <glyph glyph-name="Wgrave" unicode="&#x1e80;" horiz-adv-x="1933" 
 />
    <glyph glyph-name="wgrave" unicode="&#x1e81;" horiz-adv-x="1479" 
 />
    <glyph glyph-name="Wacute" unicode="&#x1e82;" horiz-adv-x="1933" 
 />
    <glyph glyph-name="wacute" unicode="&#x1e83;" horiz-adv-x="1479" 
 />
    <glyph glyph-name="Wdieresis" unicode="&#x1e84;" horiz-adv-x="1933" 
 />
    <glyph glyph-name="wdieresis" unicode="&#x1e85;" horiz-adv-x="1479" 
 />
    <glyph glyph-name="Ygrave" unicode="&#x1ef2;" horiz-adv-x="1366" 
 />
    <glyph glyph-name="ygrave" unicode="&#x1ef3;" horiz-adv-x="1024" 
 />
    <glyph glyph-name="endash" unicode="&#x2013;" 
 />
    <glyph glyph-name="emdash" unicode="&#x2014;" horiz-adv-x="2048" 
 />
    <glyph glyph-name="afii00208" unicode="&#x2015;" horiz-adv-x="2048" 
 />
    <glyph glyph-name="underscoredbl" unicode="&#x2017;" horiz-adv-x="1131" 
 />
    <glyph glyph-name="quoteleft" unicode="&#x2018;" horiz-adv-x="650" 
d="M165 1770h25q140 0 185 -283v-15l-7 -6v3q44 -295 74 -295l91 -248l32 -101l-109 -16q-235 0 -369 216q-82 197 -82 331l-12 142q12 123 58 213q59 59 114 59z" />
    <glyph glyph-name="quoteright" unicode="&#x2019;" horiz-adv-x="813" 
d="M518 1755q139 0 192 -150l6 -47l-6 -17l6 -50v-25q-16 -146 -60 -211q-107 -241 -272 -345q0 -26 -169 -51l-135 10l-34 -16h-38v29q86 217 189 355q137 236 137 358q0 82 113 141z" />
    <glyph glyph-name="quotesinglbase" unicode="&#x201a;" horiz-adv-x="455" 
 />
    <glyph glyph-name="quotereversed" unicode="&#x201b;" horiz-adv-x="455" 
 />
    <glyph glyph-name="quotedblleft" unicode="&#x201c;" horiz-adv-x="1289" 
d="M820 1757q164 0 209 -244l18 -142v-33h-5q17 -349 48 -405q0 -14 42 -33v0h37l32 -34q-89 -86 -228 -86h-31q-153 0 -251 311q-25 234 -31 444q0 222 160 222zM226 1665q119 0 177 -124q55 -170 111 -551l-6 -52q39 -75 79 -75v-63q-150 25 -163 34l2 1h-17
q-172 0 -267 183q-69 83 -108 382l7 7v-1l-12 73q0 125 154 186h43z" />
    <glyph glyph-name="quotedblright" unicode="&#x201d;" horiz-adv-x="1173" 
d="M736 1747q136 0 243 -207q35 -67 74 -279l-6 -6l5 -51q0 -236 -175 -410q0 -28 -91 -110h-43v30q32 66 32 119v33l5 5q-82 289 -82 369q-31 154 -84 315l-7 43q35 149 129 149zM127 1695h32q99 0 211 -168q48 -133 48 -169v-117q0 -256 -164 -416q-71 -41 -135 -44
l-127 24v32l52 32v-4l-7 66q39 233 39 317q0 155 -65 301v38q32 108 116 108z" />
    <glyph glyph-name="quotedblbase" unicode="&#x201e;" horiz-adv-x="682" 
 />
    <glyph glyph-name="dagger" unicode="&#x2020;" 
 />
    <glyph glyph-name="daggerdbl" unicode="&#x2021;" 
 />
    <glyph glyph-name="bullet" unicode="&#x2022;" horiz-adv-x="717" 
 />
    <glyph glyph-name="ellipsis" unicode="&#x2026;" horiz-adv-x="2048" 
 />
    <glyph glyph-name="perthousand" unicode="&#x2030;" horiz-adv-x="2048" 
 />
    <glyph glyph-name="minute" unicode="&#x2032;" horiz-adv-x="384" 
 />
    <glyph glyph-name="second" unicode="&#x2033;" horiz-adv-x="725" 
 />
    <glyph glyph-name="guilsinglleft" unicode="&#x2039;" horiz-adv-x="682" 
 />
    <glyph glyph-name="guilsinglright" unicode="&#x203a;" horiz-adv-x="682" 
 />
    <glyph glyph-name="exclamdbl" unicode="&#x203c;" horiz-adv-x="1024" 
 />
    <glyph glyph-name="uni203E" unicode="&#x203e;" horiz-adv-x="682" 
 />
    <glyph glyph-name="fraction" unicode="&#x2044;" horiz-adv-x="342" 
 />
    <glyph glyph-name="fraction" unicode="&#x2215;" horiz-adv-x="342" 
 />
    <glyph glyph-name="uni207F" unicode="&#x207f;" horiz-adv-x="747" 
 />
    <glyph glyph-name="franc" unicode="&#x20a3;" 
 />
    <glyph glyph-name="lira" unicode="&#x20a4;" 
 />
    <glyph glyph-name="peseta" unicode="&#x20a7;" horiz-adv-x="2240" 
 />
    <glyph glyph-name="Euro" unicode="&#x20ac;" 
 />
    <glyph glyph-name="afii61248" unicode="&#x2105;" horiz-adv-x="1813" 
 />
    <glyph glyph-name="afii61289" unicode="&#x2113;" horiz-adv-x="662" 
 />
    <glyph glyph-name="afii61352" unicode="&#x2116;" horiz-adv-x="2197" 
 />
    <glyph glyph-name="trademark" unicode="&#x2122;" horiz-adv-x="2048" 
 />
    <glyph glyph-name="Omega" unicode="&#x2126;" horiz-adv-x="1573" 
 />
    <glyph glyph-name="estimated" unicode="&#x212e;" horiz-adv-x="1229" 
 />
    <glyph glyph-name="oneeighth" unicode="&#x215b;" horiz-adv-x="1708" 
 />
    <glyph glyph-name="threeeighths" unicode="&#x215c;" horiz-adv-x="1708" 
 />
    <glyph glyph-name="fiveeighths" unicode="&#x215d;" horiz-adv-x="1708" 
 />
    <glyph glyph-name="seveneighths" unicode="&#x215e;" horiz-adv-x="1708" 
 />
    <glyph glyph-name="arrowleft" unicode="&#x2190;" horiz-adv-x="2048" 
 />
    <glyph glyph-name="arrowup" unicode="&#x2191;" horiz-adv-x="1024" 
 />
    <glyph glyph-name="arrowright" unicode="&#x2192;" horiz-adv-x="2048" 
 />
    <glyph glyph-name="arrowdown" unicode="&#x2193;" horiz-adv-x="1024" 
 />
    <glyph glyph-name="arrowboth" unicode="&#x2194;" horiz-adv-x="2048" 
 />
    <glyph glyph-name="arrowupdn" unicode="&#x2195;" horiz-adv-x="1024" 
 />
    <glyph glyph-name="arrowupdnbse" unicode="&#x21a8;" horiz-adv-x="1024" 
 />
    <glyph glyph-name="partialdiff" unicode="&#x2202;" horiz-adv-x="1012" 
 />
    <glyph glyph-name="Delta" unicode="&#x2206;" horiz-adv-x="1253" 
 />
    <glyph glyph-name="product" unicode="&#x220f;" horiz-adv-x="1686" 
 />
    <glyph glyph-name="summation" unicode="&#x2211;" horiz-adv-x="1460" 
 />
    <glyph glyph-name="minus" unicode="&#x2212;" horiz-adv-x="1196" 
 />
    <glyph glyph-name="radical" unicode="&#x221a;" horiz-adv-x="1124" 
 />
    <glyph glyph-name="infinity" unicode="&#x221e;" horiz-adv-x="1460" 
 />
    <glyph glyph-name="orthogonal" unicode="&#x221f;" horiz-adv-x="2005" 
 />
    <glyph glyph-name="intersection" unicode="&#x2229;" horiz-adv-x="1472" 
 />
    <glyph glyph-name="integral" unicode="&#x222b;" horiz-adv-x="561" 
 />
    <glyph glyph-name="approxequal" unicode="&#x2248;" horiz-adv-x="1124" 
 />
    <glyph glyph-name="notequal" unicode="&#x2260;" horiz-adv-x="1124" 
 />
    <glyph glyph-name="equivalence" unicode="&#x2261;" horiz-adv-x="1195" 
 />
    <glyph glyph-name="lessequal" unicode="&#x2264;" horiz-adv-x="1124" 
 />
    <glyph glyph-name="greaterequal" unicode="&#x2265;" horiz-adv-x="1124" 
 />
    <glyph glyph-name="house" unicode="&#x2302;" horiz-adv-x="1237" 
 />
    <glyph glyph-name="revlogicalnot" unicode="&#x2310;" horiz-adv-x="1196" 
 />
    <glyph glyph-name="integraltp" unicode="&#x2320;" horiz-adv-x="1237" 
 />
    <glyph glyph-name="integralbt" unicode="&#x2321;" horiz-adv-x="1237" 
 />
    <glyph glyph-name="SF100000" unicode="&#x2500;" horiz-adv-x="1451" 
 />
    <glyph glyph-name="SF110000" unicode="&#x2502;" horiz-adv-x="1280" 
 />
    <glyph glyph-name="SF010000" unicode="&#x250c;" horiz-adv-x="1451" 
 />
    <glyph glyph-name="SF030000" unicode="&#x2510;" horiz-adv-x="1451" 
 />
    <glyph glyph-name="SF020000" unicode="&#x2514;" horiz-adv-x="1451" 
 />
    <glyph glyph-name="SF040000" unicode="&#x2518;" horiz-adv-x="1451" 
 />
    <glyph glyph-name="SF080000" unicode="&#x251c;" horiz-adv-x="1451" 
 />
    <glyph glyph-name="SF090000" unicode="&#x2524;" horiz-adv-x="1451" 
 />
    <glyph glyph-name="SF060000" unicode="&#x252c;" horiz-adv-x="1451" 
 />
    <glyph glyph-name="SF070000" unicode="&#x2534;" horiz-adv-x="1451" 
 />
    <glyph glyph-name="SF050000" unicode="&#x253c;" horiz-adv-x="1451" 
 />
    <glyph glyph-name="SF430000" unicode="&#x2550;" horiz-adv-x="1451" 
 />
    <glyph glyph-name="SF240000" unicode="&#x2551;" horiz-adv-x="1451" 
 />
    <glyph glyph-name="SF510000" unicode="&#x2552;" horiz-adv-x="1451" 
 />
    <glyph glyph-name="SF520000" unicode="&#x2553;" horiz-adv-x="1451" 
 />
    <glyph glyph-name="SF390000" unicode="&#x2554;" horiz-adv-x="1451" 
 />
    <glyph glyph-name="SF220000" unicode="&#x2555;" horiz-adv-x="1451" 
 />
    <glyph glyph-name="SF210000" unicode="&#x2556;" horiz-adv-x="1451" 
 />
    <glyph glyph-name="SF250000" unicode="&#x2557;" horiz-adv-x="1451" 
 />
    <glyph glyph-name="SF500000" unicode="&#x2558;" horiz-adv-x="1451" 
 />
    <glyph glyph-name="SF490000" unicode="&#x2559;" horiz-adv-x="1451" 
 />
    <glyph glyph-name="SF380000" unicode="&#x255a;" horiz-adv-x="1451" 
 />
    <glyph glyph-name="SF280000" unicode="&#x255b;" horiz-adv-x="1451" 
 />
    <glyph glyph-name="SF270000" unicode="&#x255c;" horiz-adv-x="1451" 
 />
    <glyph glyph-name="SF260000" unicode="&#x255d;" horiz-adv-x="1451" 
 />
    <glyph glyph-name="SF360000" unicode="&#x255e;" horiz-adv-x="1451" 
 />
    <glyph glyph-name="SF370000" unicode="&#x255f;" horiz-adv-x="1451" 
 />
    <glyph glyph-name="SF420000" unicode="&#x2560;" horiz-adv-x="1451" 
 />
    <glyph glyph-name="SF190000" unicode="&#x2561;" horiz-adv-x="1451" 
 />
    <glyph glyph-name="SF200000" unicode="&#x2562;" horiz-adv-x="1451" 
 />
    <glyph glyph-name="SF230000" unicode="&#x2563;" horiz-adv-x="1451" 
 />
    <glyph glyph-name="SF470000" unicode="&#x2564;" horiz-adv-x="1451" 
 />
    <glyph glyph-name="SF480000" unicode="&#x2565;" horiz-adv-x="1451" 
 />
    <glyph glyph-name="SF410000" unicode="&#x2566;" horiz-adv-x="1451" 
 />
    <glyph glyph-name="SF450000" unicode="&#x2567;" horiz-adv-x="1451" 
 />
    <glyph glyph-name="SF460000" unicode="&#x2568;" horiz-adv-x="1451" 
 />
    <glyph glyph-name="SF400000" unicode="&#x2569;" horiz-adv-x="1451" 
 />
    <glyph glyph-name="SF540000" unicode="&#x256a;" horiz-adv-x="1451" 
 />
    <glyph glyph-name="SF530000" unicode="&#x256b;" horiz-adv-x="1451" 
 />
    <glyph glyph-name="SF440000" unicode="&#x256c;" horiz-adv-x="1451" 
 />
    <glyph glyph-name="upblock" unicode="&#x2580;" horiz-adv-x="1451" 
 />
    <glyph glyph-name="dnblock" unicode="&#x2584;" horiz-adv-x="1451" 
 />
    <glyph glyph-name="block" unicode="&#x2588;" horiz-adv-x="1451" 
 />
    <glyph glyph-name="lfblock" unicode="&#x258c;" horiz-adv-x="1451" 
 />
    <glyph glyph-name="rtblock" unicode="&#x2590;" horiz-adv-x="1451" 
 />
    <glyph glyph-name="ltshade" unicode="&#x2591;" horiz-adv-x="1451" 
 />
    <glyph glyph-name="shade" unicode="&#x2592;" horiz-adv-x="1451" 
 />
    <glyph glyph-name="dkshade" unicode="&#x2593;" horiz-adv-x="1493" 
 />
    <glyph glyph-name="filledbox" unicode="&#x25a0;" horiz-adv-x="1237" 
 />
    <glyph glyph-name="H22073" unicode="&#x25a1;" horiz-adv-x="1237" 
 />
    <glyph glyph-name="H18543" unicode="&#x25aa;" horiz-adv-x="726" 
 />
    <glyph glyph-name="H18551" unicode="&#x25ab;" horiz-adv-x="726" 
 />
    <glyph glyph-name="filledrect" unicode="&#x25ac;" horiz-adv-x="2048" 
 />
    <glyph glyph-name="triagup" unicode="&#x25b2;" horiz-adv-x="2027" 
 />
    <glyph glyph-name="triagrt" unicode="&#x25ba;" horiz-adv-x="2027" 
 />
    <glyph glyph-name="triagdn" unicode="&#x25bc;" horiz-adv-x="2027" 
 />
    <glyph glyph-name="triaglf" unicode="&#x25c4;" horiz-adv-x="2027" 
 />
    <glyph glyph-name="lozenge" unicode="&#x25ca;" horiz-adv-x="1012" 
 />
    <glyph glyph-name="circle" unicode="&#x25cb;" horiz-adv-x="1237" 
 />
    <glyph glyph-name="H18533" unicode="&#x25cf;" horiz-adv-x="1237" 
 />
    <glyph glyph-name="invbullet" unicode="&#x25d8;" horiz-adv-x="1237" 
 />
    <glyph glyph-name="invcircle" unicode="&#x25d9;" horiz-adv-x="1237" 
 />
    <glyph glyph-name="openbullet" unicode="&#x25e6;" horiz-adv-x="726" 
 />
    <glyph glyph-name="smileface" unicode="&#x263a;" horiz-adv-x="2091" 
 />
    <glyph glyph-name="invsmileface" unicode="&#x263b;" horiz-adv-x="2155" 
 />
    <glyph glyph-name="sun" unicode="&#x263c;" horiz-adv-x="1877" 
 />
    <glyph glyph-name="female" unicode="&#x2640;" horiz-adv-x="1536" 
 />
    <glyph glyph-name="male" unicode="&#x2642;" horiz-adv-x="1536" 
 />
    <glyph glyph-name="spade" unicode="&#x2660;" horiz-adv-x="1088" 
 />
    <glyph glyph-name="club" unicode="&#x2663;" horiz-adv-x="1344" 
 />
    <glyph glyph-name="heart" unicode="&#x2665;" horiz-adv-x="1216" 
 />
    <glyph glyph-name="diamond" unicode="&#x2666;" horiz-adv-x="1045" 
 />
    <glyph glyph-name="musicalnote" unicode="&#x266a;" horiz-adv-x="1024" 
 />
    <glyph glyph-name="musicalnotedbl" unicode="&#x266b;" horiz-adv-x="1536" 
 />
    <glyph glyph-name="uniF001" unicode="&#xf001;" horiz-adv-x="1024" 
 />
    <glyph glyph-name="uniF001" unicode="&#xfb01;" horiz-adv-x="1024" 
 />
    <glyph glyph-name="uniF002" unicode="&#xf002;" horiz-adv-x="1024" 
 />
    <glyph glyph-name="uniF002" unicode="&#xfb02;" horiz-adv-x="1024" 
 />
    <glyph glyph-name="uniF004" unicode="&#xf004;" horiz-adv-x="682" 
 />
    <glyph glyph-name="uniF005" unicode="&#xf005;" horiz-adv-x="682" 
 />
    <glyph glyph-name="glyph155" horiz-adv-x="1124" 
 />
  </font>
</defs>
</svg>
